SplineFontDB: 3.0
FontName: ArefRuqaa-Regular
FullName: Aref Ruqaa
FamilyName: Aref Ruqaa
Weight: Book
Copyright: Copyright (c) 2015, Khaled Hosny <khaledhosny@eglug.org>
Version: 000.001
ItalicAngle: 0
UnderlinePosition: -142
UnderlineWidth: 150
Ascent: 1638
Descent: 410
sfntRevision: 0x00010000
LayerCount: 2
Layer: 0 1 "Back"  1
Layer: 1 1 "Fore"  0
FSType: 8
OS2Version: 3
OS2_WeightWidthSlopeOnly: 0
OS2_UseTypoMetrics: 1
CreationTime: 1425763181
PfmFamily: 17
TTFWeight: 400
TTFWidth: 5
LineGap: 222
VLineGap: 0
Panose: 2 0 5 0 0 0 0 0 0 0
OS2TypoAscent: 1434
OS2TypoAOffset: 0
OS2TypoDescent: -410
OS2TypoDOffset: 0
OS2TypoLinegap: 205
OS2WinAscent: 4500
OS2WinAOffset: 0
OS2WinDescent: 2000
OS2WinDOffset: 0
HheadAscent: 1716
HheadAOffset: 0
HheadDescent: -418
HheadDOffset: 0
OS2SubXSize: 1434
OS2SubYSize: 1331
OS2SubXOff: 0
OS2SubYOff: 283
OS2SupXSize: 1434
OS2SupYSize: 1331
OS2SupXOff: 0
OS2SupYOff: 977
OS2StrikeYSize: 102
OS2StrikeYPos: 530
OS2Vendor: 'BLQ '
OS2UpperOpticalPointSize: 0
Lookup: 2 9 0 "'isol' Isolated Forms in Arabic lookup 0"  {"'isol' Isolated Forms in Arabic lookup 0 subtable"  } ['isol' ('arab' <'dflt' > ) ]
Lookup: 2 9 0 "'init' Initial Forms in Arabic lookup 1"  {"'init' Initial Forms in Arabic lookup 1 subtable"  } ['init' ('arab' <'dflt' > ) ]
Lookup: 2 9 0 "'fina' Terminal Forms in Arabic lookup 2"  {"'fina' Terminal Forms in Arabic lookup 2 subtable"  } ['fina' ('arab' <'dflt' > ) ]
Lookup: 2 0 0 "'medi' Medial Forms in Arabic lookup 3"  {"'medi' Medial Forms in Arabic lookup 3 subtable"  } ['medi' ('arab' <'dflt' > ) ]
Lookup: 4 1 0 "'calt' Contextual Alternates in Arabic lookup 4"  {"'calt' Contextual Alternates in Arabic lookup 4 subtable"  } ['calt' ('arab' <'dflt' > ) ]
Lookup: 6 9 0 "'calt' Contextual Alternates in Arabic lookup 5"  {"'calt' Contextual Alternates in Arabic lookup 5 subtable"  } ['calt' ('arab' <'dflt' > ) ]

StartChar: .notdef
Encoding: 65536 -1 0
Width: 1024
GlyphClass: 2
Flags: W
LayerCount: 2
Fore
SplineSet
100 0 m 1,0,-1
 100 1434 l 1,1,-1
 924 1434 l 1,2,-1
 924 0 l 1,3,-1
 100 0 l 1,0,-1
150 50 m 1,4,-1
 874 50 l 1,5,-1
 874 1384 l 1,6,-1
 150 1384 l 1,7,-1
 150 50 l 1,4,-1
325 1148 m 1,8,9
 356 1176 356 1176 383 1191 c 0,10,11
 436 1221 436 1221 495 1221 c 0,12,13
 587 1221 587 1221 643 1173.5 c 128,-1,14
 699 1126 699 1126 699 1046 c 0,15,16
 699 997 699 997 676 947.5 c 128,-1,17
 653 898 653 898 589 818 c 0,18,19
 526 738 526 738 490 686 c 128,-1,20
 454 634 454 634 454 587 c 0,21,22
 454 549 454 549 478 454 c 1,23,-1
 446 454 l 1,24,25
 411 551 411 551 411 602 c 0,26,27
 411 678 411 678 492.5 820 c 128,-1,28
 574 962 574 962 574 1037 c 0,29,30
 574 1094 574 1094 541 1127 c 128,-1,31
 508 1160 508 1160 450 1160 c 0,32,33
 412 1160 412 1160 381 1143 c 0,34,35
 355 1128 355 1128 325 1103 c 1,36,-1
 325 1148 l 1,8,9
389 334 m 2,37,-1
 446 392 l 2,38,39
 457 402 457 402 466 402 c 0,40,41
 476 402 476 402 488 391 c 1,42,-1
 544 331 l 2,43,44
 553 320 553 320 553 311 c 0,45,46
 553 300 553 300 543 289 c 2,47,-1
 487 227 l 1,48,49
 473 213 473 213 466 213 c 0,50,51
 455 213 455 213 446 223 c 2,52,-1
 385 294 l 2,53,54
 378 303 378 303 378 312 c 0,55,56
 378 322 378 322 389 334 c 2,37,-1
EndSplineSet
EndChar

StartChar: exclam
Encoding: 33 33 4
Width: 520
GlyphClass: 2
Flags: W
LayerCount: 2
Fore
SplineSet
101 174 m 2,0,-1
 283 362 l 2,1,2
 289 369 289 369 296 369 c 0,3,4
 302 369 302 369 308 363 c 2,5,-1
 457 219 l 2,6,7
 464 212 464 212 464 206 c 256,8,9
 464 200 464 200 458 194 c 2,10,-1
 276 6 l 2,11,12
 269 0 269 0 263 0 c 256,13,14
 257 0 257 0 251 5 c 2,15,-1
 102 149 l 2,16,17
 95 156 95 156 95 162 c 256,18,19
 95 168 95 168 101 174 c 2,0,-1
417 951 m 0,20,21
 420 912 420 912 420 875 c 0,22,23
 420 770 420 770 399 688 c 0,24,25
 370 576 370 576 326 487 c 0,26,27
 314 463 314 463 302 437 c 128,-1,28
 290 411 290 411 271 396 c 0,29,30
 265 391 265 391 261 391 c 0,31,32
 256 391 256 391 256 398 c 1,33,34
 254 410 254 410 254 413 c 0,35,36
 274 534 274 534 274 647 c 0,37,38
 274 789 274 789 242 916 c 0,39,40
 183 1143 183 1143 98 1310 c 0,41,42
 91 1323 91 1323 71 1356 c 0,43,44
 53 1385 53 1385 53 1398 c 2,45,-1
 53 1401 l 1,46,47
 80 1473 80 1473 113 1544 c 128,-1,48
 146 1615 146 1615 177 1689 c 1,49,50
 255 1524 255 1524 327.5 1354.5 c 128,-1,51
 400 1185 400 1185 417 951 c 0,20,21
EndSplineSet
EndChar

StartChar: quotedbl
Encoding: 34 34 5
Width: 672
GlyphClass: 2
Flags: W
LayerCount: 2
Fore
SplineSet
197 1108 m 1,0,-1
 167 1108 l 1,1,-1
 105 1467 l 2,2,3
 101 1490 101 1490 101 1500 c 0,4,5
 101 1537 101 1537 121.5 1557 c 128,-1,6
 142 1577 142 1577 181 1577 c 256,7,8
 220 1577 220 1577 241.5 1557.5 c 128,-1,9
 263 1538 263 1538 263 1501 c 0,10,11
 263 1493 263 1493 259 1467 c 2,12,-1
 197 1108 l 1,0,-1
509 1108 m 1,13,-1
 479 1108 l 1,14,-1
 417 1467 l 2,15,16
 413 1490 413 1490 413 1500 c 0,17,18
 413 1537 413 1537 433.5 1557 c 128,-1,19
 454 1577 454 1577 493 1577 c 256,20,21
 532 1577 532 1577 553.5 1557.5 c 128,-1,22
 575 1538 575 1538 575 1501 c 0,23,24
 575 1493 575 1493 571 1467 c 2,25,-1
 509 1108 l 1,13,-1
EndSplineSet
EndChar

StartChar: numbersign
Encoding: 35 35 6
Width: 1336
GlyphClass: 2
Flags: W
LayerCount: 2
Fore
SplineSet
596 859 m 1,0,-1
 511 569 l 1,1,-1
 753 569 l 1,2,-1
 839 859 l 1,3,-1
 596 859 l 1,0,-1
673 1434 m 1,4,-1
 766 1434 l 1,5,-1
 625 957 l 1,6,-1
 867 957 l 1,7,-1
 1009 1434 l 1,8,-1
 1101 1434 l 1,9,-1
 960 957 l 1,10,-1
 1219 957 l 1,11,-1
 1190 860 l 1,12,-1
 931 860 l 1,13,-1
 848 570 l 1,14,-1
 1127 570 l 1,15,-1
 1097 472 l 1,16,-1
 817 472 l 1,17,-1
 677 0 l 1,18,-1
 585 0 l 1,19,-1
 724 472 l 1,20,-1
 484 472 l 1,21,-1
 342 0 l 1,22,-1
 250 0 l 1,23,-1
 390 472 l 1,24,-1
 117 472 l 1,25,-1
 147 570 l 1,26,-1
 418 570 l 1,27,-1
 504 860 l 1,28,-1
 209 860 l 1,29,-1
 238 957 l 1,30,-1
 533 957 l 1,31,-1
 673 1434 l 1,4,-1
EndSplineSet
EndChar

StartChar: quotesingle
Encoding: 39 39 7
Width: 346
GlyphClass: 2
Flags: W
LayerCount: 2
Fore
SplineSet
197 1108 m 1,0,-1
 167 1108 l 1,1,-1
 105 1467 l 2,2,3
 101 1490 101 1490 101 1500 c 0,4,5
 101 1537 101 1537 121.5 1557 c 128,-1,6
 142 1577 142 1577 181 1577 c 256,7,8
 220 1577 220 1577 241.5 1557.5 c 128,-1,9
 263 1538 263 1538 263 1501 c 0,10,11
 263 1493 263 1493 259 1467 c 2,12,-1
 197 1108 l 1,0,-1
EndSplineSet
EndChar

StartChar: parenleft
Encoding: 40 40 8
Width: 758
GlyphClass: 2
Flags: W
LayerCount: 2
Fore
SplineSet
252 601 m 1,0,1
 254 878 254 878 351.5 1131 c 128,-1,2
 449 1384 449 1384 620 1573 c 1,3,-1
 700 1573 l 1,4,5
 528 1331 528 1331 470 1135 c 0,6,7
 413 942 413 942 413 612 c 2,8,-1
 413 590 l 2,9,10
 413 260 413 260 470 68 c 0,11,12
 528 -128 528 -128 700 -370 c 1,13,-1
 620 -370 l 1,14,15
 449 -181 449 -181 351.5 71.5 c 128,-1,16
 254 324 254 324 252 601 c 1,0,1
EndSplineSet
EndChar

StartChar: parenright
Encoding: 41 41 9
Width: 758
GlyphClass: 2
Flags: W
LayerCount: 2
Fore
SplineSet
138 -370 m 1,0,-1
 58 -370 l 1,1,2
 230 -128 230 -128 288 68 c 0,3,4
 345 260 345 260 345 590 c 2,5,-1
 345 612 l 2,6,7
 345 942 345 942 288 1135 c 0,8,9
 230 1331 230 1331 58 1573 c 1,10,-1
 138 1573 l 1,11,12
 309 1384 309 1384 406.5 1131 c 128,-1,13
 504 878 504 878 506 601 c 1,14,15
 504 324 504 324 406.5 71.5 c 128,-1,16
 309 -181 309 -181 138 -370 c 1,0,-1
EndSplineSet
EndChar

StartChar: comma
Encoding: 44 44 10
Width: 557
GlyphClass: 2
Flags: W
LayerCount: 2
Fore
SplineSet
238 258 m 1,0,1
 282 258 282 258 326.5 192.5 c 128,-1,2
 371 127 371 127 371 41 c 0,3,4
 371 -68 371 -68 300 -185.5 c 128,-1,5
 229 -303 229 -303 161 -303 c 1,6,-1
 161 -260 l 1,7,8
 234 -217 234 -217 248 -70 c 1,9,10
 248 49 248 49 119 91 c 1,11,-1
 119 133 l 1,12,-1
 238 258 l 1,0,1
EndSplineSet
EndChar

StartChar: slash
Encoding: 47 47 11
Width: 569
GlyphClass: 2
Flags: W
LayerCount: 2
Fore
SplineSet
93 -50 m 1,0,-1
 13 -50 l 1,1,-1
 554 1434 l 1,2,-1
 634 1434 l 1,3,-1
 93 -50 l 1,0,-1
EndSplineSet
EndChar

StartChar: colon
Encoding: 58 58 12
Width: 557
GlyphClass: 2
Flags: W
LayerCount: 2
Fore
SplineSet
145 167 m 2,0,-1
 227 251 l 2,1,2
 242 265 242 265 256 265 c 0,3,4
 269 265 269 265 287 249 c 1,5,-1
 367 163 l 1,6,7
 379 147 379 147 379 134 c 0,8,9
 379 119 379 119 365 103 c 2,10,-1
 285 15 l 1,11,12
 265 -5 265 -5 256 -5 c 0,13,14
 240 -5 240 -5 227 9 c 2,15,-1
 139 110 l 1,16,17
 129 123 129 123 129 136 c 0,18,19
 129 151 129 151 145 167 c 2,0,-1
145 860 m 2,20,-1
 227 944 l 2,21,22
 242 958 242 958 256 958 c 0,23,24
 269 958 269 958 287 942 c 1,25,-1
 367 856 l 1,26,27
 379 840 379 840 379 827 c 0,28,29
 379 812 379 812 365 796 c 2,30,-1
 285 708 l 1,31,32
 265 688 265 688 256 688 c 0,33,34
 240 688 240 688 227 702 c 2,35,-1
 139 803 l 1,36,37
 129 816 129 816 129 829 c 0,38,39
 129 844 129 844 145 860 c 2,20,-1
EndSplineSet
EndChar

StartChar: semicolon
Encoding: 59 59 13
AltUni2: 00037e.ffffffff.0
Width: 557
GlyphClass: 2
Flags: W
LayerCount: 2
Fore
SplineSet
145 859 m 2,0,-1
 227 943 l 2,1,2
 242 957 242 957 256 957 c 0,3,4
 269 957 269 957 287 941 c 1,5,-1
 367 855 l 1,6,7
 379 839 379 839 379 826 c 0,8,9
 379 811 379 811 365 795 c 2,10,-1
 285 707 l 1,11,12
 265 687 265 687 256 687 c 0,13,14
 240 687 240 687 227 701 c 2,15,-1
 139 802 l 1,16,17
 129 815 129 815 129 828 c 0,18,19
 129 843 129 843 145 859 c 2,0,-1
238 258 m 1,20,21
 282 258 282 258 326.5 192.5 c 128,-1,22
 371 127 371 127 371 41 c 0,23,24
 371 -68 371 -68 300 -185.5 c 128,-1,25
 229 -303 229 -303 161 -303 c 1,26,-1
 161 -260 l 1,27,28
 234 -217 234 -217 248 -70 c 1,29,30
 248 49 248 49 119 91 c 1,31,-1
 119 133 l 1,32,-1
 238 258 l 1,20,21
EndSplineSet
EndChar

StartChar: less
Encoding: 60 60 14
Width: 1014
GlyphClass: 2
Flags: W
LayerCount: 2
Fore
SplineSet
927 1074 m 1,0,-1
 302 715 l 1,1,-1
 927 360 l 1,2,-1
 927 193 l 1,3,-1
 87 674 l 1,4,-1
 87 757 l 1,5,-1
 927 1241 l 1,6,-1
 927 1074 l 1,0,-1
EndSplineSet
EndChar

StartChar: equal
Encoding: 61 61 15
Width: 1014
GlyphClass: 2
Flags: W
LayerCount: 2
Fore
SplineSet
87 631 m 1,0,-1
 927 631 l 1,1,-1
 927 491 l 1,2,-1
 87 491 l 1,3,-1
 87 631 l 1,0,-1
87 943 m 1,4,-1
 927 943 l 1,5,-1
 927 803 l 1,6,-1
 87 803 l 1,7,-1
 87 943 l 1,4,-1
EndSplineSet
EndChar

StartChar: greater
Encoding: 62 62 16
Width: 1014
GlyphClass: 2
Flags: W
LayerCount: 2
Fore
SplineSet
87 1241 m 1,0,-1
 927 757 l 1,1,-1
 927 674 l 1,2,-1
 87 193 l 1,3,-1
 87 360 l 1,4,-1
 712 715 l 1,5,-1
 87 1074 l 1,6,-1
 87 1241 l 1,0,-1
EndSplineSet
EndChar

StartChar: question
Encoding: 63 63 17
Width: 748
GlyphClass: 2
Flags: W
LayerCount: 2
Fore
SplineSet
132 1330 m 1,0,1
 260 1434 260 1434 374 1434 c 0,2,3
 506 1434 506 1434 586 1366 c 128,-1,4
 666 1298 666 1298 666 1184 c 0,5,6
 666 1115 666 1115 633.5 1044 c 128,-1,7
 601 973 601 973 509 858 c 0,8,9
 419 745 419 745 367.5 670.5 c 128,-1,10
 316 596 316 596 316 528 c 0,11,12
 316 465 316 465 351 339 c 1,13,-1
 304 339 l 1,14,15
 254 477 254 477 254 550 c 0,16,17
 254 659 254 659 370.5 862 c 128,-1,18
 487 1065 487 1065 487 1171 c 0,19,20
 487 1253 487 1253 440 1300 c 128,-1,21
 393 1347 393 1347 310 1347 c 0,22,23
 226 1347 226 1347 132 1266 c 1,24,-1
 132 1330 l 1,0,1
223 167 m 2,25,-1
 305 251 l 2,26,27
 320 265 320 265 334 265 c 0,28,29
 347 265 347 265 365 249 c 1,30,-1
 445 163 l 1,31,32
 457 147 457 147 457 134 c 0,33,34
 457 119 457 119 443 103 c 2,35,-1
 363 15 l 1,36,37
 343 -5 343 -5 334 -5 c 0,38,39
 318 -5 318 -5 305 9 c 2,40,-1
 217 110 l 1,41,42
 207 123 207 123 207 136 c 0,43,44
 207 151 207 151 223 167 c 2,25,-1
EndSplineSet
EndChar

StartChar: braceleft
Encoding: 123 123 18
Width: 1014
GlyphClass: 2
Flags: W
LayerCount: 2
Fore
SplineSet
240 698 m 1,0,1
 412 703 412 703 463 769 c 128,-1,2
 514 835 514 835 514 902 c 2,3,-1
 514 1370 l 2,4,5
 514 1444 514 1444 591 1511.5 c 128,-1,6
 668 1579 668 1579 776 1579 c 2,7,-1
 884 1579 l 1,8,-1
 884 1529 l 1,9,-1
 794 1529 l 2,10,11
 733 1529 733 1529 687 1495.5 c 128,-1,12
 641 1462 641 1462 640 1404 c 1,13,-1
 640 904 l 2,14,15
 640 821 640 821 579.5 745.5 c 128,-1,16
 519 670 519 670 437 669 c 1,17,-1
 437 667 l 1,18,19
 519 666 519 666 580 591 c 128,-1,20
 641 516 641 516 641 433 c 2,21,-1
 640 -67 l 1,22,23
 641 -125 641 -125 687 -158.5 c 128,-1,24
 733 -192 733 -192 794 -192 c 2,25,-1
 884 -192 l 1,26,-1
 884 -242 l 1,27,-1
 776 -242 l 2,28,29
 668 -242 668 -242 591.5 -174.5 c 128,-1,30
 515 -107 515 -107 514 -33 c 1,31,-1
 514 435 l 2,32,33
 514 501 514 501 463 567 c 128,-1,34
 412 633 412 633 240 638 c 1,35,-1
 240 698 l 1,0,1
EndSplineSet
EndChar

StartChar: bar
Encoding: 124 124 19
Width: 1014
GlyphClass: 2
Flags: W
LayerCount: 2
Fore
SplineSet
427 1577 m 1,0,-1
 587 1577 l 1,1,-1
 587 -418 l 1,2,-1
 427 -418 l 1,3,-1
 427 1577 l 1,0,-1
EndSplineSet
EndChar

StartChar: braceright
Encoding: 125 125 20
Width: 1014
GlyphClass: 2
Flags: W
LayerCount: 2
Fore
SplineSet
774 638 m 1,0,1
 602 633 602 633 551 567 c 128,-1,2
 500 501 500 501 500 435 c 2,3,-1
 500 -33 l 1,4,5
 499 -107 499 -107 422.5 -174.5 c 128,-1,6
 346 -242 346 -242 238 -242 c 2,7,-1
 130 -242 l 1,8,-1
 130 -192 l 1,9,-1
 220 -192 l 2,10,11
 281 -192 281 -192 327 -158.5 c 128,-1,12
 373 -125 373 -125 374 -67 c 1,13,-1
 373 433 l 2,14,15
 373 516 373 516 434 591 c 128,-1,16
 495 666 495 666 578 667 c 1,17,-1
 578 669 l 1,18,19
 495 670 495 670 434.5 745.5 c 128,-1,20
 374 821 374 821 374 904 c 2,21,-1
 374 1404 l 1,22,23
 373 1462 373 1462 327 1495.5 c 128,-1,24
 281 1529 281 1529 220 1529 c 2,25,-1
 130 1529 l 1,26,-1
 130 1579 l 1,27,-1
 238 1579 l 2,28,29
 346 1579 346 1579 423 1511.5 c 128,-1,30
 500 1444 500 1444 500 1370 c 2,31,-1
 500 902 l 2,32,33
 500 835 500 835 551 769 c 128,-1,34
 602 703 602 703 774 698 c 1,35,-1
 774 638 l 1,0,1
EndSplineSet
EndChar

StartChar: endash
Encoding: 8211 8211 21
Width: 1108
GlyphClass: 2
Flags: W
LayerCount: 2
Fore
SplineSet
56 419 m 1,0,-1
 56 539 l 1,1,-1
 1052 539 l 1,2,-1
 1052 419 l 1,3,-1
 56 419 l 1,0,-1
EndSplineSet
EndChar

StartChar: emdash
Encoding: 8212 8212 22
Width: 2048
GlyphClass: 2
Flags: W
LayerCount: 2
Fore
SplineSet
0 419 m 1,0,-1
 0 539 l 1,1,-1
 2048 539 l 1,2,-1
 2048 419 l 1,3,-1
 0 419 l 1,0,-1
EndSplineSet
EndChar

StartChar: quoteleft
Encoding: 8216 8216 23
Width: 557
GlyphClass: 2
Flags: W
LayerCount: 2
Fore
SplineSet
319 1016 m 1,0,1
 275 1016 275 1016 230.5 1081.5 c 128,-1,2
 186 1147 186 1147 186 1233 c 0,3,4
 186 1342 186 1342 257 1459.5 c 128,-1,5
 328 1577 328 1577 396 1577 c 1,6,-1
 396 1534 l 1,7,8
 323 1491 323 1491 309 1344 c 1,9,10
 309 1225 309 1225 438 1183 c 1,11,-1
 438 1141 l 1,12,-1
 319 1016 l 1,0,1
EndSplineSet
EndChar

StartChar: quoteright
Encoding: 8217 8217 24
Width: 557
GlyphClass: 2
Flags: W
LayerCount: 2
Fore
SplineSet
238 1577 m 1,0,1
 282 1577 282 1577 326.5 1511.5 c 128,-1,2
 371 1446 371 1446 371 1360 c 0,3,4
 371 1251 371 1251 300 1133.5 c 128,-1,5
 229 1016 229 1016 161 1016 c 1,6,-1
 161 1059 l 1,7,8
 234 1102 234 1102 248 1249 c 1,9,10
 248 1368 248 1368 119 1410 c 1,11,-1
 119 1452 l 1,12,-1
 238 1577 l 1,0,1
EndSplineSet
EndChar

StartChar: quotesinglbase
Encoding: 8218 8218 25
Width: 557
GlyphClass: 2
Flags: W
LayerCount: 2
Fore
SplineSet
238 281 m 1,0,1
 282 281 282 281 326.5 215.5 c 128,-1,2
 371 150 371 150 371 64 c 0,3,4
 371 -45 371 -45 300 -162.5 c 128,-1,5
 229 -280 229 -280 161 -280 c 1,6,-1
 161 -237 l 1,7,8
 234 -194 234 -194 248 -47 c 1,9,10
 248 72 248 72 119 114 c 1,11,-1
 119 156 l 1,12,-1
 238 281 l 1,0,1
EndSplineSet
EndChar

StartChar: quotedblleft
Encoding: 8220 8220 26
Width: 910
GlyphClass: 2
Flags: W
LayerCount: 2
Fore
SplineSet
319 1016 m 1,0,1
 275 1016 275 1016 230.5 1081.5 c 128,-1,2
 186 1147 186 1147 186 1233 c 0,3,4
 186 1342 186 1342 257 1459.5 c 128,-1,5
 328 1577 328 1577 396 1577 c 1,6,-1
 396 1534 l 1,7,8
 323 1491 323 1491 309 1344 c 1,9,10
 309 1225 309 1225 438 1183 c 1,11,-1
 438 1141 l 1,12,-1
 319 1016 l 1,0,1
672 1016 m 1,13,14
 628 1016 628 1016 583.5 1081.5 c 128,-1,15
 539 1147 539 1147 539 1233 c 0,16,17
 539 1342 539 1342 610 1459.5 c 128,-1,18
 681 1577 681 1577 749 1577 c 1,19,-1
 749 1534 l 1,20,21
 676 1491 676 1491 662 1344 c 1,22,23
 662 1225 662 1225 791 1183 c 1,24,-1
 791 1141 l 1,25,-1
 672 1016 l 1,13,14
EndSplineSet
EndChar

StartChar: quotedblright
Encoding: 8221 8221 27
Width: 910
GlyphClass: 2
Flags: W
LayerCount: 2
Fore
SplineSet
238 1577 m 1,0,1
 282 1577 282 1577 326.5 1511.5 c 128,-1,2
 371 1446 371 1446 371 1360 c 0,3,4
 371 1251 371 1251 300 1133.5 c 128,-1,5
 229 1016 229 1016 161 1016 c 1,6,-1
 161 1059 l 1,7,8
 234 1102 234 1102 248 1249 c 1,9,10
 248 1368 248 1368 119 1410 c 1,11,-1
 119 1452 l 1,12,-1
 238 1577 l 1,0,1
591 1577 m 1,13,14
 635 1577 635 1577 679.5 1511.5 c 128,-1,15
 724 1446 724 1446 724 1360 c 0,16,17
 724 1251 724 1251 653 1133.5 c 128,-1,18
 582 1016 582 1016 514 1016 c 1,19,-1
 514 1059 l 1,20,21
 587 1102 587 1102 601 1249 c 1,22,23
 601 1368 601 1368 472 1410 c 1,24,-1
 472 1452 l 1,25,-1
 591 1577 l 1,13,14
EndSplineSet
EndChar

StartChar: quotedblbase
Encoding: 8222 8222 28
Width: 910
GlyphClass: 2
Flags: W
LayerCount: 2
Fore
SplineSet
238 281 m 1,0,1
 282 281 282 281 326.5 215.5 c 128,-1,2
 371 150 371 150 371 64 c 0,3,4
 371 -45 371 -45 300 -162.5 c 128,-1,5
 229 -280 229 -280 161 -280 c 1,6,-1
 161 -237 l 1,7,8
 234 -194 234 -194 248 -47 c 1,9,10
 248 72 248 72 119 114 c 1,11,-1
 119 156 l 1,12,-1
 238 281 l 1,0,1
591 281 m 1,13,14
 635 281 635 281 679.5 215.5 c 128,-1,15
 724 150 724 150 724 64 c 0,16,17
 724 -45 724 -45 653 -162.5 c 128,-1,18
 582 -280 582 -280 514 -280 c 1,19,-1
 514 -237 l 1,20,21
 587 -194 587 -194 601 -47 c 1,22,23
 601 72 601 72 472 114 c 1,24,-1
 472 156 l 1,25,-1
 591 281 l 1,13,14
EndSplineSet
EndChar

StartChar: ellipsis
Encoding: 8230 8230 29
Width: 2048
GlyphClass: 2
Flags: W
LayerCount: 2
Fore
SplineSet
145 167 m 2,0,-1
 227 251 l 2,1,2
 242 265 242 265 256 265 c 0,3,4
 269 265 269 265 287 249 c 1,5,-1
 367 163 l 1,6,7
 379 147 379 147 379 134 c 0,8,9
 379 119 379 119 365 103 c 2,10,-1
 285 15 l 1,11,12
 265 -5 265 -5 256 -5 c 0,13,14
 240 -5 240 -5 227 9 c 2,15,-1
 139 110 l 1,16,17
 129 123 129 123 129 136 c 0,18,19
 129 151 129 151 145 167 c 2,0,-1
828 167 m 2,20,-1
 910 251 l 2,21,22
 925 265 925 265 939 265 c 0,23,24
 952 265 952 265 970 249 c 1,25,-1
 1050 163 l 1,26,27
 1062 147 1062 147 1062 134 c 0,28,29
 1062 119 1062 119 1048 103 c 2,30,-1
 968 15 l 1,31,32
 948 -5 948 -5 939 -5 c 0,33,34
 923 -5 923 -5 910 9 c 2,35,-1
 822 110 l 1,36,37
 812 123 812 123 812 136 c 0,38,39
 812 151 812 151 828 167 c 2,20,-1
1511 167 m 2,40,-1
 1593 251 l 2,41,42
 1608 265 1608 265 1622 265 c 0,43,44
 1635 265 1635 265 1653 249 c 1,45,-1
 1733 163 l 1,46,47
 1745 147 1745 147 1745 134 c 0,48,49
 1745 119 1745 119 1731 103 c 2,50,-1
 1651 15 l 1,51,52
 1631 -5 1631 -5 1622 -5 c 0,53,54
 1606 -5 1606 -5 1593 9 c 2,55,-1
 1505 110 l 1,56,57
 1495 123 1495 123 1495 136 c 0,58,59
 1495 151 1495 151 1511 167 c 2,40,-1
EndSplineSet
EndChar

StartChar: afii57388
Encoding: 1548 1548 30
Width: 376
GlyphClass: 2
Flags: W
LayerCount: 2
Fore
SplineSet
201 2 m 1,1,2
 118 -14 118 -14 59 105.5 c 128,-1,3
 0 225 0 225 190 792 c 1,4,-1
 191 796 l 1,5,-1
 254 859 l 1,6,7
 249 827 249 827 197 631 c 128,-1,8
 145 435 145 435 178.5 309.5 c 128,-1,9
 212 184 212 184 345 307 c 1,10,11
 365 315 365 315 371 309 c 0,12,13
 376 304 376 304 375 293 c 0,14,0
 362 13 362 13 201 2 c 1,1,2
EndSplineSet
EndChar

StartChar: afii57403
Encoding: 1563 1563 31
Width: 404
GlyphClass: 2
Flags: W
LayerCount: 2
Fore
SplineSet
201 471 m 1,1,2
 118 455 118 455 59 574.5 c 128,-1,3
 0 694 0 694 190 1261 c 1,4,-1
 191 1265 l 1,5,-1
 254 1328 l 1,6,7
 249 1296 249 1296 197 1100 c 128,-1,8
 145 904 145 904 178.5 778.5 c 128,-1,9
 212 653 212 653 345 776 c 1,10,11
 365 784 365 784 371 778 c 0,12,13
 376 773 376 773 375 762 c 0,14,0
 362 482 362 482 201 471 c 1,1,2
41 174 m 2,15,-1
 222 362 l 2,16,17
 228 369 228 369 235 369 c 0,18,19
 241 369 241 369 248 363 c 2,20,-1
 397 219 l 2,21,22
 404 212 404 212 404 206 c 256,23,24
 404 200 404 200 398 194 c 2,25,-1
 216 6 l 2,26,27
 210 0 210 0 203 0 c 0,28,29
 197 0 197 0 190 5 c 1,30,-1
 42 149 l 2,31,32
 35 155 35 155 35 162 c 0,33,34
 35 168 35 168 41 174 c 2,15,-1
EndSplineSet
EndChar

StartChar: afii57407
Encoding: 1567 1567 32
Width: 707
GlyphClass: 2
Flags: W
LayerCount: 2
Fore
SplineSet
657 1548 m 1,0,1
 639 1482 639 1482 617.5 1417 c 128,-1,2
 596 1352 596 1352 569 1290 c 0,3,4
 563 1277 563 1277 543 1269 c 0,5,6
 537 1266 537 1266 533 1266 c 0,7,8
 523 1266 523 1266 522 1281 c 0,9,10
 510 1425 510 1425 354 1432 c 1,11,-1
 341 1432 l 2,12,13
 250 1432 250 1432 183 1381 c 1,14,15
 198 1304 198 1304 245 1253 c 128,-1,16
 292 1202 292 1202 339 1155 c 0,17,18
 410 1082 410 1082 469 995 c 128,-1,19
 528 908 528 908 541 779 c 1,20,21
 536 658 536 658 495.5 570.5 c 128,-1,22
 455 483 455 483 413 400 c 0,23,24
 409 394 409 394 399 393 c 0,25,26
 397 392 397 392 396 392 c 0,27,28
 391 392 391 392 391 397 c 0,29,30
 391 400 391 400 392 403 c 0,31,32
 414 475 414 475 414 541 c 0,33,34
 414 618 414 618 385 686 c 0,35,36
 330 812 330 812 249 887 c 0,37,38
 197 934 197 934 152.5 989.5 c 128,-1,39
 108 1045 108 1045 80 1115 c 1,40,41
 73 1152 73 1152 73 1191 c 0,42,43
 73 1327 73 1327 155 1491 c 1,44,45
 252 1689 252 1689 449 1689 c 0,46,47
 462 1689 462 1689 475 1688 c 0,48,49
 536 1684 536 1684 575.5 1650.5 c 128,-1,50
 615 1617 615 1617 641 1575 c 0,51,52
 644 1569 644 1569 645.5 1562 c 128,-1,53
 647 1555 647 1555 657 1548 c 1,0,1
218 174 m 2,54,-1
 399 362 l 2,55,56
 405 369 405 369 412 369 c 0,57,58
 418 369 418 369 425 363 c 2,59,-1
 574 219 l 2,60,61
 581 212 581 212 581 206 c 256,62,63
 581 200 581 200 575 194 c 2,64,-1
 393 6 l 2,65,66
 387 0 387 0 380 0 c 0,67,68
 374 0 374 0 367 5 c 1,69,-1
 219 149 l 2,70,71
 212 155 212 155 212 162 c 0,72,73
 212 168 212 168 218 174 c 2,54,-1
EndSplineSet
EndChar

StartChar: afii57409
Encoding: 1569 1569 33
AltUni2: 00fe80.ffffffff.0
Width: 720
GlyphClass: 2
Flags: W
LayerCount: 2
Fore
SplineSet
565 667 m 1,0,1
 513 653 513 653 470.5 637 c 128,-1,2
 428 621 428 621 383 582 c 1,3,4
 409 538 409 538 460 521 c 128,-1,5
 511 504 511 504 548.5 483.5 c 128,-1,6
 586 463 586 463 592 424 c 0,7,8
 593 420 593 420 593 416 c 0,9,10
 593 376 593 376 534 296 c 0,11,12
 481 224 481 224 428.5 152 c 128,-1,13
 376 80 376 80 297 37 c 0,14,15
 249 10 249 10 159 4 c 0,16,17
 110 1 110 1 72 1 c 0,18,19
 41 1 41 1 17 3 c 0,20,21
 -1 5 -1 5 -1 12 c 0,22,23
 -1 21 -1 21 26 38 c 0,24,25
 75 69 75 69 151.5 104.5 c 128,-1,26
 228 140 228 140 300 170 c 128,-1,27
 372 200 372 200 377 202 c 0,28,29
 402 213 402 213 405 223 c 1,30,-1
 405 227 l 2,31,32
 405 246 405 246 367 255 c 0,33,34
 298 271 298 271 259 307 c 1,35,36
 209 350 209 350 209 394 c 0,37,38
 209 404 209 404 212 415 c 0,39,40
 226 469 226 469 262 527 c 0,41,42
 329 635 329 635 441.5 737 c 128,-1,43
 554 839 554 839 647 871 c 0,44,45
 661 876 661 876 669 876 c 0,46,47
 682 876 682 876 682 865 c 0,48,49
 682 862 682 862 681 860 c 0,50,51
 676 834 676 834 653 795 c 128,-1,52
 630 756 630 756 601 717.5 c 128,-1,53
 572 679 572 679 565 667 c 1,0,1
EndSplineSet
MultipleSubs2: "'fina' Terminal Forms in Arabic lookup 2 subtable" _.notdef_1
MultipleSubs2: "'isol' Isolated Forms in Arabic lookup 0 subtable" _.notdef_1
EndChar

StartChar: afii57410
Encoding: 1570 1570 34
AltUni2: 00fe81.ffffffff.0
Width: 226
GlyphClass: 2
Flags: W
LayerCount: 2
Fore
SplineSet
7 870 m 1,0,-1
 158 1110 l 1,1,-1
 216 240 l 1,2,-1
 65 0 l 1,3,-1
 7 870 l 1,0,-1
497 1401 m 1,4,-1
 407 1286 l 1,5,6
 332 1237 332 1237 207 1212 c 0,7,8
 168 1204 168 1204 131 1204 c 0,9,10
 47 1204 47 1204 -29 1244 c 0,11,12
 -38 1249 -38 1249 -47 1249 c 256,13,14
 -56 1249 -56 1249 -64 1243 c 0,15,16
 -81 1232 -81 1232 -95 1224 c 0,17,18
 -125 1207 -125 1207 -175 1154 c 0,19,20
 -192 1136 -192 1136 -196 1136 c 0,21,22
 -198 1136 -198 1136 -198 1138 c 0,23,24
 -198 1148 -198 1148 -165 1206 c 0,25,26
 -112 1300 -112 1300 -4 1355 c 0,27,28
 -1 1357 -1 1357 4 1357 c 0,29,30
 15 1357 15 1357 33 1349 c 0,31,32
 114 1308 114 1308 202 1308 c 0,33,34
 242 1308 242 1308 284 1316 c 0,35,36
 418 1343 418 1343 489 1406 c 0,37,38
 492 1409 492 1409 494 1409 c 0,39,40
 497 1409 497 1409 497 1401 c 1,4,-1
EndSplineSet
MultipleSubs2: "'fina' Terminal Forms in Arabic lookup 2 subtable" _.notdef_3 uni0653
MultipleSubs2: "'isol' Isolated Forms in Arabic lookup 0 subtable" _.notdef_2 uni0653
EndChar

StartChar: afii57411
Encoding: 1571 1571 35
AltUni2: 00fe83.ffffffff.0
Width: 226
GlyphClass: 2
Flags: W
LayerCount: 2
Fore
SplineSet
7 870 m 1,0,-1
 158 1110 l 1,1,-1
 216 240 l 1,2,-1
 65 0 l 1,3,-1
 7 870 l 1,0,-1
195 1415 m 2,4,5
 184 1392 184 1392 158 1381 c 128,-1,6
 132 1370 132 1370 113 1345 c 1,7,8
 128 1327 128 1327 153.5 1320 c 128,-1,9
 179 1313 179 1313 199 1301 c 1,10,11
 221 1286 221 1286 221 1262 c 0,12,13
 221 1249 221 1249 214 1233 c 0,14,15
 195 1187 195 1187 149 1155 c 1,16,17
 110 1126 110 1126 66.5 1119 c 128,-1,18
 23 1112 23 1112 -22 1105 c 1,19,20
 17 1122 17 1122 57.5 1139.5 c 128,-1,21
 98 1157 98 1157 134 1177 c 1,22,23
 146 1185 146 1185 146 1191 c 0,24,25
 146 1194 146 1194 143 1196 c 0,26,27
 129 1204 129 1204 110.5 1211.5 c 128,-1,28
 92 1219 92 1219 78 1228 c 1,29,30
 47 1244 47 1244 47 1273 c 0,31,32
 47 1305 47 1305 84 1352 c 0,33,34
 153 1442 153 1442 186 1467 c 0,35,36
 200 1478 200 1478 230 1491 c 1,37,-1
 195 1415 l 2,4,5
EndSplineSet
MultipleSubs2: "'fina' Terminal Forms in Arabic lookup 2 subtable" _.notdef_3 uni0654
MultipleSubs2: "'isol' Isolated Forms in Arabic lookup 0 subtable" _.notdef_2 uni0654
EndChar

StartChar: afii57412
Encoding: 1572 1572 36
AltUni2: 00fe85.ffffffff.0
Width: 1001
GlyphClass: 2
Flags: W
LayerCount: 2
Fore
SplineSet
470 17 m 1,0,1
 377 0 377 0 281 0 c 0,2,3
 261 0 261 0 240 1 c 0,4,5
 123 5 123 5 11 17 c 1,6,7
 0 17 0 17 0 29 c 0,8,9
 0 40 0 40 9 46 c 0,10,11
 168 134 168 134 347 202.5 c 128,-1,12
 526 271 526 271 703 343 c 0,13,14
 794 379 794 379 859 452 c 0,15,16
 864 459 864 459 864 470 c 0,17,18
 864 478 864 478 862 488 c 0,19,20
 856 513 856 513 845 529 c 1,21,22
 809 520 809 520 769 520 c 0,23,24
 754 520 754 520 739 522 c 0,25,26
 682 526 682 526 656 556 c 1,27,28
 633 581 633 581 633 614 c 0,29,30
 633 644 633 644 652 681 c 0,31,32
 686 747 686 747 717 818 c 128,-1,33
 748 889 748 889 797 944 c 0,34,35
 813 962 813 962 834 962 c 0,36,37
 844 962 844 962 855 958 c 0,38,39
 890 945 890 945 908 927 c 0,40,41
 1003 830 1003 830 1003 694 c 2,42,-1
 1003 681 l 1,43,44
 998 536 998 536 925.5 397.5 c 128,-1,45
 853 259 853 259 730.5 151.5 c 128,-1,46
 608 44 608 44 470 17 c 1,0,1
936 1415 m 2,47,48
 925 1392 925 1392 899 1381 c 128,-1,49
 873 1370 873 1370 854 1345 c 1,50,51
 869 1327 869 1327 894.5 1320 c 128,-1,52
 920 1313 920 1313 940 1301 c 1,53,54
 962 1286 962 1286 962 1262 c 0,55,56
 962 1249 962 1249 955 1233 c 0,57,58
 936 1187 936 1187 890 1155 c 1,59,60
 851 1126 851 1126 807.5 1119 c 128,-1,61
 764 1112 764 1112 719 1105 c 1,62,63
 758 1122 758 1122 798.5 1139.5 c 128,-1,64
 839 1157 839 1157 875 1177 c 1,65,66
 887 1185 887 1185 887 1191 c 0,67,68
 887 1194 887 1194 884 1196 c 0,69,70
 870 1204 870 1204 851.5 1211.5 c 128,-1,71
 833 1219 833 1219 819 1228 c 1,72,73
 788 1244 788 1244 788 1273 c 0,74,75
 788 1305 788 1305 825 1352 c 0,76,77
 894 1442 894 1442 927 1467 c 0,78,79
 941 1478 941 1478 971 1491 c 1,80,-1
 936 1415 l 2,47,48
EndSplineSet
MultipleSubs2: "'fina' Terminal Forms in Arabic lookup 2 subtable" __.notdef_58 uni0654
MultipleSubs2: "'isol' Isolated Forms in Arabic lookup 0 subtable" __.notdef_57 uni0654
EndChar

StartChar: afii57413
Encoding: 1573 1573 37
AltUni2: 00fe87.ffffffff.0
Width: 226
GlyphClass: 2
Flags: W
LayerCount: 2
Fore
SplineSet
7 870 m 1,0,-1
 158 1110 l 1,1,-1
 216 240 l 1,2,-1
 65 0 l 1,3,-1
 7 870 l 1,0,-1
212 -8 m 2,4,5
 201 -31 201 -31 175 -42 c 128,-1,6
 149 -53 149 -53 130 -78 c 1,7,8
 145 -96 145 -96 170.5 -103 c 128,-1,9
 196 -110 196 -110 216 -122 c 1,10,11
 238 -137 238 -137 238 -161 c 0,12,13
 238 -174 238 -174 231 -190 c 0,14,15
 212 -236 212 -236 166 -268 c 1,16,17
 127 -297 127 -297 83.5 -304 c 128,-1,18
 40 -311 40 -311 -5 -318 c 1,19,20
 34 -301 34 -301 74.5 -283.5 c 128,-1,21
 115 -266 115 -266 151 -246 c 1,22,23
 163 -238 163 -238 163 -232 c 0,24,25
 163 -229 163 -229 160 -227 c 0,26,27
 146 -219 146 -219 127.5 -211.5 c 128,-1,28
 109 -204 109 -204 95 -195 c 1,29,30
 64 -179 64 -179 64 -150 c 0,31,32
 64 -118 64 -118 101 -71 c 0,33,34
 170 19 170 19 203 44 c 0,35,36
 217 55 217 55 247 68 c 1,37,-1
 212 -8 l 2,4,5
EndSplineSet
MultipleSubs2: "'fina' Terminal Forms in Arabic lookup 2 subtable" _.notdef_3 uni0655
MultipleSubs2: "'isol' Isolated Forms in Arabic lookup 0 subtable" _.notdef_2 uni0655
EndChar

StartChar: afii57414
Encoding: 1574 1574 38
AltUni2: 00fe89.ffffffff.0
Width: 1261
GlyphClass: 2
Flags: W
LayerCount: 2
Fore
SplineSet
160 48 m 0,0,1
 27 121 27 121 9 251 c 0,2,3
 3 291 3 291 3 333 c 0,4,5
 3 424 3 424 31 521 c 0,6,7
 71 662 71 662 144.5 791.5 c 128,-1,8
 218 921 218 921 270 993 c 0,9,10
 274 998 274 998 279 998 c 0,11,12
 281 998 281 998 284 997 c 0,13,14
 288 996 288 996 288 991 c 0,15,16
 288 988 288 988 286 983 c 0,17,18
 256 920 256 920 210 835.5 c 128,-1,19
 164 751 164 751 136 663 c 0,20,21
 115 595 115 595 115 529 c 0,22,23
 115 509 115 509 117 490 c 0,24,25
 125 405 125 405 204 344 c 0,26,27
 273 290 273 290 394 282 c 0,28,29
 427 280 427 280 460 280 c 0,30,31
 544 280 544 280 621 295 c 1,32,33
 860 338 860 338 1056 465 c 1,34,35
 952 475 952 475 866.5 511.5 c 128,-1,36
 781 548 781 548 757 631 c 0,37,38
 752 650 752 650 752 672 c 0,39,40
 752 752 752 752 823 879 c 0,41,42
 914 1041 914 1041 979 1103 c 0,43,44
 1007 1131 1007 1131 1050.5 1164.5 c 128,-1,45
 1094 1198 1094 1198 1148 1201 c 0,46,47
 1154 1201 1154 1201 1168 1198 c 0,48,49
 1178 1196 1178 1196 1178 1188 c 0,50,51
 1178 1184 1178 1184 1176 1180 c 0,52,53
 1150 1125 1150 1125 1129 1067.5 c 128,-1,54
 1108 1010 1108 1010 1078 961 c 1,55,56
 1063 965 1063 965 1047 965 c 0,57,58
 1019 965 1019 965 987 954 c 0,59,60
 934 935 934 935 911 901 c 0,61,62
 900 885 900 885 900 868 c 0,63,64
 900 848 900 848 915 826 c 0,65,66
 942 785 942 785 1065 751 c 0,67,68
 1107 739 1107 739 1153 732.5 c 128,-1,69
 1199 726 1199 726 1226 697 c 0,70,71
 1259 662 1259 662 1259 615 c 0,72,73
 1259 559 1259 559 1211 485 c 0,74,75
 1146 384 1146 384 1018.5 279 c 128,-1,76
 891 174 891 174 740 100.5 c 128,-1,77
 589 27 589 27 435 5 c 0,78,79
 395 -1 395 -1 359 -1 c 0,80,81
 250 -1 250 -1 160 48 c 0,0,1
473 1373 m 2,82,83
 462 1350 462 1350 436 1339 c 128,-1,84
 410 1328 410 1328 391 1303 c 1,85,86
 406 1285 406 1285 431.5 1278 c 128,-1,87
 457 1271 457 1271 477 1259 c 1,88,89
 499 1244 499 1244 499 1220 c 0,90,91
 499 1207 499 1207 492 1191 c 0,92,93
 473 1145 473 1145 427 1113 c 1,94,95
 388 1084 388 1084 344.5 1077 c 128,-1,96
 301 1070 301 1070 256 1063 c 1,97,98
 295 1080 295 1080 335.5 1097.5 c 128,-1,99
 376 1115 376 1115 412 1135 c 1,100,101
 424 1143 424 1143 424 1149 c 0,102,103
 424 1152 424 1152 421 1154 c 0,104,105
 407 1162 407 1162 388.5 1169.5 c 128,-1,106
 370 1177 370 1177 356 1186 c 1,107,108
 325 1202 325 1202 325 1231 c 0,109,110
 325 1263 325 1263 362 1310 c 0,111,112
 431 1400 431 1400 464 1425 c 0,113,114
 478 1436 478 1436 508 1449 c 1,115,-1
 473 1373 l 2,82,83
EndSplineSet
MultipleSubs2: "'medi' Medial Forms in Arabic lookup 3 subtable" _.notdef_7 uni0654
MultipleSubs2: "'fina' Terminal Forms in Arabic lookup 2 subtable" __.notdef_60 uni0654
MultipleSubs2: "'init' Initial Forms in Arabic lookup 1 subtable" _.notdef_6 uni0654
MultipleSubs2: "'isol' Isolated Forms in Arabic lookup 0 subtable" __.notdef_59 uni0654
EndChar

StartChar: afii57415
Encoding: 1575 1575 39
AltUni2: 00fe8d.ffffffff.0
Width: 226
GlyphClass: 2
Flags: W
LayerCount: 2
Fore
SplineSet
7 870 m 1,0,-1
 158 1110 l 1,1,-1
 216 240 l 1,2,-1
 65 0 l 1,3,-1
 7 870 l 1,0,-1
EndSplineSet
MultipleSubs2: "'fina' Terminal Forms in Arabic lookup 2 subtable" _.notdef_3
MultipleSubs2: "'isol' Isolated Forms in Arabic lookup 0 subtable" _.notdef_2
EndChar

StartChar: afii57416
Encoding: 1576 1576 40
AltUni2: 00fe8f.ffffffff.0
Width: 1439
GlyphClass: 2
Flags: W
LayerCount: 2
Fore
SplineSet
1279 440 m 0,0,1
 1214 304 1214 304 1031 191.5 c 128,-1,2
 848 79 848 79 643 31 c 0,3,4
 522 2 522 2 411 2 c 0,5,6
 332 2 332 2 257 17 c 0,7,8
 77 51 77 51 18 211 c 0,9,10
 -2 265 -2 265 -2 324 c 0,11,12
 -2 407 -2 407 39 500 c 0,13,14
 109 656 109 656 184 774 c 1,15,16
 197 792 197 792 211 792 c 0,17,18
 216 792 216 792 221 790 c 0,19,20
 232 785 232 785 232 772 c 0,21,22
 232 763 232 763 226 749 c 1,23,24
 142 592 142 592 142 491 c 0,25,26
 142 472 142 472 145 456 c 0,27,28
 163 348 163 348 255 300 c 1,29,30
 342 253 342 253 474 253 c 0,31,32
 481 253 481 253 488 254 c 0,33,34
 629 256 629 256 776 292 c 0,35,36
 922 327 922 327 1051 390 c 2,37,-1
 1179 453 l 1,38,-1
 1179 457 l 2,39,40
 1179 495 1179 495 1159 566 c 1,41,42
 1137 639 1137 639 1116 701 c 1,43,-1
 1273 933 l 1,44,-1
 1322 783 l 2,45,46
 1339 730 1339 730 1339 673 c 0,47,48
 1339 565 1339 565 1279 440 c 0,0,1
806 -204 m 1,49,50
 764 -258 764 -258 722 -310 c 128,-1,51
 680 -362 680 -362 638 -414 c 1,52,-1
 494 -279 l 1,53,54
 535 -226 535 -226 577.5 -174 c 128,-1,55
 620 -122 620 -122 662 -69 c 1,56,-1
 806 -204 l 1,49,50
EndSplineSet
MultipleSubs2: "'medi' Medial Forms in Arabic lookup 3 subtable" _.notdef_7 noqta_B
MultipleSubs2: "'fina' Terminal Forms in Arabic lookup 2 subtable" _.notdef_5 noqta_B
MultipleSubs2: "'init' Initial Forms in Arabic lookup 1 subtable" _.notdef_6 noqta_B
MultipleSubs2: "'isol' Isolated Forms in Arabic lookup 0 subtable" _.notdef_4 noqta_B
EndChar

StartChar: afii57417
Encoding: 1577 1577 41
AltUni2: 00fe93.ffffffff.0
Width: 506
GlyphClass: 2
Flags: W
LayerCount: 2
Fore
SplineSet
283 546 m 0,0,1
 261 561 261 561 240 561 c 0,2,3
 192 561 192 561 152 480 c 0,4,5
 94 362 94 362 89 339 c 0,6,7
 88 336 88 336 88 334 c 0,8,9
 88 322 88 322 116 309 c 0,10,11
 152 293 152 293 189 293 c 0,12,13
 215 293 215 293 241 301 c 1,14,15
 305 318 305 318 350 346 c 0,16,17
 361 353 361 353 361 371 c 0,18,19
 361 397 361 397 340 447 c 0,20,21
 303 532 303 532 283 546 c 0,0,1
444 345 m 0,22,23
 419 231 419 231 366 137 c 128,-1,24
 313 43 313 43 184 10 c 0,25,26
 141 -1 141 -1 108 -1 c 0,27,28
 2 -1 2 -1 2 116 c 0,29,30
 2 118 2 118 3 119 c 0,31,32
 4 276 4 276 64 454 c 0,33,34
 151 709 151 709 236 789 c 0,35,36
 291 842 291 842 336 842 c 0,37,38
 359 842 359 842 379 828 c 0,39,40
 438 787 438 787 460 653 c 0,41,42
 468 603 468 603 468 549 c 0,43,44
 468 455 468 455 444 345 c 0,22,23
450 973 m 1,45,46
 351 955 351 955 253 936.5 c 128,-1,47
 155 918 155 918 57 900 c 1,48,-1
 179 1144 l 1,49,50
 393 1182 393 1182 573 1217 c 1,51,-1
 450 973 l 1,45,46
EndSplineSet
MultipleSubs2: "'fina' Terminal Forms in Arabic lookup 2 subtable" __.notdef_53 noqtatan_A
MultipleSubs2: "'isol' Isolated Forms in Arabic lookup 0 subtable" __.notdef_52 noqtatan_A
EndChar

StartChar: afii57418
Encoding: 1578 1578 42
AltUni2: 00fe95.ffffffff.0
Width: 1439
GlyphClass: 2
Flags: W
LayerCount: 2
Fore
SplineSet
1279 440 m 0,0,1
 1214 304 1214 304 1031 191.5 c 128,-1,2
 848 79 848 79 643 31 c 0,3,4
 522 2 522 2 411 2 c 0,5,6
 332 2 332 2 257 17 c 0,7,8
 77 51 77 51 18 211 c 0,9,10
 -2 265 -2 265 -2 324 c 0,11,12
 -2 407 -2 407 39 500 c 0,13,14
 109 656 109 656 184 774 c 1,15,16
 197 792 197 792 211 792 c 0,17,18
 216 792 216 792 221 790 c 0,19,20
 232 785 232 785 232 772 c 0,21,22
 232 763 232 763 226 749 c 1,23,24
 142 592 142 592 142 491 c 0,25,26
 142 472 142 472 145 456 c 0,27,28
 163 348 163 348 255 300 c 1,29,30
 342 253 342 253 474 253 c 0,31,32
 481 253 481 253 488 254 c 0,33,34
 629 256 629 256 776 292 c 0,35,36
 922 327 922 327 1051 390 c 2,37,-1
 1179 453 l 1,38,-1
 1179 457 l 2,39,40
 1179 495 1179 495 1159 566 c 1,41,42
 1137 639 1137 639 1116 701 c 1,43,-1
 1273 933 l 1,44,-1
 1322 783 l 2,45,46
 1339 730 1339 730 1339 673 c 0,47,48
 1339 565 1339 565 1279 440 c 0,0,1
825 810 m 1,49,50
 726 792 726 792 628 773.5 c 128,-1,51
 530 755 530 755 432 737 c 1,52,-1
 554 981 l 1,53,54
 768 1019 768 1019 948 1054 c 1,55,-1
 825 810 l 1,49,50
EndSplineSet
MultipleSubs2: "'medi' Medial Forms in Arabic lookup 3 subtable" _.notdef_7 noqtatan_A
MultipleSubs2: "'fina' Terminal Forms in Arabic lookup 2 subtable" _.notdef_5 noqtatan_A
MultipleSubs2: "'init' Initial Forms in Arabic lookup 1 subtable" _.notdef_6 noqtatan_A
MultipleSubs2: "'isol' Isolated Forms in Arabic lookup 0 subtable" _.notdef_4 noqtatan_A
EndChar

StartChar: afii57419
Encoding: 1579 1579 43
AltUni2: 00fe99.ffffffff.0
Width: 1439
GlyphClass: 2
Flags: W
LayerCount: 2
Fore
SplineSet
1279 440 m 0,0,1
 1214 304 1214 304 1031 191.5 c 128,-1,2
 848 79 848 79 643 31 c 0,3,4
 522 2 522 2 411 2 c 0,5,6
 332 2 332 2 257 17 c 0,7,8
 77 51 77 51 18 211 c 0,9,10
 -2 265 -2 265 -2 324 c 0,11,12
 -2 407 -2 407 39 500 c 0,13,14
 109 656 109 656 184 774 c 1,15,16
 197 792 197 792 211 792 c 0,17,18
 216 792 216 792 221 790 c 0,19,20
 232 785 232 785 232 772 c 0,21,22
 232 763 232 763 226 749 c 1,23,24
 142 592 142 592 142 491 c 0,25,26
 142 472 142 472 145 456 c 0,27,28
 163 348 163 348 255 300 c 1,29,30
 342 253 342 253 474 253 c 0,31,32
 481 253 481 253 488 254 c 0,33,34
 629 256 629 256 776 292 c 0,35,36
 922 327 922 327 1051 390 c 2,37,-1
 1179 453 l 1,38,-1
 1179 457 l 2,39,40
 1179 495 1179 495 1159 566 c 1,41,42
 1137 639 1137 639 1116 701 c 1,43,-1
 1273 933 l 1,44,-1
 1322 783 l 2,45,46
 1339 730 1339 730 1339 673 c 0,47,48
 1339 565 1339 565 1279 440 c 0,0,1
989 1141 m 1,49,50
 959 1078 959 1078 919.5 1019.5 c 128,-1,51
 880 961 880 961 839 908 c 0,52,53
 832 899 832 899 825 899 c 0,54,55
 816 899 816 899 808 919 c 0,56,57
 765 1025 765 1025 713 1025 c 2,58,-1
 707 1025 l 1,59,60
 651 1018 651 1018 598.5 958.5 c 128,-1,61
 546 899 546 899 503.5 822 c 128,-1,62
 461 745 461 745 442 719 c 1,63,-1
 441 808 l 1,64,-1
 443 811 l 1,65,66
 469 862 469 862 521.5 952 c 128,-1,67
 574 1042 574 1042 638 1127 c 0,68,69
 701 1211 701 1211 771 1260 c 1,70,71
 800 1279 800 1279 829 1279 c 0,72,73
 872 1279 872 1279 917 1238 c 1,74,75
 957 1199 957 1199 989 1141 c 1,49,50
EndSplineSet
MultipleSubs2: "'medi' Medial Forms in Arabic lookup 3 subtable" _.notdef_7 salasneqat_A
MultipleSubs2: "'fina' Terminal Forms in Arabic lookup 2 subtable" _.notdef_5 salasneqat_A
MultipleSubs2: "'init' Initial Forms in Arabic lookup 1 subtable" _.notdef_6 salasneqat_A
MultipleSubs2: "'isol' Isolated Forms in Arabic lookup 0 subtable" _.notdef_4 salasneqat_A
EndChar

StartChar: afii57420
Encoding: 1580 1580 44
AltUni2: 00fe9d.ffffffff.0
Width: 940
GlyphClass: 2
Flags: W
LayerCount: 2
Fore
SplineSet
792 815 m 1,0,1
 766 892 766 892 654 892 c 0,2,3
 634 892 634 892 611 890 c 0,4,5
 460 873 460 873 415 836 c 1,6,7
 437 778 437 778 473 727.5 c 128,-1,8
 509 677 509 677 533 623 c 1,9,10
 595 668 595 668 667 717 c 128,-1,11
 739 766 739 766 792 815 c 1,0,1
1327 -379 m 0,12,13
 1202 -530 1202 -530 996.5 -625.5 c 128,-1,14
 791 -721 791 -721 586 -735 c 0,15,16
 555 -737 555 -737 526 -737 c 0,17,18
 356 -737 356 -737 216 -668 c 0,19,20
 52 -588 52 -588 10 -388 c 0,21,22
 -1 -333 -1 -333 -1 -276 c 0,23,24
 -1 -102 -1 -102 100 100 c 0,25,26
 234 370 234 370 372 497 c 1,27,28
 286 593 286 593 286 723 c 0,29,30
 286 766 286 766 296 813 c 0,31,32
 333 1002 333 1002 435 1075 c 0,33,34
 502 1122 502 1122 640 1144 c 0,35,36
 687 1151 687 1151 730 1151 c 0,37,38
 812 1151 812 1151 877 1124 c 256,39,40
 942 1097 942 1097 942 1022 c 0,41,42
 942 981 942 981 922 925 c 0,43,44
 866 767 866 767 826 709 c 1,45,46
 775 639 775 639 713 581 c 128,-1,47
 651 523 651 523 591 470 c 0,48,49
 548 432 548 432 448.5 342 c 128,-1,50
 349 252 349 252 259 145.5 c 128,-1,51
 169 39 169 39 121 -66 c 0,52,53
 99 -113 99 -113 99 -153 c 0,54,55
 99 -201 99 -201 132 -239 c 0,56,57
 236 -356 236 -356 381.5 -406 c 128,-1,58
 527 -456 527 -456 686 -461 c 0,59,60
 713 -462 713 -462 740 -462 c 0,61,62
 872 -462 872 -462 1005 -440 c 0,63,64
 1165 -413 1165 -413 1299 -379 c 0,65,66
 1317 -374 1317 -374 1324 -374 c 0,67,68
 1328 -374 1328 -374 1328 -376 c 0,69,70
 1328 -377 1328 -377 1327 -379 c 0,12,13
898 113 m 1,71,72
 856 59 856 59 814 7 c 128,-1,73
 772 -45 772 -45 730 -97 c 1,74,-1
 586 38 l 1,75,76
 627 91 627 91 669.5 143 c 128,-1,77
 712 195 712 195 754 248 c 1,78,-1
 898 113 l 1,71,72
EndSplineSet
MultipleSubs2: "'medi' Medial Forms in Arabic lookup 3 subtable" _.notdef_11 noqta_B
MultipleSubs2: "'fina' Terminal Forms in Arabic lookup 2 subtable" _.notdef_9 noqta_B
MultipleSubs2: "'init' Initial Forms in Arabic lookup 1 subtable" _.notdef_10 noqta_B
MultipleSubs2: "'isol' Isolated Forms in Arabic lookup 0 subtable" _.notdef_8 noqta_B
EndChar

StartChar: afii57421
Encoding: 1581 1581 45
AltUni2: 00fea1.ffffffff.0
Width: 940
GlyphClass: 2
Flags: W
LayerCount: 2
Fore
SplineSet
792 815 m 1,0,1
 766 892 766 892 654 892 c 0,2,3
 634 892 634 892 611 890 c 0,4,5
 460 873 460 873 415 836 c 1,6,7
 437 778 437 778 473 727.5 c 128,-1,8
 509 677 509 677 533 623 c 1,9,10
 595 668 595 668 667 717 c 128,-1,11
 739 766 739 766 792 815 c 1,0,1
1327 -379 m 0,12,13
 1202 -530 1202 -530 996.5 -625.5 c 128,-1,14
 791 -721 791 -721 586 -735 c 0,15,16
 555 -737 555 -737 526 -737 c 0,17,18
 356 -737 356 -737 216 -668 c 0,19,20
 52 -588 52 -588 10 -388 c 0,21,22
 -1 -333 -1 -333 -1 -276 c 0,23,24
 -1 -102 -1 -102 100 100 c 0,25,26
 234 370 234 370 372 497 c 1,27,28
 286 593 286 593 286 723 c 0,29,30
 286 766 286 766 296 813 c 0,31,32
 333 1002 333 1002 435 1075 c 0,33,34
 502 1122 502 1122 640 1144 c 0,35,36
 687 1151 687 1151 730 1151 c 0,37,38
 812 1151 812 1151 877 1124 c 256,39,40
 942 1097 942 1097 942 1022 c 0,41,42
 942 981 942 981 922 925 c 0,43,44
 866 767 866 767 826 709 c 1,45,46
 775 639 775 639 713 581 c 128,-1,47
 651 523 651 523 591 470 c 0,48,49
 548 432 548 432 448.5 342 c 128,-1,50
 349 252 349 252 259 145.5 c 128,-1,51
 169 39 169 39 121 -66 c 0,52,53
 99 -113 99 -113 99 -153 c 0,54,55
 99 -201 99 -201 132 -239 c 0,56,57
 236 -356 236 -356 381.5 -406 c 128,-1,58
 527 -456 527 -456 686 -461 c 0,59,60
 713 -462 713 -462 740 -462 c 0,61,62
 872 -462 872 -462 1005 -440 c 0,63,64
 1165 -413 1165 -413 1299 -379 c 0,65,66
 1317 -374 1317 -374 1324 -374 c 0,67,68
 1328 -374 1328 -374 1328 -376 c 0,69,70
 1328 -377 1328 -377 1327 -379 c 0,12,13
EndSplineSet
MultipleSubs2: "'medi' Medial Forms in Arabic lookup 3 subtable" _.notdef_11
MultipleSubs2: "'fina' Terminal Forms in Arabic lookup 2 subtable" _.notdef_9
MultipleSubs2: "'init' Initial Forms in Arabic lookup 1 subtable" _.notdef_10
MultipleSubs2: "'isol' Isolated Forms in Arabic lookup 0 subtable" _.notdef_8
EndChar

StartChar: afii57422
Encoding: 1582 1582 46
AltUni2: 00fea5.ffffffff.0
Width: 940
GlyphClass: 2
Flags: W
LayerCount: 2
Fore
SplineSet
792 815 m 1,0,1
 766 892 766 892 654 892 c 0,2,3
 634 892 634 892 611 890 c 0,4,5
 460 873 460 873 415 836 c 1,6,7
 437 778 437 778 473 727.5 c 128,-1,8
 509 677 509 677 533 623 c 1,9,10
 595 668 595 668 667 717 c 128,-1,11
 739 766 739 766 792 815 c 1,0,1
1327 -379 m 0,12,13
 1202 -530 1202 -530 996.5 -625.5 c 128,-1,14
 791 -721 791 -721 586 -735 c 0,15,16
 555 -737 555 -737 526 -737 c 0,17,18
 356 -737 356 -737 216 -668 c 0,19,20
 52 -588 52 -588 10 -388 c 0,21,22
 -1 -333 -1 -333 -1 -276 c 0,23,24
 -1 -102 -1 -102 100 100 c 0,25,26
 234 370 234 370 372 497 c 1,27,28
 286 593 286 593 286 723 c 0,29,30
 286 766 286 766 296 813 c 0,31,32
 333 1002 333 1002 435 1075 c 0,33,34
 502 1122 502 1122 640 1144 c 0,35,36
 687 1151 687 1151 730 1151 c 0,37,38
 812 1151 812 1151 877 1124 c 256,39,40
 942 1097 942 1097 942 1022 c 0,41,42
 942 981 942 981 922 925 c 0,43,44
 866 767 866 767 826 709 c 1,45,46
 775 639 775 639 713 581 c 128,-1,47
 651 523 651 523 591 470 c 0,48,49
 548 432 548 432 448.5 342 c 128,-1,50
 349 252 349 252 259 145.5 c 128,-1,51
 169 39 169 39 121 -66 c 0,52,53
 99 -113 99 -113 99 -153 c 0,54,55
 99 -201 99 -201 132 -239 c 0,56,57
 236 -356 236 -356 381.5 -406 c 128,-1,58
 527 -456 527 -456 686 -461 c 0,59,60
 713 -462 713 -462 740 -462 c 0,61,62
 872 -462 872 -462 1005 -440 c 0,63,64
 1165 -413 1165 -413 1299 -379 c 0,65,66
 1317 -374 1317 -374 1324 -374 c 0,67,68
 1328 -374 1328 -374 1328 -376 c 0,69,70
 1328 -377 1328 -377 1327 -379 c 0,12,13
826 1494 m 1,71,72
 784 1440 784 1440 742 1388 c 128,-1,73
 700 1336 700 1336 658 1284 c 1,74,-1
 514 1419 l 1,75,76
 555 1472 555 1472 597.5 1524 c 128,-1,77
 640 1576 640 1576 682 1629 c 1,78,-1
 826 1494 l 1,71,72
EndSplineSet
MultipleSubs2: "'medi' Medial Forms in Arabic lookup 3 subtable" _.notdef_11 noqta_A
MultipleSubs2: "'fina' Terminal Forms in Arabic lookup 2 subtable" _.notdef_9 noqta_A
MultipleSubs2: "'init' Initial Forms in Arabic lookup 1 subtable" _.notdef_10 noqta_A
MultipleSubs2: "'isol' Isolated Forms in Arabic lookup 0 subtable" _.notdef_8 noqta_A
EndChar

StartChar: afii57423
Encoding: 1583 1583 47
AltUni2: 00fea9.ffffffff.0
Width: 752
GlyphClass: 2
Flags: W
LayerCount: 2
Fore
SplineSet
495 637 m 1,0,-1
 652 869 l 1,1,-1
 676 814 l 2,2,3
 699 759 699 759 708 671 c 0,4,5
 710 646 710 646 710 620 c 0,6,7
 710 551 710 551 694 472 c 1,8,9
 670 361 670 361 577 250 c 1,10,11
 508 170 508 170 424 126 c 0,12,13
 353 88 353 88 219 55 c 128,-1,14
 85 22 85 22 0 0 c 1,15,-1
 152 273 l 1,16,17
 243 289 243 289 362.5 322 c 128,-1,18
 482 355 482 355 559 389 c 1,19,-1
 558 388 l 1,20,-1
 558 395 l 2,21,22
 558 434 558 434 538 502 c 0,23,24
 516 575 516 575 495 637 c 1,0,-1
EndSplineSet
MultipleSubs2: "'fina' Terminal Forms in Arabic lookup 2 subtable" _.notdef_13
MultipleSubs2: "'isol' Isolated Forms in Arabic lookup 0 subtable" _.notdef_12
EndChar

StartChar: afii57424
Encoding: 1584 1584 48
AltUni2: 00feab.ffffffff.0
Width: 752
GlyphClass: 2
Flags: W
LayerCount: 2
Fore
SplineSet
495 637 m 1,0,-1
 652 869 l 1,1,-1
 676 814 l 2,2,3
 699 759 699 759 708 671 c 0,4,5
 710 646 710 646 710 620 c 0,6,7
 710 551 710 551 694 472 c 1,8,9
 670 361 670 361 577 250 c 1,10,11
 508 170 508 170 424 126 c 0,12,13
 353 88 353 88 219 55 c 128,-1,14
 85 22 85 22 0 0 c 1,15,-1
 152 273 l 1,16,17
 243 289 243 289 362.5 322 c 128,-1,18
 482 355 482 355 559 389 c 1,19,-1
 558 388 l 1,20,-1
 558 395 l 2,21,22
 558 434 558 434 538 502 c 0,23,24
 516 575 516 575 495 637 c 1,0,-1
687 1136 m 1,25,26
 645 1082 645 1082 603 1030 c 128,-1,27
 561 978 561 978 519 926 c 1,28,-1
 375 1061 l 1,29,30
 416 1114 416 1114 458.5 1166 c 128,-1,31
 501 1218 501 1218 543 1271 c 1,32,-1
 687 1136 l 1,25,26
EndSplineSet
MultipleSubs2: "'fina' Terminal Forms in Arabic lookup 2 subtable" _.notdef_13 noqta_A
MultipleSubs2: "'isol' Isolated Forms in Arabic lookup 0 subtable" _.notdef_12 noqta_A
EndChar

StartChar: afii57425
Encoding: 1585 1585 49
AltUni2: 00fead.ffffffff.0
Width: 961
GlyphClass: 2
Flags: W
LayerCount: 2
Fore
SplineSet
916 557 m 1,0,1
 895 453 895 453 851 341 c 128,-1,2
 807 229 807 229 759 172 c 0,3,4
 690 88 690 88 584 43 c 0,5,6
 485 0 485 0 342 0 c 2,7,-1
 323 0 l 1,8,9
 203 3 203 3 115 12.5 c 128,-1,10
 27 22 27 22 6 43 c 0,11,12
 1 48 1 48 1 55 c 0,13,14
 1 73 1 73 47 100 c 0,15,16
 109 135 109 135 291 192 c 0,17,18
 415 231 415 231 533 275.5 c 128,-1,19
 651 320 651 320 749 386 c 0,20,21
 843 450 843 450 891 557 c 0,22,23
 896 569 896 569 905 569 c 2,24,-1
 906 569 l 1,25,26
 915 568 915 568 916 557 c 1,0,1
EndSplineSet
MultipleSubs2: "'fina' Terminal Forms in Arabic lookup 2 subtable" _.notdef_15
MultipleSubs2: "'isol' Isolated Forms in Arabic lookup 0 subtable" _.notdef_14
EndChar

StartChar: afii57426
Encoding: 1586 1586 50
AltUni2: 00feaf.ffffffff.0
Width: 961
GlyphClass: 2
Flags: W
LayerCount: 2
Fore
SplineSet
916 557 m 1,0,1
 895 453 895 453 851 341 c 128,-1,2
 807 229 807 229 759 172 c 0,3,4
 690 88 690 88 584 43 c 0,5,6
 485 0 485 0 342 0 c 2,7,-1
 323 0 l 1,8,9
 203 3 203 3 115 12.5 c 128,-1,10
 27 22 27 22 6 43 c 0,11,12
 1 48 1 48 1 55 c 0,13,14
 1 73 1 73 47 100 c 0,15,16
 109 135 109 135 291 192 c 0,17,18
 415 231 415 231 533 275.5 c 128,-1,19
 651 320 651 320 749 386 c 0,20,21
 843 450 843 450 891 557 c 0,22,23
 896 569 896 569 905 569 c 2,24,-1
 906 569 l 1,25,26
 915 568 915 568 916 557 c 1,0,1
1000 942 m 1,27,28
 958 888 958 888 916 836 c 128,-1,29
 874 784 874 784 832 732 c 1,30,-1
 688 867 l 1,31,32
 729 920 729 920 771.5 972 c 128,-1,33
 814 1024 814 1024 856 1077 c 1,34,-1
 1000 942 l 1,27,28
EndSplineSet
MultipleSubs2: "'fina' Terminal Forms in Arabic lookup 2 subtable" _.notdef_15 noqta_A
MultipleSubs2: "'isol' Isolated Forms in Arabic lookup 0 subtable" _.notdef_14 noqta_A
EndChar

StartChar: afii57427
Encoding: 1587 1587 51
AltUni2: 00feb1.ffffffff.0
Width: 1912
GlyphClass: 2
Flags: W
LayerCount: 2
Fore
SplineSet
873 593 m 1,0,1
 834 490 834 490 807 420.5 c 128,-1,2
 780 351 780 351 716 258 c 0,3,4
 603 96 603 96 432 33 c 0,5,6
 343 1 343 1 268 1 c 0,7,8
 198 1 198 1 139 30 c 0,9,10
 17 89 17 89 0 285 c 0,11,12
 -1 301 -1 301 -1 317 c 0,13,14
 -1 509 -1 509 179 838 c 0,15,16
 189 857 189 857 198 857 c 0,17,18
 201 857 201 857 204 856 c 0,19,20
 210 853 210 853 210 843 c 0,21,22
 210 832 210 832 203 814 c 1,23,24
 179 761 179 761 141.5 688 c 128,-1,25
 104 615 104 615 85 542 c 0,26,27
 75 501 75 501 75 463 c 0,28,29
 75 433 75 433 82 404 c 0,30,31
 97 340 97 340 179 305 c 1,32,33
 245 293 245 293 306 293 c 0,34,35
 413 293 413 293 508 330 c 0,36,37
 656 387 656 387 754 477 c 1,38,-1
 754 495 l 2,39,40
 754 562 754 562 742 621 c 1,41,42
 727 687 727 687 706 760 c 1,43,-1
 814 1031 l 1,44,45
 847 961 847 961 864 910 c 0,46,47
 878 865 878 865 925 865 c 0,48,49
 932 865 932 865 940 866 c 0,50,51
 1132 906 1132 906 1321 948 c 128,-1,52
 1510 990 1510 990 1675 1056 c 1,53,54
 1773 1094 1773 1094 1807 1148 c 0,55,56
 1808 1150 1808 1150 1810 1150 c 256,57,58
 1812 1150 1812 1150 1815 1148 c 0,59,60
 1821 1144 1821 1144 1821 1141 c 0,61,62
 1779 1015 1779 1015 1730.5 894.5 c 128,-1,63
 1682 774 1682 774 1628 659 c 0,64,65
 1617 636 1617 636 1601 636 c 0,66,67
 1592 636 1592 636 1582 644 c 0,68,69
 1574 650 1574 650 1574 665 c 0,70,71
 1574 679 1574 679 1581 701 c 0,72,73
 1590 731 1590 731 1605.5 760 c 128,-1,74
 1621 789 1621 789 1633 819 c 1,75,76
 1466 744 1466 744 1260 696.5 c 128,-1,77
 1054 649 1054 649 873 593 c 1,0,1
EndSplineSet
MultipleSubs2: "'medi' Medial Forms in Arabic lookup 3 subtable" _.notdef_19
MultipleSubs2: "'fina' Terminal Forms in Arabic lookup 2 subtable" _.notdef_17
MultipleSubs2: "'init' Initial Forms in Arabic lookup 1 subtable" _.notdef_18
MultipleSubs2: "'isol' Isolated Forms in Arabic lookup 0 subtable" _.notdef_16
EndChar

StartChar: afii57428
Encoding: 1588 1588 52
AltUni2: 00feb5.ffffffff.0
Width: 1912
GlyphClass: 2
Flags: W
LayerCount: 2
Fore
SplineSet
873 593 m 1,0,1
 834 490 834 490 807 420.5 c 128,-1,2
 780 351 780 351 716 258 c 0,3,4
 603 96 603 96 432 33 c 0,5,6
 343 1 343 1 268 1 c 0,7,8
 198 1 198 1 139 30 c 0,9,10
 17 89 17 89 0 285 c 0,11,12
 -1 301 -1 301 -1 317 c 0,13,14
 -1 509 -1 509 179 838 c 0,15,16
 189 857 189 857 198 857 c 0,17,18
 201 857 201 857 204 856 c 0,19,20
 210 853 210 853 210 843 c 0,21,22
 210 832 210 832 203 814 c 1,23,24
 179 761 179 761 141.5 688 c 128,-1,25
 104 615 104 615 85 542 c 0,26,27
 75 501 75 501 75 463 c 0,28,29
 75 433 75 433 82 404 c 0,30,31
 97 340 97 340 179 305 c 1,32,33
 245 293 245 293 306 293 c 0,34,35
 413 293 413 293 508 330 c 0,36,37
 656 387 656 387 754 477 c 1,38,-1
 754 495 l 2,39,40
 754 562 754 562 742 621 c 1,41,42
 727 687 727 687 706 760 c 1,43,-1
 814 1031 l 1,44,45
 847 961 847 961 864 910 c 0,46,47
 878 865 878 865 925 865 c 0,48,49
 932 865 932 865 940 866 c 0,50,51
 1132 906 1132 906 1321 948 c 128,-1,52
 1510 990 1510 990 1675 1056 c 1,53,54
 1773 1094 1773 1094 1807 1148 c 0,55,56
 1808 1150 1808 1150 1810 1150 c 256,57,58
 1812 1150 1812 1150 1815 1148 c 0,59,60
 1821 1144 1821 1144 1821 1141 c 0,61,62
 1779 1015 1779 1015 1730.5 894.5 c 128,-1,63
 1682 774 1682 774 1628 659 c 0,64,65
 1617 636 1617 636 1601 636 c 0,66,67
 1592 636 1592 636 1582 644 c 0,68,69
 1574 650 1574 650 1574 665 c 0,70,71
 1574 679 1574 679 1581 701 c 0,72,73
 1590 731 1590 731 1605.5 760 c 128,-1,74
 1621 789 1621 789 1633 819 c 1,75,76
 1466 744 1466 744 1260 696.5 c 128,-1,77
 1054 649 1054 649 873 593 c 1,0,1
1650 1542 m 1,78,79
 1620 1479 1620 1479 1580.5 1420.5 c 128,-1,80
 1541 1362 1541 1362 1500 1309 c 0,81,82
 1493 1300 1493 1300 1486 1300 c 0,83,84
 1477 1300 1477 1300 1469 1320 c 0,85,86
 1426 1426 1426 1426 1374 1426 c 2,87,-1
 1368 1426 l 1,88,89
 1312 1419 1312 1419 1259.5 1359.5 c 128,-1,90
 1207 1300 1207 1300 1164.5 1223 c 128,-1,91
 1122 1146 1122 1146 1103 1120 c 1,92,-1
 1102 1209 l 1,93,-1
 1104 1212 l 1,94,95
 1130 1263 1130 1263 1182.5 1353 c 128,-1,96
 1235 1443 1235 1443 1299 1528 c 0,97,98
 1362 1612 1362 1612 1432 1661 c 1,99,100
 1461 1680 1461 1680 1490 1680 c 0,101,102
 1533 1680 1533 1680 1578 1639 c 1,103,104
 1618 1600 1618 1600 1650 1542 c 1,78,79
EndSplineSet
MultipleSubs2: "'medi' Medial Forms in Arabic lookup 3 subtable" _.notdef_19 salasneqat_A
MultipleSubs2: "'fina' Terminal Forms in Arabic lookup 2 subtable" _.notdef_17 salasneqat_A
MultipleSubs2: "'init' Initial Forms in Arabic lookup 1 subtable" _.notdef_18 salasneqat_A
MultipleSubs2: "'isol' Isolated Forms in Arabic lookup 0 subtable" _.notdef_16 salasneqat_A
EndChar

StartChar: afii57429
Encoding: 1589 1589 53
AltUni2: 00feb9.ffffffff.0
Width: 1806
GlyphClass: 2
Flags: W
LayerCount: 2
Fore
SplineSet
716 258 m 1,0,1
 603 96 603 96 432 33 c 0,2,3
 343 1 343 1 268 1 c 0,4,5
 198 1 198 1 139 30 c 0,6,7
 17 89 17 89 0 285 c 0,8,9
 -1 301 -1 301 -1 317 c 0,10,11
 -1 509 -1 509 179 838 c 0,12,13
 189 857 189 857 198 857 c 0,14,15
 201 857 201 857 204 856 c 0,16,17
 210 853 210 853 210 843 c 0,18,19
 210 832 210 832 203 814 c 1,20,21
 179 761 179 761 141.5 688 c 128,-1,22
 104 615 104 615 85 542 c 0,23,24
 75 501 75 501 75 463 c 0,25,26
 75 433 75 433 82 404 c 0,27,28
 97 340 97 340 179 305 c 1,29,30
 245 293 245 293 306 293 c 0,31,32
 413 293 413 293 508 330 c 0,33,34
 656 387 656 387 754 477 c 1,35,-1
 754 495 l 2,36,37
 754 570 754 570 740 634 c 1,38,39
 723 706 723 706 702 775 c 1,40,-1
 814 1031 l 1,41,42
 865 918 865 918 886 870 c 0,43,44
 900 836 900 836 948 836 c 0,45,46
 969 836 969 836 996 842 c 1,47,-1
 996 843 l 1,48,-1
 998 845 l 1,49,50
 1085 946 1085 946 1176 1043.5 c 128,-1,51
 1267 1141 1267 1141 1365 1232 c 0,52,53
 1413 1277 1413 1277 1509 1295 c 0,54,55
 1531 1299 1531 1299 1550 1299 c 0,56,57
 1617 1299 1617 1299 1657 1252 c 1,58,59
 1694 1206 1694 1206 1694 1158 c 0,60,61
 1694 1124 1694 1124 1676 1090 c 0,62,63
 1632 1005 1632 1005 1581 936 c 0,64,65
 1500 826 1500 826 1371.5 750.5 c 128,-1,66
 1243 675 1243 675 1110 642 c 1,67,68
 980 608 980 608 861 591 c 1,69,70
 823 414 823 414 716 258 c 1,0,1
1478 1021 m 0,71,72
 1459 1055 1459 1055 1409 1070 c 0,73,74
 1389 1076 1389 1076 1371 1076 c 0,75,76
 1341 1076 1341 1076 1315 1061 c 0,77,78
 1243 1022 1243 1022 1187 966 c 128,-1,79
 1131 910 1131 910 1075 854 c 1,80,81
 1183 875 1183 875 1285 900 c 128,-1,82
 1387 925 1387 925 1475 967 c 0,83,84
 1489 974 1489 974 1489 989 c 0,85,86
 1489 1002 1489 1002 1478 1021 c 0,71,72
EndSplineSet
MultipleSubs2: "'medi' Medial Forms in Arabic lookup 3 subtable" _.notdef_23
MultipleSubs2: "'fina' Terminal Forms in Arabic lookup 2 subtable" _.notdef_21
MultipleSubs2: "'init' Initial Forms in Arabic lookup 1 subtable" _.notdef_22
MultipleSubs2: "'isol' Isolated Forms in Arabic lookup 0 subtable" _.notdef_20
EndChar

StartChar: afii57430
Encoding: 1590 1590 54
AltUni2: 00febd.ffffffff.0
Width: 1806
GlyphClass: 2
Flags: W
LayerCount: 2
Fore
SplineSet
716 258 m 1,0,1
 603 96 603 96 432 33 c 0,2,3
 343 1 343 1 268 1 c 0,4,5
 198 1 198 1 139 30 c 0,6,7
 17 89 17 89 0 285 c 0,8,9
 -1 301 -1 301 -1 317 c 0,10,11
 -1 509 -1 509 179 838 c 0,12,13
 189 857 189 857 198 857 c 0,14,15
 201 857 201 857 204 856 c 0,16,17
 210 853 210 853 210 843 c 0,18,19
 210 832 210 832 203 814 c 1,20,21
 179 761 179 761 141.5 688 c 128,-1,22
 104 615 104 615 85 542 c 0,23,24
 75 501 75 501 75 463 c 0,25,26
 75 433 75 433 82 404 c 0,27,28
 97 340 97 340 179 305 c 1,29,30
 245 293 245 293 306 293 c 0,31,32
 413 293 413 293 508 330 c 0,33,34
 656 387 656 387 754 477 c 1,35,-1
 754 495 l 2,36,37
 754 570 754 570 740 634 c 1,38,39
 723 706 723 706 702 775 c 1,40,-1
 814 1031 l 1,41,42
 865 918 865 918 886 870 c 0,43,44
 900 836 900 836 948 836 c 0,45,46
 969 836 969 836 996 842 c 1,47,-1
 996 843 l 1,48,-1
 998 845 l 1,49,50
 1085 946 1085 946 1176 1043.5 c 128,-1,51
 1267 1141 1267 1141 1365 1232 c 0,52,53
 1413 1277 1413 1277 1509 1295 c 0,54,55
 1531 1299 1531 1299 1550 1299 c 0,56,57
 1617 1299 1617 1299 1657 1252 c 1,58,59
 1694 1206 1694 1206 1694 1158 c 0,60,61
 1694 1124 1694 1124 1676 1090 c 0,62,63
 1632 1005 1632 1005 1581 936 c 0,64,65
 1500 826 1500 826 1371.5 750.5 c 128,-1,66
 1243 675 1243 675 1110 642 c 1,67,68
 980 608 980 608 861 591 c 1,69,70
 823 414 823 414 716 258 c 1,0,1
1478 1021 m 0,71,72
 1459 1055 1459 1055 1409 1070 c 0,73,74
 1389 1076 1389 1076 1371 1076 c 0,75,76
 1341 1076 1341 1076 1315 1061 c 0,77,78
 1243 1022 1243 1022 1187 966 c 128,-1,79
 1131 910 1131 910 1075 854 c 1,80,81
 1183 875 1183 875 1285 900 c 128,-1,82
 1387 925 1387 925 1475 967 c 0,83,84
 1489 974 1489 974 1489 989 c 0,85,86
 1489 1002 1489 1002 1478 1021 c 0,71,72
1528 1635 m 1,87,88
 1486 1581 1486 1581 1444 1529 c 128,-1,89
 1402 1477 1402 1477 1360 1425 c 1,90,-1
 1216 1560 l 1,91,92
 1257 1613 1257 1613 1299.5 1665 c 128,-1,93
 1342 1717 1342 1717 1384 1770 c 1,94,-1
 1528 1635 l 1,87,88
EndSplineSet
MultipleSubs2: "'medi' Medial Forms in Arabic lookup 3 subtable" _.notdef_23 noqta_A
MultipleSubs2: "'fina' Terminal Forms in Arabic lookup 2 subtable" _.notdef_21 noqta_A
MultipleSubs2: "'init' Initial Forms in Arabic lookup 1 subtable" _.notdef_22 noqta_A
MultipleSubs2: "'isol' Isolated Forms in Arabic lookup 0 subtable" _.notdef_20 noqta_A
EndChar

StartChar: afii57431
Encoding: 1591 1591 55
AltUni2: 00fec1.ffffffff.0
Width: 1395
GlyphClass: 2
Flags: W
LayerCount: 2
Fore
SplineSet
1087 433 m 1,0,1
 1068 466 1068 466 1017 481 c 0,2,3
 997 487 997 487 978 487 c 0,4,5
 949 487 949 487 924 473 c 0,6,7
 852 434 852 434 796 378 c 128,-1,8
 740 322 740 322 684 265 c 1,9,10
 792 286 792 286 893.5 311.5 c 128,-1,11
 995 337 995 337 1083 379 c 0,12,13
 1096 385 1096 385 1096 401 c 0,14,15
 1096 413 1096 413 1087 433 c 1,0,1
1186 387 m 0,16,17
 1082 248 1082 248 931 163.5 c 128,-1,18
 780 79 780 79 579 27 c 1,19,20
 479 0 479 0 401 0 c 0,21,22
 382 0 382 0 364 2 c 0,23,24
 264 11 264 11 191 63.5 c 128,-1,25
 118 116 118 116 4 184 c 0,26,27
 0 186 0 186 0 191 c 0,28,29
 0 194 0 194 2 198 c 0,30,31
 5 208 5 208 14 208 c 0,32,33
 65 206 65 206 114 206 c 0,34,35
 218 206 218 206 318 215 c 0,36,37
 466 227 466 227 601 250 c 1,38,39
 689 352 689 352 782 451.5 c 128,-1,40
 875 551 875 551 974 644 c 0,41,42
 1022 688 1022 688 1118 707 c 0,43,44
 1140 711 1140 711 1160 711 c 0,45,46
 1226 711 1226 711 1266 663 c 1,47,48
 1302 618 1302 618 1302 578 c 0,49,50
 1302 548 1302 548 1283 521 c 0,51,52
 1237 456 1237 456 1186 387 c 0,16,17
602 981 m 1,53,-1
 753 1221 l 1,54,-1
 797 564 l 1,55,-1
 646 324 l 1,56,-1
 602 981 l 1,53,-1
EndSplineSet
MultipleSubs2: "'medi' Medial Forms in Arabic lookup 3 subtable" _.notdef_27
MultipleSubs2: "'fina' Terminal Forms in Arabic lookup 2 subtable" _.notdef_25
MultipleSubs2: "'init' Initial Forms in Arabic lookup 1 subtable" _.notdef_26
MultipleSubs2: "'isol' Isolated Forms in Arabic lookup 0 subtable" _.notdef_24
EndChar

StartChar: afii57432
Encoding: 1592 1592 56
AltUni2: 00fec5.ffffffff.0
Width: 1395
GlyphClass: 2
Flags: W
LayerCount: 2
Fore
SplineSet
1087 433 m 1,0,1
 1068 466 1068 466 1017 481 c 0,2,3
 997 487 997 487 978 487 c 0,4,5
 949 487 949 487 924 473 c 0,6,7
 852 434 852 434 796 378 c 128,-1,8
 740 322 740 322 684 265 c 1,9,10
 792 286 792 286 893.5 311.5 c 128,-1,11
 995 337 995 337 1083 379 c 0,12,13
 1096 385 1096 385 1096 401 c 0,14,15
 1096 413 1096 413 1087 433 c 1,0,1
1186 387 m 0,16,17
 1082 248 1082 248 931 163.5 c 128,-1,18
 780 79 780 79 579 27 c 1,19,20
 479 0 479 0 401 0 c 0,21,22
 382 0 382 0 364 2 c 0,23,24
 264 11 264 11 191 63.5 c 128,-1,25
 118 116 118 116 4 184 c 0,26,27
 0 186 0 186 0 191 c 0,28,29
 0 194 0 194 2 198 c 0,30,31
 5 208 5 208 14 208 c 0,32,33
 65 206 65 206 114 206 c 0,34,35
 218 206 218 206 318 215 c 0,36,37
 466 227 466 227 601 250 c 1,38,39
 689 352 689 352 782 451.5 c 128,-1,40
 875 551 875 551 974 644 c 0,41,42
 1022 688 1022 688 1118 707 c 0,43,44
 1140 711 1140 711 1160 711 c 0,45,46
 1226 711 1226 711 1266 663 c 1,47,48
 1302 618 1302 618 1302 578 c 0,49,50
 1302 548 1302 548 1283 521 c 0,51,52
 1237 456 1237 456 1186 387 c 0,16,17
602 981 m 1,53,-1
 753 1221 l 1,54,-1
 797 564 l 1,55,-1
 646 324 l 1,56,-1
 602 981 l 1,53,-1
1207 1021 m 1,57,58
 1165 967 1165 967 1123 915 c 128,-1,59
 1081 863 1081 863 1039 811 c 1,60,-1
 895 946 l 1,61,62
 936 999 936 999 978.5 1051 c 128,-1,63
 1021 1103 1021 1103 1063 1156 c 1,64,-1
 1207 1021 l 1,57,58
EndSplineSet
MultipleSubs2: "'medi' Medial Forms in Arabic lookup 3 subtable" _.notdef_27 noqta_A
MultipleSubs2: "'fina' Terminal Forms in Arabic lookup 2 subtable" _.notdef_25 noqta_A
MultipleSubs2: "'init' Initial Forms in Arabic lookup 1 subtable" _.notdef_26 noqta_A
MultipleSubs2: "'isol' Isolated Forms in Arabic lookup 0 subtable" _.notdef_24 noqta_A
EndChar

StartChar: afii57433
Encoding: 1593 1593 57
AltUni2: 00fec9.ffffffff.0
Width: 1400
GlyphClass: 2
Flags: W
LayerCount: 2
Fore
SplineSet
422 534 m 1,0,1
 395 558 395 558 360 603 c 1,2,3
 290 689 290 689 274 802 c 0,4,5
 268 847 268 847 268 890 c 0,6,7
 268 955 268 955 282 1015 c 0,8,9
 306 1115 306 1115 363 1184 c 0,10,11
 418 1251 418 1251 494 1251 c 2,12,-1
 496 1251 l 1,13,14
 549 1249 549 1249 596 1238 c 128,-1,15
 643 1227 643 1227 694 1216 c 1,16,-1
 608 950 l 1,17,18
 499 983 499 983 393 993 c 1,19,20
 405 918 405 918 431.5 873.5 c 128,-1,21
 458 829 458 829 507 787 c 1,22,23
 545 749 545 749 599 749 c 0,24,25
 646 749 646 749 706 778 c 0,26,27
 832 841 832 841 925 931 c 1,28,-1
 833 694 l 2,29,30
 811 639 811 639 731.5 578 c 128,-1,31
 652 517 652 517 591 464 c 0,32,33
 548 426 548 426 448.5 336 c 128,-1,34
 349 246 349 246 259 139.5 c 128,-1,35
 169 33 169 33 121 -72 c 0,36,37
 99 -119 99 -119 99 -159 c 0,38,39
 99 -207 99 -207 132 -245 c 0,40,41
 236 -362 236 -362 381.5 -412 c 128,-1,42
 527 -462 527 -462 686 -467 c 0,43,44
 713 -468 713 -468 740 -468 c 0,45,46
 872 -468 872 -468 1005 -446 c 0,47,48
 1165 -419 1165 -419 1299 -385 c 0,49,50
 1317 -380 1317 -380 1324 -380 c 0,51,52
 1328 -380 1328 -380 1328 -382 c 0,53,54
 1328 -383 1328 -383 1327 -385 c 0,55,56
 1202 -536 1202 -536 996.5 -631.5 c 128,-1,57
 791 -727 791 -727 586 -741 c 0,58,59
 555 -743 555 -743 526 -743 c 0,60,61
 356 -743 356 -743 216 -674 c 0,62,63
 52 -594 52 -594 10 -393 c 0,64,65
 -1 -340 -1 -340 -1 -282 c 0,66,67
 -1 -105 -1 -105 104 109 c 0,68,69
 242 392 242 392 422 534 c 1,0,1
EndSplineSet
MultipleSubs2: "'medi' Medial Forms in Arabic lookup 3 subtable" _.notdef_31
MultipleSubs2: "'fina' Terminal Forms in Arabic lookup 2 subtable" _.notdef_29
MultipleSubs2: "'init' Initial Forms in Arabic lookup 1 subtable" _.notdef_30
MultipleSubs2: "'isol' Isolated Forms in Arabic lookup 0 subtable" _.notdef_28
EndChar

StartChar: afii57434
Encoding: 1594 1594 58
AltUni2: 00fecd.ffffffff.0
Width: 1400
GlyphClass: 2
Flags: W
LayerCount: 2
Fore
SplineSet
422 534 m 1,0,1
 395 558 395 558 360 603 c 1,2,3
 290 689 290 689 274 802 c 0,4,5
 268 847 268 847 268 890 c 0,6,7
 268 955 268 955 282 1015 c 0,8,9
 306 1115 306 1115 363 1184 c 0,10,11
 418 1251 418 1251 494 1251 c 2,12,-1
 496 1251 l 1,13,14
 549 1249 549 1249 596 1238 c 128,-1,15
 643 1227 643 1227 694 1216 c 1,16,-1
 608 950 l 1,17,18
 499 983 499 983 393 993 c 1,19,20
 405 918 405 918 431.5 873.5 c 128,-1,21
 458 829 458 829 507 787 c 1,22,23
 545 749 545 749 599 749 c 0,24,25
 646 749 646 749 706 778 c 0,26,27
 832 841 832 841 925 931 c 1,28,-1
 833 694 l 2,29,30
 811 639 811 639 731.5 578 c 128,-1,31
 652 517 652 517 591 464 c 0,32,33
 548 426 548 426 448.5 336 c 128,-1,34
 349 246 349 246 259 139.5 c 128,-1,35
 169 33 169 33 121 -72 c 0,36,37
 99 -119 99 -119 99 -159 c 0,38,39
 99 -207 99 -207 132 -245 c 0,40,41
 236 -362 236 -362 381.5 -412 c 128,-1,42
 527 -462 527 -462 686 -467 c 0,43,44
 713 -468 713 -468 740 -468 c 0,45,46
 872 -468 872 -468 1005 -446 c 0,47,48
 1165 -419 1165 -419 1299 -385 c 0,49,50
 1317 -380 1317 -380 1324 -380 c 0,51,52
 1328 -380 1328 -380 1328 -382 c 0,53,54
 1328 -383 1328 -383 1327 -385 c 0,55,56
 1202 -536 1202 -536 996.5 -631.5 c 128,-1,57
 791 -727 791 -727 586 -741 c 0,58,59
 555 -743 555 -743 526 -743 c 0,60,61
 356 -743 356 -743 216 -674 c 0,62,63
 52 -594 52 -594 10 -393 c 0,64,65
 -1 -340 -1 -340 -1 -282 c 0,66,67
 -1 -105 -1 -105 104 109 c 0,68,69
 242 392 242 392 422 534 c 1,0,1
654 1589 m 1,70,71
 612 1535 612 1535 570 1483 c 128,-1,72
 528 1431 528 1431 486 1379 c 1,73,-1
 342 1514 l 1,74,75
 383 1567 383 1567 425.5 1619 c 128,-1,76
 468 1671 468 1671 510 1724 c 1,77,-1
 654 1589 l 1,70,71
EndSplineSet
MultipleSubs2: "'medi' Medial Forms in Arabic lookup 3 subtable" _.notdef_31 noqta_A
MultipleSubs2: "'fina' Terminal Forms in Arabic lookup 2 subtable" _.notdef_29 noqta_A
MultipleSubs2: "'init' Initial Forms in Arabic lookup 1 subtable" _.notdef_30 noqta_A
MultipleSubs2: "'isol' Isolated Forms in Arabic lookup 0 subtable" _.notdef_28 noqta_A
EndChar

StartChar: afii57441
Encoding: 1601 1601 60
AltUni2: 00fed1.ffffffff.0
Width: 1288
GlyphClass: 2
Flags: W
LayerCount: 2
Fore
SplineSet
1186 276 m 0,0,1
 1112 195 1112 195 1017.5 142 c 128,-1,2
 923 89 923 89 819 57 c 0,3,4
 685 17 685 17 504 2 c 0,5,6
 472 -1 472 -1 442 -1 c 0,7,8
 301 -1 301 -1 196 58 c 1,9,10
 102 112 102 112 67 210 c 0,11,12
 47 265 47 265 47 323 c 0,13,14
 47 407 47 407 88 499 c 0,15,16
 158 655 158 655 233 773 c 1,17,18
 246 791 246 791 260 791 c 0,19,20
 265 791 265 791 270 790 c 1,21,22
 281 785 281 785 281 772 c 0,23,24
 281 763 281 763 275 749 c 1,25,26
 185 583 185 583 185 477 c 0,27,28
 185 396 185 396 238 350 c 0,29,30
 347 254 347 254 538 254 c 0,31,32
 558 254 558 254 579 255 c 1,33,-1
 580 255 l 1,34,35
 689 263 689 263 912.5 318.5 c 128,-1,36
 1136 374 1136 374 1230 458 c 1,37,-1
 1205 532 l 2,38,39
 1184 592 1184 592 1170 592 c 0,40,41
 1166 592 1166 592 1163 588 c 1,42,43
 1130 560 1130 560 1078 544 c 0,44,45
 1057 538 1057 538 1037 538 c 0,46,47
 1007 538 1007 538 978 552 c 256,48,49
 949 566 949 566 948 608 c 0,50,51
 947 612 947 612 947 615 c 0,52,53
 947 652 947 652 962 679 c 0,54,55
 995 742 995 742 1026.5 808.5 c 128,-1,56
 1058 875 1058 875 1100 932 c 0,57,58
 1131 974 1131 974 1166 974 c 0,59,60
 1188 974 1188 974 1212 957 c 0,61,62
 1273 913 1273 913 1312 838 c 0,63,64
 1352 759 1352 759 1352 671 c 0,65,66
 1352 609 1352 609 1332 542 c 0,67,68
 1282 382 1282 382 1186 276 c 0,0,1
1277 1230 m 1,69,70
 1235 1176 1235 1176 1193 1124 c 128,-1,71
 1151 1072 1151 1072 1109 1020 c 1,72,-1
 965 1155 l 1,73,74
 1006 1208 1006 1208 1048.5 1260 c 128,-1,75
 1091 1312 1091 1312 1133 1365 c 1,76,-1
 1277 1230 l 1,69,70
EndSplineSet
MultipleSubs2: "'medi' Medial Forms in Arabic lookup 3 subtable" _.notdef_35 noqta_A
MultipleSubs2: "'fina' Terminal Forms in Arabic lookup 2 subtable" _.notdef_33 noqta_A
MultipleSubs2: "'init' Initial Forms in Arabic lookup 1 subtable" _.notdef_34 noqta_A
MultipleSubs2: "'isol' Isolated Forms in Arabic lookup 0 subtable" _.notdef_32 noqta_A
EndChar

StartChar: afii57442
Encoding: 1602 1602 61
AltUni2: 00fed5.ffffffff.0
Width: 1300
GlyphClass: 2
Flags: W
LayerCount: 2
Fore
SplineSet
1025 256 m 0,0,1
 933 124 933 124 798 57.5 c 128,-1,2
 663 -9 663 -9 544.5 2 c 128,-1,3
 426 13 426 13 354.5 108.5 c 128,-1,4
 283 204 283 204 320 398 c 0,5,6
 332 460 332 460 331 513 c 0,7,8
 330 526 330 526 326 546 c 128,-1,9
 322 566 322 566 305 563 c 0,10,11
 121 534 121 534 13 388 c 1,12,13
 37 463 37 463 62 537 c 128,-1,14
 87 611 87 611 117 683 c 1,15,16
 173 734 173 734 241 773 c 128,-1,17
 309 812 309 812 402 827 c 1,18,19
 439 831 439 831 439 796 c 1,20,21
 436 726 436 726 418.5 637 c 128,-1,22
 401 548 401 548 409 469 c 1,23,24
 420 342 420 342 503 308 c 128,-1,25
 586 274 586 274 691.5 294 c 128,-1,26
 797 314 797 314 902 369 c 128,-1,27
 1007 424 1007 424 1063 476 c 1,28,29
 1063 517 1063 517 1058.5 576 c 128,-1,30
 1054 635 1054 635 1034 664 c 1,31,32
 983 652 983 652 926.5 656.5 c 128,-1,33
 870 661 870 661 844 691 c 1,34,35
 800 739 800 739 841 816 c 1,36,37
 874 882 874 882 905 953 c 128,-1,38
 936 1024 936 1024 985 1079 c 0,39,40
 1009 1106 1009 1106 1043.5 1093 c 128,-1,41
 1078 1080 1078 1080 1097 1062 c 0,42,43
 1239 917 1239 917 1184 662 c 128,-1,44
 1129 407 1129 407 1025 256 c 0,0,1
EndSplineSet
MultipleSubs2: "'medi' Medial Forms in Arabic lookup 3 subtable" _.notdef_35 noqtatan_A
MultipleSubs2: "'fina' Terminal Forms in Arabic lookup 2 subtable" _.notdef_37
MultipleSubs2: "'init' Initial Forms in Arabic lookup 1 subtable" _.notdef_34 noqtatan_A
MultipleSubs2: "'isol' Isolated Forms in Arabic lookup 0 subtable" _.notdef_36
EndChar

StartChar: afii57443
Encoding: 1603 1603 62
AltUni2: 00fed9.ffffffff.0
Width: 1164
GlyphClass: 2
Flags: W
LayerCount: 2
Fore
SplineSet
1000 446 m 1,0,1
 1007 452 1007 452 1007 477 c 2,2,-1
 1007 490 l 1,3,-1
 950 1245 l 1,4,-1
 1101 1496 l 1,5,-1
 1161 705 l 2,6,7
 1162 694 1162 694 1162 683 c 0,8,9
 1162 601 1162 601 1128 524 c 0,10,11
 1089 437 1089 437 1040 361 c 1,12,13
 964 246 964 246 815.5 152 c 128,-1,14
 667 58 667 58 508 21 c 0,15,16
 428 2 428 2 353 2 c 0,17,18
 280 2 280 2 211 21 c 0,19,20
 73 57 73 57 18 204 c 0,21,22
 -3 259 -3 259 -3 318 c 0,23,24
 -3 405 -3 405 42 501 c 0,25,26
 117 662 117 662 193 780 c 0,27,28
 432 1153 432 1153 584 1182 c 0,29,30
 610 1187 610 1187 633 1187 c 0,31,32
 742 1187 742 1187 772 1077 c 0,33,34
 783 1038 783 1038 783 994 c 0,35,36
 783 884 783 884 718 741 c 0,37,38
 627 538 627 538 380 450 c 1,39,-1
 468 718 l 1,40,41
 525 730 525 730 552 742.5 c 128,-1,42
 579 755 579 755 632 780 c 1,43,44
 606 936 606 936 519 936 c 0,45,46
 496 936 496 936 468 925 c 0,47,48
 337 872 337 872 264 765 c 0,49,50
 193 662 193 662 134 554 c 0,51,52
 116 521 116 521 116 488 c 0,53,54
 116 413 116 413 212 339 c 1,55,56
 284 282 284 282 391 279 c 0,57,58
 404 278 404 278 417 278 c 0,59,60
 511 278 511 278 610 300 c 0,61,62
 722 325 722 325 827 367.5 c 128,-1,63
 932 410 932 410 1000 446 c 1,0,1
EndSplineSet
MultipleSubs2: "'medi' Medial Forms in Arabic lookup 3 subtable" __.notdef_41
MultipleSubs2: "'fina' Terminal Forms in Arabic lookup 2 subtable" _.notdef_39
MultipleSubs2: "'init' Initial Forms in Arabic lookup 1 subtable" __.notdef_40
MultipleSubs2: "'isol' Isolated Forms in Arabic lookup 0 subtable" _.notdef_38
EndChar

StartChar: afii57444
Encoding: 1604 1604 63
AltUni2: 00fedd.ffffffff.0
Width: 882
GlyphClass: 2
Flags: W
LayerCount: 2
Fore
SplineSet
672 1363 m 1,0,-1
 824 1604 l 1,1,-1
 874 805 l 2,2,3
 876 787 876 787 876 777 c 2,4,-1
 878 754 l 1,5,-1
 877 750 l 1,6,7
 877 619 877 619 834 492.5 c 128,-1,8
 791 366 791 366 716 258 c 0,9,10
 603 96 603 96 432 33 c 0,11,12
 343 1 343 1 268 1 c 0,13,14
 198 1 198 1 139 30 c 0,15,16
 17 89 17 89 0 285 c 0,17,18
 -1 301 -1 301 -1 317 c 0,19,20
 -1 509 -1 509 179 838 c 0,21,22
 189 857 189 857 198 857 c 0,23,24
 201 857 201 857 204 856 c 0,25,26
 210 853 210 853 210 843 c 0,27,28
 210 832 210 832 203 814 c 1,29,30
 179 761 179 761 141.5 688 c 128,-1,31
 104 615 104 615 85 542 c 0,32,33
 75 501 75 501 75 463 c 0,34,35
 75 433 75 433 82 404 c 0,36,37
 97 340 97 340 179 305 c 1,38,39
 244 294 244 294 304 294 c 0,40,41
 403 294 403 294 491 324 c 0,42,43
 632 373 632 373 731 457 c 1,44,-1
 672 1363 l 1,0,-1
EndSplineSet
MultipleSubs2: "'medi' Medial Forms in Arabic lookup 3 subtable" __.notdef_45
MultipleSubs2: "'fina' Terminal Forms in Arabic lookup 2 subtable" __.notdef_43
MultipleSubs2: "'init' Initial Forms in Arabic lookup 1 subtable" __.notdef_44
MultipleSubs2: "'isol' Isolated Forms in Arabic lookup 0 subtable" __.notdef_42
EndChar

StartChar: afii57445
Encoding: 1605 1605 64
AltUni2: 00fee1.ffffffff.0
Width: 1056
GlyphClass: 2
Flags: W
LayerCount: 2
Fore
SplineSet
991 1031 m 0,0,1
 917 662 917 662 626 515 c 0,2,3
 526 464 526 464 400 438 c 128,-1,4
 274 412 274 412 175 358 c 0,5,6
 135 337 135 337 98.5 303.5 c 128,-1,7
 62 270 62 270 73 204 c 2,8,-1
 157 -330 l 1,9,10
 184 -547 184 -547 130 -737 c 1,11,12
 101 -521 101 -521 51 -321.5 c 128,-1,13
 1 -122 1 -122 0 101 c 0,14,15
 0 212 0 212 23 318 c 128,-1,16
 46 424 46 424 85 511 c 1,17,18
 136 590 136 590 224.5 627 c 128,-1,19
 313 664 313 664 426 696 c 2,20,-1
 575 738 l 1,21,22
 602 797 602 797 663 950.5 c 128,-1,23
 724 1104 724 1104 779 1104 c 1,24,25
 816 1116 816 1116 911 1112 c 128,-1,26
 1006 1108 1006 1108 991 1031 c 0,0,1
EndSplineSet
MultipleSubs2: "'medi' Medial Forms in Arabic lookup 3 subtable" __.notdef_49
MultipleSubs2: "'fina' Terminal Forms in Arabic lookup 2 subtable" __.notdef_47
MultipleSubs2: "'init' Initial Forms in Arabic lookup 1 subtable" __.notdef_48
MultipleSubs2: "'isol' Isolated Forms in Arabic lookup 0 subtable" __.notdef_46
EndChar

StartChar: afii57446
Encoding: 1606 1606 65
AltUni2: 00fee5.ffffffff.0
Width: 950
GlyphClass: 2
Flags: W
LayerCount: 2
Fore
SplineSet
200 772 m 1,0,-1
 194 759 l 1,1,2
 138 648 138 648 86 508 c 0,3,4
 72 471 72 471 72 439 c 0,5,6
 72 351 72 351 179 305 c 1,7,8
 245 293 245 293 306 293 c 0,9,10
 413 293 413 293 508 330 c 0,11,12
 656 387 656 387 754 477 c 1,13,-1
 754 495 l 2,14,15
 754 570 754 570 740 634 c 1,16,17
 723 706 723 706 702 775 c 1,18,-1
 814 1031 l 1,19,20
 879 895 879 895 879 751 c 0,21,22
 879 692 879 692 868 633 c 0,23,24
 831 425 831 425 716 258 c 1,25,26
 603 96 603 96 432 33 c 0,27,28
 343 1 343 1 268 1 c 0,29,30
 198 1 198 1 139 30 c 0,31,32
 17 89 17 89 0 285 c 0,33,34
 -1 301 -1 301 -1 317 c 0,35,36
 -1 509 -1 509 179 838 c 0,37,38
 203 883 203 883 232.5 934 c 128,-1,39
 262 985 262 985 289 1032 c 1,40,-1
 320 1015 l 1,41,-1
 323 1013 l 1,42,-1
 484 905 l 1,43,44
 451 844 451 844 418 786 c 128,-1,45
 385 728 385 728 352 670 c 1,46,-1
 200 772 l 1,0,-1
EndSplineSet
MultipleSubs2: "'medi' Medial Forms in Arabic lookup 3 subtable" _.notdef_7 noqta_A
MultipleSubs2: "'fina' Terminal Forms in Arabic lookup 2 subtable" __.notdef_51
MultipleSubs2: "'init' Initial Forms in Arabic lookup 1 subtable" _.notdef_6 noqta_A
MultipleSubs2: "'isol' Isolated Forms in Arabic lookup 0 subtable" __.notdef_50
EndChar

StartChar: afii57470
Encoding: 1607 1607 66
AltUni2: 00fee9.ffffffff.0
Width: 506
GlyphClass: 2
Flags: W
LayerCount: 2
Fore
SplineSet
283 546 m 0,0,1
 261 561 261 561 240 561 c 0,2,3
 192 561 192 561 152 480 c 0,4,5
 94 362 94 362 89 339 c 0,6,7
 88 336 88 336 88 334 c 0,8,9
 88 322 88 322 116 309 c 0,10,11
 152 293 152 293 189 293 c 0,12,13
 215 293 215 293 241 301 c 1,14,15
 305 318 305 318 350 346 c 0,16,17
 361 353 361 353 361 371 c 0,18,19
 361 397 361 397 340 447 c 0,20,21
 303 532 303 532 283 546 c 0,0,1
444 345 m 0,22,23
 419 231 419 231 366 137 c 128,-1,24
 313 43 313 43 184 10 c 0,25,26
 141 -1 141 -1 108 -1 c 0,27,28
 2 -1 2 -1 2 116 c 0,29,30
 2 118 2 118 3 119 c 0,31,32
 4 276 4 276 64 454 c 0,33,34
 151 709 151 709 236 789 c 0,35,36
 291 842 291 842 336 842 c 0,37,38
 359 842 359 842 379 828 c 0,39,40
 438 787 438 787 460 653 c 0,41,42
 468 603 468 603 468 549 c 0,43,44
 468 455 468 455 444 345 c 0,22,23
EndSplineSet
MultipleSubs2: "'medi' Medial Forms in Arabic lookup 3 subtable" __.notdef_56
MultipleSubs2: "'fina' Terminal Forms in Arabic lookup 2 subtable" __.notdef_53
MultipleSubs2: "'init' Initial Forms in Arabic lookup 1 subtable" __.notdef_54
MultipleSubs2: "'isol' Isolated Forms in Arabic lookup 0 subtable" __.notdef_52
EndChar

StartChar: afii57448
Encoding: 1608 1608 67
AltUni2: 00feed.ffffffff.0
Width: 1001
GlyphClass: 2
Flags: W
LayerCount: 2
Fore
SplineSet
470 17 m 1,0,1
 377 0 377 0 281 0 c 0,2,3
 261 0 261 0 240 1 c 0,4,5
 123 5 123 5 11 17 c 1,6,7
 0 17 0 17 0 29 c 0,8,9
 0 40 0 40 9 46 c 0,10,11
 168 134 168 134 347 202.5 c 128,-1,12
 526 271 526 271 703 343 c 0,13,14
 794 379 794 379 859 452 c 0,15,16
 864 459 864 459 864 470 c 0,17,18
 864 478 864 478 862 488 c 0,19,20
 856 513 856 513 845 529 c 1,21,22
 809 520 809 520 769 520 c 0,23,24
 754 520 754 520 739 522 c 0,25,26
 682 526 682 526 656 556 c 1,27,28
 633 581 633 581 633 614 c 0,29,30
 633 644 633 644 652 681 c 0,31,32
 686 747 686 747 717 818 c 128,-1,33
 748 889 748 889 797 944 c 0,34,35
 813 962 813 962 834 962 c 0,36,37
 844 962 844 962 855 958 c 0,38,39
 890 945 890 945 908 927 c 0,40,41
 1003 830 1003 830 1003 694 c 2,42,-1
 1003 681 l 1,43,44
 998 536 998 536 925.5 397.5 c 128,-1,45
 853 259 853 259 730.5 151.5 c 128,-1,46
 608 44 608 44 470 17 c 1,0,1
EndSplineSet
MultipleSubs2: "'fina' Terminal Forms in Arabic lookup 2 subtable" __.notdef_58
MultipleSubs2: "'isol' Isolated Forms in Arabic lookup 0 subtable" __.notdef_57
EndChar

StartChar: afii57449
Encoding: 1609 1609 68
AltUni2: 00feef.ffffffff.0
Width: 1261
GlyphClass: 2
Flags: W
LayerCount: 2
Fore
SplineSet
160 48 m 0,0,1
 27 121 27 121 9 251 c 0,2,3
 3 291 3 291 3 333 c 0,4,5
 3 424 3 424 31 521 c 0,6,7
 71 662 71 662 144.5 791.5 c 128,-1,8
 218 921 218 921 270 993 c 0,9,10
 274 998 274 998 279 998 c 0,11,12
 281 998 281 998 284 997 c 0,13,14
 288 996 288 996 288 991 c 0,15,16
 288 988 288 988 286 983 c 0,17,18
 256 920 256 920 210 835.5 c 128,-1,19
 164 751 164 751 136 663 c 0,20,21
 115 595 115 595 115 529 c 0,22,23
 115 509 115 509 117 490 c 0,24,25
 125 405 125 405 204 344 c 0,26,27
 273 290 273 290 394 282 c 0,28,29
 427 280 427 280 460 280 c 0,30,31
 544 280 544 280 621 295 c 1,32,33
 860 338 860 338 1056 465 c 1,34,35
 952 475 952 475 866.5 511.5 c 128,-1,36
 781 548 781 548 757 631 c 0,37,38
 752 650 752 650 752 672 c 0,39,40
 752 752 752 752 823 879 c 0,41,42
 914 1041 914 1041 979 1103 c 0,43,44
 1007 1131 1007 1131 1050.5 1164.5 c 128,-1,45
 1094 1198 1094 1198 1148 1201 c 0,46,47
 1154 1201 1154 1201 1168 1198 c 0,48,49
 1178 1196 1178 1196 1178 1188 c 0,50,51
 1178 1184 1178 1184 1176 1180 c 0,52,53
 1150 1125 1150 1125 1129 1067.5 c 128,-1,54
 1108 1010 1108 1010 1078 961 c 1,55,56
 1063 965 1063 965 1047 965 c 0,57,58
 1019 965 1019 965 987 954 c 0,59,60
 934 935 934 935 911 901 c 0,61,62
 900 885 900 885 900 868 c 0,63,64
 900 848 900 848 915 826 c 0,65,66
 942 785 942 785 1065 751 c 0,67,68
 1107 739 1107 739 1153 732.5 c 128,-1,69
 1199 726 1199 726 1226 697 c 0,70,71
 1259 662 1259 662 1259 615 c 0,72,73
 1259 559 1259 559 1211 485 c 0,74,75
 1146 384 1146 384 1018.5 279 c 128,-1,76
 891 174 891 174 740 100.5 c 128,-1,77
 589 27 589 27 435 5 c 0,78,79
 395 -1 395 -1 359 -1 c 0,80,81
 250 -1 250 -1 160 48 c 0,0,1
EndSplineSet
MultipleSubs2: "'fina' Terminal Forms in Arabic lookup 2 subtable" __.notdef_60
MultipleSubs2: "'isol' Isolated Forms in Arabic lookup 0 subtable" __.notdef_59
EndChar

StartChar: afii57450
Encoding: 1610 1610 69
AltUni2: 00fef1.ffffffff.0
Width: 1261
GlyphClass: 2
Flags: W
LayerCount: 2
Fore
SplineSet
160 48 m 0,0,1
 27 121 27 121 9 251 c 0,2,3
 3 291 3 291 3 333 c 0,4,5
 3 424 3 424 31 521 c 0,6,7
 71 662 71 662 144.5 791.5 c 128,-1,8
 218 921 218 921 270 993 c 0,9,10
 274 998 274 998 279 998 c 0,11,12
 281 998 281 998 284 997 c 0,13,14
 288 996 288 996 288 991 c 0,15,16
 288 988 288 988 286 983 c 0,17,18
 256 920 256 920 210 835.5 c 128,-1,19
 164 751 164 751 136 663 c 0,20,21
 115 595 115 595 115 529 c 0,22,23
 115 509 115 509 117 490 c 0,24,25
 125 405 125 405 204 344 c 0,26,27
 273 290 273 290 394 282 c 0,28,29
 427 280 427 280 460 280 c 0,30,31
 544 280 544 280 621 295 c 1,32,33
 860 338 860 338 1056 465 c 1,34,35
 952 475 952 475 866.5 511.5 c 128,-1,36
 781 548 781 548 757 631 c 0,37,38
 752 650 752 650 752 672 c 0,39,40
 752 752 752 752 823 879 c 0,41,42
 914 1041 914 1041 979 1103 c 0,43,44
 1007 1131 1007 1131 1050.5 1164.5 c 128,-1,45
 1094 1198 1094 1198 1148 1201 c 0,46,47
 1154 1201 1154 1201 1168 1198 c 0,48,49
 1178 1196 1178 1196 1178 1188 c 0,50,51
 1178 1184 1178 1184 1176 1180 c 0,52,53
 1150 1125 1150 1125 1129 1067.5 c 128,-1,54
 1108 1010 1108 1010 1078 961 c 1,55,56
 1063 965 1063 965 1047 965 c 0,57,58
 1019 965 1019 965 987 954 c 0,59,60
 934 935 934 935 911 901 c 0,61,62
 900 885 900 885 900 868 c 0,63,64
 900 848 900 848 915 826 c 0,65,66
 942 785 942 785 1065 751 c 0,67,68
 1107 739 1107 739 1153 732.5 c 128,-1,69
 1199 726 1199 726 1226 697 c 0,70,71
 1259 662 1259 662 1259 615 c 0,72,73
 1259 559 1259 559 1211 485 c 0,74,75
 1146 384 1146 384 1018.5 279 c 128,-1,76
 891 174 891 174 740 100.5 c 128,-1,77
 589 27 589 27 435 5 c 0,78,79
 395 -1 395 -1 359 -1 c 0,80,81
 250 -1 250 -1 160 48 c 0,0,1
689 -279 m 1,82,83
 590 -297 590 -297 492 -315.5 c 128,-1,84
 394 -334 394 -334 296 -352 c 1,85,-1
 418 -108 l 1,86,87
 632 -70 632 -70 812 -35 c 1,88,-1
 689 -279 l 1,82,83
EndSplineSet
MultipleSubs2: "'medi' Medial Forms in Arabic lookup 3 subtable" _.notdef_7 noqtatan_B
MultipleSubs2: "'fina' Terminal Forms in Arabic lookup 2 subtable" __.notdef_60 noqtatan_B
MultipleSubs2: "'init' Initial Forms in Arabic lookup 1 subtable" _.notdef_6 noqtatan_B
MultipleSubs2: "'isol' Isolated Forms in Arabic lookup 0 subtable" __.notdef_59 noqtatan_B
EndChar

StartChar: uniFE82
Encoding: 65154 65154 70
Width: 217
GlyphClass: 2
Flags: W
LayerCount: 2
Fore
SplineSet
137 1167 m 1,0,-1
 266 1407 l 1,1,-1
 344 282 l 1,2,-1
 217 0 l 1,3,-1
 137 1167 l 1,0,-1
558 1641 m 1,4,-1
 468 1526 l 1,5,6
 393 1477 393 1477 268 1452 c 0,7,8
 229 1444 229 1444 192 1444 c 0,9,10
 108 1444 108 1444 32 1484 c 0,11,12
 23 1489 23 1489 14 1489 c 256,13,14
 5 1489 5 1489 -3 1483 c 0,15,16
 -20 1472 -20 1472 -34 1464 c 0,17,18
 -64 1447 -64 1447 -114 1394 c 0,19,20
 -131 1376 -131 1376 -135 1376 c 0,21,22
 -137 1376 -137 1376 -137 1378 c 0,23,24
 -137 1388 -137 1388 -104 1446 c 0,25,26
 -51 1540 -51 1540 57 1595 c 0,27,28
 60 1597 60 1597 65 1597 c 0,29,30
 76 1597 76 1597 94 1589 c 0,31,32
 175 1548 175 1548 263 1548 c 0,33,34
 303 1548 303 1548 345 1556 c 0,35,36
 479 1583 479 1583 550 1646 c 0,37,38
 553 1649 553 1649 555 1649 c 0,39,40
 558 1649 558 1649 558 1641 c 1,4,-1
EndSplineSet
EndChar

StartChar: uniFE84
Encoding: 65156 65156 71
Width: 217
GlyphClass: 2
Flags: W
LayerCount: 2
Fore
SplineSet
137 1167 m 1,0,-1
 266 1407 l 1,1,-1
 344 282 l 1,2,-1
 217 0 l 1,3,-1
 137 1167 l 1,0,-1
281 1759 m 2,4,5
 268 1732 268 1732 236.5 1718.5 c 128,-1,6
 205 1705 205 1705 182 1674 c 1,7,8
 200 1652 200 1652 231 1644 c 128,-1,9
 262 1636 262 1636 286 1621 c 0,10,11
 313 1603 313 1603 313 1574 c 0,12,13
 313 1557 313 1557 305 1538 c 0,14,15
 282 1483 282 1483 226 1444 c 1,16,17
 178 1409 178 1409 125.5 1400.5 c 128,-1,18
 73 1392 73 1392 18 1383 c 1,19,20
 65 1404 65 1404 114.5 1425 c 128,-1,21
 164 1446 164 1446 208 1471 c 0,22,23
 222 1480 222 1480 222 1487 c 0,24,25
 222 1490 222 1490 218 1493 c 0,26,27
 201 1503 201 1503 179 1512.5 c 128,-1,28
 157 1522 157 1522 140 1532 c 0,29,30
 103 1552 103 1552 103 1588 c 0,31,32
 103 1626 103 1626 147 1683 c 0,33,34
 231 1792 231 1792 271 1823 c 0,35,36
 288 1836 288 1836 324 1852 c 1,37,-1
 281 1759 l 2,4,5
EndSplineSet
EndChar

StartChar: uniFE86
Encoding: 65158 65158 72
Width: 1001
GlyphClass: 2
Flags: W
LayerCount: 2
Fore
SplineSet
470 17 m 1,0,1
 377 0 377 0 281 0 c 0,2,3
 261 0 261 0 240 1 c 0,4,5
 123 5 123 5 11 17 c 1,6,7
 0 17 0 17 0 29 c 0,8,9
 0 40 0 40 9 46 c 0,10,11
 168 134 168 134 347 202.5 c 128,-1,12
 526 271 526 271 703 343 c 0,13,14
 794 379 794 379 859 452 c 0,15,16
 864 459 864 459 864 470 c 0,17,18
 864 478 864 478 862 488 c 0,19,20
 856 513 856 513 845 529 c 1,21,22
 809 520 809 520 769 520 c 0,23,24
 754 520 754 520 739 522 c 0,25,26
 682 526 682 526 656 556 c 1,27,28
 633 581 633 581 633 614 c 0,29,30
 633 644 633 644 652 681 c 0,31,32
 686 747 686 747 717 818 c 128,-1,33
 748 889 748 889 797 944 c 0,34,35
 813 962 813 962 834 962 c 0,36,37
 844 962 844 962 855 958 c 0,38,39
 890 945 890 945 908 927 c 0,40,41
 1003 830 1003 830 1003 694 c 2,42,-1
 1003 681 l 1,43,44
 998 536 998 536 925.5 397.5 c 128,-1,45
 853 259 853 259 730.5 151.5 c 128,-1,46
 608 44 608 44 470 17 c 1,0,1
933 1437 m 2,47,48
 920 1410 920 1410 888.5 1396.5 c 128,-1,49
 857 1383 857 1383 834 1352 c 1,50,51
 852 1330 852 1330 883 1322 c 128,-1,52
 914 1314 914 1314 938 1299 c 0,53,54
 965 1281 965 1281 965 1252 c 0,55,56
 965 1235 965 1235 957 1216 c 0,57,58
 934 1161 934 1161 878 1122 c 1,59,60
 830 1087 830 1087 777.5 1078.5 c 128,-1,61
 725 1070 725 1070 670 1061 c 1,62,63
 717 1082 717 1082 766.5 1103 c 128,-1,64
 816 1124 816 1124 860 1149 c 0,65,66
 874 1158 874 1158 874 1165 c 0,67,68
 874 1168 874 1168 870 1171 c 0,69,70
 853 1181 853 1181 831 1190.5 c 128,-1,71
 809 1200 809 1200 792 1210 c 0,72,73
 755 1230 755 1230 755 1266 c 0,74,75
 755 1304 755 1304 799 1361 c 0,76,77
 883 1470 883 1470 923 1501 c 0,78,79
 940 1514 940 1514 976 1530 c 1,80,-1
 933 1437 l 2,47,48
EndSplineSet
EndChar

StartChar: uniFE88
Encoding: 65160 65160 73
Width: 217
GlyphClass: 2
Flags: W
LayerCount: 2
Fore
SplineSet
137 1167 m 1,0,-1
 266 1407 l 1,1,-1
 344 282 l 1,2,-1
 217 0 l 1,3,-1
 137 1167 l 1,0,-1
310 -166 m 2,4,5
 297 -193 297 -193 265.5 -206.5 c 128,-1,6
 234 -220 234 -220 211 -251 c 1,7,8
 229 -273 229 -273 260 -281 c 128,-1,9
 291 -289 291 -289 315 -304 c 0,10,11
 342 -322 342 -322 342 -351 c 0,12,13
 342 -368 342 -368 334 -387 c 0,14,15
 311 -442 311 -442 255 -481 c 1,16,17
 207 -516 207 -516 154.5 -524.5 c 128,-1,18
 102 -533 102 -533 47 -542 c 1,19,20
 94 -521 94 -521 143.5 -500 c 128,-1,21
 193 -479 193 -479 237 -454 c 0,22,23
 251 -445 251 -445 251 -438 c 0,24,25
 251 -435 251 -435 247 -432 c 0,26,27
 230 -422 230 -422 208 -412.5 c 128,-1,28
 186 -403 186 -403 169 -393 c 0,29,30
 132 -373 132 -373 132 -337 c 0,31,32
 132 -299 132 -299 176 -242 c 0,33,34
 260 -133 260 -133 300 -102 c 0,35,36
 317 -89 317 -89 353 -73 c 1,37,-1
 310 -166 l 2,4,5
EndSplineSet
EndChar

StartChar: uniFE8A
Encoding: 65162 65162 74
Width: 848
GlyphClass: 2
Flags: W
LayerCount: 2
Fore
SplineSet
160 48 m 0,0,1
 27 121 27 121 9 251 c 0,2,3
 3 291 3 291 3 333 c 0,4,5
 3 424 3 424 31 521 c 0,6,7
 71 662 71 662 144.5 791.5 c 128,-1,8
 218 921 218 921 270 993 c 0,9,10
 274 998 274 998 279 998 c 0,11,12
 281 998 281 998 284 997 c 0,13,14
 288 996 288 996 288 991 c 0,15,16
 288 988 288 988 286 983 c 0,17,18
 256 920 256 920 210 835.5 c 128,-1,19
 164 751 164 751 136 663 c 0,20,21
 115 595 115 595 115 529 c 0,22,23
 115 509 115 509 117 490 c 0,24,25
 125 405 125 405 204 344 c 0,26,27
 273 290 273 290 394 282 c 0,28,29
 427 280 427 280 460 280 c 0,30,31
 544 280 544 280 621 295 c 1,32,33
 860 338 860 338 1056 465 c 1,34,35
 952 475 952 475 866.5 511.5 c 128,-1,36
 781 548 781 548 757 631 c 0,37,38
 752 648 752 648 752 668 c 0,39,40
 752 708 752 708 772 763 c 0,41,42
 802 845 802 845 848 925 c 1,43,44
 872 853 872 853 934 811 c 128,-1,45
 996 769 996 769 1065 751 c 1,46,47
 1107 739 1107 739 1153 732.5 c 128,-1,48
 1199 726 1199 726 1226 697 c 0,49,50
 1259 662 1259 662 1259 615 c 0,51,52
 1259 559 1259 559 1211 485 c 0,53,54
 1146 384 1146 384 1018.5 279 c 128,-1,55
 891 174 891 174 740 100.5 c 128,-1,56
 589 27 589 27 435 5 c 0,57,58
 395 -1 395 -1 359 -1 c 0,59,60
 250 -1 250 -1 160 48 c 0,0,1
432 1437 m 2,61,62
 419 1410 419 1410 387.5 1396.5 c 128,-1,63
 356 1383 356 1383 333 1352 c 1,64,65
 351 1330 351 1330 382 1322 c 128,-1,66
 413 1314 413 1314 437 1299 c 0,67,68
 464 1281 464 1281 464 1252 c 0,69,70
 464 1235 464 1235 456 1216 c 0,71,72
 433 1161 433 1161 377 1122 c 1,73,74
 329 1087 329 1087 276.5 1078.5 c 128,-1,75
 224 1070 224 1070 169 1061 c 1,76,77
 216 1082 216 1082 265.5 1103 c 128,-1,78
 315 1124 315 1124 359 1149 c 0,79,80
 373 1158 373 1158 373 1165 c 0,81,82
 373 1168 373 1168 369 1171 c 0,83,84
 352 1181 352 1181 330 1190.5 c 128,-1,85
 308 1200 308 1200 291 1210 c 0,86,87
 254 1230 254 1230 254 1266 c 0,88,89
 254 1304 254 1304 298 1361 c 0,90,91
 382 1470 382 1470 422 1501 c 0,92,93
 439 1514 439 1514 475 1530 c 1,94,-1
 432 1437 l 2,61,62
EndSplineSet
EndChar

StartChar: uniFE8B
Encoding: 65163 65163 75
Width: 604
GlyphClass: 2
Flags: W
LayerCount: 2
Fore
SplineSet
562 506 m 0,0,1
 550 406 550 406 494.5 296 c 128,-1,2
 439 186 439 186 364 121 c 0,3,4
 298 63 298 63 210.5 37.5 c 128,-1,5
 123 12 123 12 0 0 c 1,6,-1
 119 275 l 1,7,-1
 121 275 l 1,8,9
 208 285 208 285 281.5 299 c 128,-1,10
 355 313 355 313 412 352 c 1,11,12
 411 394 411 394 390 463.5 c 128,-1,13
 369 533 369 533 349 593 c 1,14,-1
 506 825 l 1,15,-1
 541 733 l 2,16,17
 566 667 566 667 566 580 c 0,18,19
 566 545 566 545 562 506 c 0,0,1
542 1267 m 2,20,21
 529 1240 529 1240 497.5 1226.5 c 128,-1,22
 466 1213 466 1213 443 1182 c 1,23,24
 461 1160 461 1160 492 1152 c 128,-1,25
 523 1144 523 1144 547 1129 c 0,26,27
 574 1111 574 1111 574 1082 c 0,28,29
 574 1065 574 1065 566 1046 c 0,30,31
 543 991 543 991 487 952 c 1,32,33
 439 917 439 917 386.5 908.5 c 128,-1,34
 334 900 334 900 279 891 c 1,35,36
 326 912 326 912 375.5 933 c 128,-1,37
 425 954 425 954 469 979 c 0,38,39
 483 988 483 988 483 995 c 0,40,41
 483 998 483 998 479 1001 c 0,42,43
 462 1011 462 1011 440 1020.5 c 128,-1,44
 418 1030 418 1030 401 1040 c 0,45,46
 364 1060 364 1060 364 1096 c 0,47,48
 364 1134 364 1134 408 1191 c 0,49,50
 492 1300 492 1300 532 1331 c 0,51,52
 549 1344 549 1344 585 1360 c 1,53,-1
 542 1267 l 2,20,21
EndSplineSet
EndChar

StartChar: uniFE8C
Encoding: 65164 65164 76
Width: 419
GlyphClass: 2
Flags: W
LayerCount: 2
Fore
SplineSet
423 50 m 1,0,-1
 421 50 l 2,1,2
 412 50 412 50 412 61 c 0,3,4
 412 69 412 69 418 85 c 1,5,6
 348 56 348 56 218.5 32 c 128,-1,7
 89 8 89 8 0 0 c 1,8,-1
 119 275 l 1,9,10
 157 278 157 278 292 287 c 128,-1,11
 427 296 427 296 517 346 c 0,12,13
 577 380 577 380 604 446 c 1,14,15
 609 453 609 453 612 453 c 256,16,17
 615 453 615 453 615 442 c 0,18,19
 615 423 615 423 613 418 c 0,20,21
 590 346 590 346 545 239 c 128,-1,22
 500 132 500 132 423 50 c 1,0,-1
560 918 m 2,23,24
 547 891 547 891 515.5 877.5 c 128,-1,25
 484 864 484 864 461 833 c 1,26,27
 479 811 479 811 510 803 c 128,-1,28
 541 795 541 795 565 780 c 0,29,30
 592 762 592 762 592 733 c 0,31,32
 592 716 592 716 584 697 c 0,33,34
 561 642 561 642 505 603 c 1,35,36
 457 568 457 568 404.5 559.5 c 128,-1,37
 352 551 352 551 297 542 c 1,38,39
 344 563 344 563 393.5 584 c 128,-1,40
 443 605 443 605 487 630 c 0,41,42
 501 639 501 639 501 646 c 0,43,44
 501 649 501 649 497 652 c 0,45,46
 480 662 480 662 458 671.5 c 128,-1,47
 436 681 436 681 419 691 c 0,48,49
 382 711 382 711 382 747 c 0,50,51
 382 785 382 785 426 842 c 0,52,53
 510 951 510 951 550 982 c 0,54,55
 567 995 567 995 603 1011 c 1,56,-1
 560 918 l 2,23,24
EndSplineSet
EndChar

StartChar: uniFE8E
Encoding: 65166 65166 77
Width: 217
GlyphClass: 2
Flags: W
LayerCount: 2
Fore
SplineSet
137 1167 m 1,0,-1
 266 1407 l 1,1,-1
 344 282 l 1,2,-1
 217 0 l 1,3,-1
 137 1167 l 1,0,-1
EndSplineSet
EndChar

StartChar: uniFE90
Encoding: 65168 65168 78
Width: 1257
GlyphClass: 2
Flags: W
LayerCount: 2
Fore
SplineSet
18 213 m 0,0,1
 -2 267 -2 267 -2 326 c 0,2,3
 -2 409 -2 409 39 501 c 0,4,5
 109 657 109 657 184 776 c 1,6,7
 197 794 197 794 211 794 c 0,8,9
 216 794 216 794 221 792 c 0,10,11
 232 787 232 787 232 774 c 0,12,13
 232 765 232 765 226 751 c 1,14,15
 149 609 149 609 145 513 c 1,16,-1
 145 498 l 2,17,18
 145 413 145 413 189 360 c 0,19,20
 241 297 241 297 370 277 c 0,21,22
 469 261 469 261 578 261 c 0,23,24
 609 261 609 261 642 262 c 0,25,26
 786 268 786 268 916 293.5 c 128,-1,27
 1046 319 1046 319 1100 349 c 0,28,29
 1159 381 1159 381 1187 449 c 1,30,31
 1192 456 1192 456 1195 456 c 256,32,33
 1198 456 1198 456 1198 445 c 0,34,35
 1198 426 1198 426 1196 421 c 0,36,37
 1173 349 1173 349 1128 241.5 c 128,-1,38
 1083 134 1083 134 1006 53 c 1,39,-1
 1004 53 l 2,40,41
 997 53 997 53 997 64 c 0,42,43
 997 73 997 73 1001 88 c 1,44,45
 908 50 908 50 759 24 c 0,46,47
 631 1 631 1 502 1 c 0,48,49
 480 1 480 1 459 2 c 0,50,51
 308 6 308 6 183.5 53.5 c 128,-1,52
 59 101 59 101 18 213 c 0,0,1
689 -194 m 1,53,54
 647 -248 647 -248 605 -300 c 128,-1,55
 563 -352 563 -352 521 -404 c 1,56,-1
 377 -269 l 1,57,58
 418 -216 418 -216 460.5 -164 c 128,-1,59
 503 -112 503 -112 545 -59 c 1,60,-1
 689 -194 l 1,53,54
EndSplineSet
EndChar

StartChar: uniFE91
Encoding: 65169 65169 79
Width: 604
GlyphClass: 2
Flags: W
LayerCount: 2
Fore
SplineSet
562 506 m 0,0,1
 550 406 550 406 494.5 296 c 128,-1,2
 439 186 439 186 364 121 c 0,3,4
 298 63 298 63 210.5 37.5 c 128,-1,5
 123 12 123 12 0 0 c 1,6,-1
 119 275 l 1,7,-1
 121 275 l 1,8,9
 208 285 208 285 281.5 299 c 128,-1,10
 355 313 355 313 412 352 c 1,11,12
 411 394 411 394 390 463.5 c 128,-1,13
 369 533 369 533 349 593 c 1,14,-1
 506 825 l 1,15,-1
 541 733 l 2,16,17
 566 667 566 667 566 580 c 0,18,19
 566 545 566 545 562 506 c 0,0,1
468 -194 m 1,20,21
 426 -248 426 -248 384 -300 c 128,-1,22
 342 -352 342 -352 300 -404 c 1,23,-1
 156 -269 l 1,24,25
 197 -216 197 -216 239.5 -164 c 128,-1,26
 282 -112 282 -112 324 -59 c 1,27,-1
 468 -194 l 1,20,21
EndSplineSet
EndChar

StartChar: uniFE92
Encoding: 65170 65170 80
Width: 419
GlyphClass: 2
Flags: W
LayerCount: 2
Fore
SplineSet
423 50 m 1,0,-1
 421 50 l 2,1,2
 412 50 412 50 412 61 c 0,3,4
 412 69 412 69 418 85 c 1,5,6
 348 56 348 56 218.5 32 c 128,-1,7
 89 8 89 8 0 0 c 1,8,-1
 119 275 l 1,9,10
 157 278 157 278 292 287 c 128,-1,11
 427 296 427 296 517 346 c 0,12,13
 577 380 577 380 604 446 c 1,14,15
 609 453 609 453 612 453 c 256,16,17
 615 453 615 453 615 442 c 0,18,19
 615 423 615 423 613 418 c 0,20,21
 590 346 590 346 545 239 c 128,-1,22
 500 132 500 132 423 50 c 1,0,-1
390 -194 m 1,23,24
 348 -248 348 -248 306 -300 c 128,-1,25
 264 -352 264 -352 222 -404 c 1,26,-1
 78 -269 l 1,27,28
 119 -216 119 -216 161.5 -164 c 128,-1,29
 204 -112 204 -112 246 -59 c 1,30,-1
 390 -194 l 1,23,24
EndSplineSet
EndChar

StartChar: uniFE94
Encoding: 65172 65172 81
Width: 403
GlyphClass: 2
Flags: W
LayerCount: 2
Fore
SplineSet
519 825 m 1,0,-1
 556 285 l 1,1,-1
 403 3 l 1,2,-1
 377 391 l 1,3,4
 312 316 312 316 213 287 c 0,5,6
 186 279 186 279 160 279 c 0,7,8
 90 279 90 279 29 337 c 0,9,10
 1 364 1 364 1 411 c 0,11,12
 1 435 1 435 8 464 c 0,13,14
 29 551 29 551 77 645 c 128,-1,15
 125 739 125 739 181.5 819 c 128,-1,16
 238 899 238 899 266 925 c 0,17,18
 342 996 342 996 404 996 c 0,19,20
 424 996 424 996 442 989 c 0,21,22
 518 959 518 959 519 825 c 1,0,-1
293 742 m 0,23,24
 275 748 275 748 259 748 c 0,25,26
 229 748 229 748 205 728 c 0,27,28
 167 698 167 698 143 668 c 0,29,30
 132 654 132 654 132 639 c 0,31,32
 132 626 132 626 141 611 c 1,33,34
 163 567 163 567 223 550 c 0,35,36
 252 542 252 542 282 542 c 0,37,38
 314 542 314 542 347 551 c 1,39,40
 350 570 350 570 350 593 c 0,41,42
 350 624 350 624 345 662 c 0,43,44
 337 727 337 727 293 742 c 0,23,24
471 1147 m 1,45,46
 372 1129 372 1129 274 1110.5 c 128,-1,47
 176 1092 176 1092 78 1074 c 1,48,-1
 200 1318 l 1,49,50
 414 1356 414 1356 594 1391 c 1,51,-1
 471 1147 l 1,45,46
EndSplineSet
EndChar

StartChar: uniFE96
Encoding: 65174 65174 82
Width: 1257
GlyphClass: 2
Flags: W
LayerCount: 2
Fore
SplineSet
18 213 m 0,0,1
 -2 267 -2 267 -2 326 c 0,2,3
 -2 409 -2 409 39 501 c 0,4,5
 109 657 109 657 184 776 c 1,6,7
 197 794 197 794 211 794 c 0,8,9
 216 794 216 794 221 792 c 0,10,11
 232 787 232 787 232 774 c 0,12,13
 232 765 232 765 226 751 c 1,14,15
 149 609 149 609 145 513 c 1,16,-1
 145 498 l 2,17,18
 145 413 145 413 189 360 c 0,19,20
 241 297 241 297 370 277 c 0,21,22
 469 261 469 261 578 261 c 0,23,24
 609 261 609 261 642 262 c 0,25,26
 786 268 786 268 916 293.5 c 128,-1,27
 1046 319 1046 319 1100 349 c 0,28,29
 1159 381 1159 381 1187 449 c 1,30,31
 1192 456 1192 456 1195 456 c 256,32,33
 1198 456 1198 456 1198 445 c 0,34,35
 1198 426 1198 426 1196 421 c 0,36,37
 1173 349 1173 349 1128 241.5 c 128,-1,38
 1083 134 1083 134 1006 53 c 1,39,-1
 1004 53 l 2,40,41
 997 53 997 53 997 64 c 0,42,43
 997 73 997 73 1001 88 c 1,44,45
 908 50 908 50 759 24 c 0,46,47
 631 1 631 1 502 1 c 0,48,49
 480 1 480 1 459 2 c 0,50,51
 308 6 308 6 183.5 53.5 c 128,-1,52
 59 101 59 101 18 213 c 0,0,1
903 780 m 1,53,54
 804 762 804 762 706 743.5 c 128,-1,55
 608 725 608 725 510 707 c 1,56,-1
 632 951 l 1,57,58
 846 989 846 989 1026 1024 c 1,59,-1
 903 780 l 1,53,54
EndSplineSet
EndChar

StartChar: uniFE97
Encoding: 65175 65175 83
Width: 604
GlyphClass: 2
Flags: W
LayerCount: 2
Fore
SplineSet
562 506 m 0,0,1
 550 406 550 406 494.5 296 c 128,-1,2
 439 186 439 186 364 121 c 0,3,4
 298 63 298 63 210.5 37.5 c 128,-1,5
 123 12 123 12 0 0 c 1,6,-1
 119 275 l 1,7,-1
 121 275 l 1,8,9
 208 285 208 285 281.5 299 c 128,-1,10
 355 313 355 313 412 352 c 1,11,12
 411 394 411 394 390 463.5 c 128,-1,13
 369 533 369 533 349 593 c 1,14,-1
 506 825 l 1,15,-1
 541 733 l 2,16,17
 566 667 566 667 566 580 c 0,18,19
 566 545 566 545 562 506 c 0,0,1
535 982 m 1,20,21
 436 964 436 964 338 945.5 c 128,-1,22
 240 927 240 927 142 909 c 1,23,-1
 264 1153 l 1,24,25
 478 1191 478 1191 658 1226 c 1,26,-1
 535 982 l 1,20,21
EndSplineSet
EndChar

StartChar: uniFE98
Encoding: 65176 65176 84
Width: 419
GlyphClass: 2
Flags: W
LayerCount: 2
Fore
SplineSet
423 50 m 1,0,-1
 421 50 l 2,1,2
 412 50 412 50 412 61 c 0,3,4
 412 69 412 69 418 85 c 1,5,6
 348 56 348 56 218.5 32 c 128,-1,7
 89 8 89 8 0 0 c 1,8,-1
 119 275 l 1,9,10
 157 278 157 278 292 287 c 128,-1,11
 427 296 427 296 517 346 c 0,12,13
 577 380 577 380 604 446 c 1,14,15
 609 453 609 453 612 453 c 256,16,17
 615 453 615 453 615 442 c 0,18,19
 615 423 615 423 613 418 c 0,20,21
 590 346 590 346 545 239 c 128,-1,22
 500 132 500 132 423 50 c 1,0,-1
613 702 m 1,23,24
 514 684 514 684 416 665.5 c 128,-1,25
 318 647 318 647 220 629 c 1,26,-1
 342 873 l 1,27,28
 556 911 556 911 736 946 c 1,29,-1
 613 702 l 1,23,24
EndSplineSet
EndChar

StartChar: uniFE9A
Encoding: 65178 65178 85
Width: 1257
GlyphClass: 2
Flags: W
LayerCount: 2
Fore
SplineSet
18 213 m 0,0,1
 -2 267 -2 267 -2 326 c 0,2,3
 -2 409 -2 409 39 501 c 0,4,5
 109 657 109 657 184 776 c 1,6,7
 197 794 197 794 211 794 c 0,8,9
 216 794 216 794 221 792 c 0,10,11
 232 787 232 787 232 774 c 0,12,13
 232 765 232 765 226 751 c 1,14,15
 149 609 149 609 145 513 c 1,16,-1
 145 498 l 2,17,18
 145 413 145 413 189 360 c 0,19,20
 241 297 241 297 370 277 c 0,21,22
 469 261 469 261 578 261 c 0,23,24
 609 261 609 261 642 262 c 0,25,26
 786 268 786 268 916 293.5 c 128,-1,27
 1046 319 1046 319 1100 349 c 0,28,29
 1159 381 1159 381 1187 449 c 1,30,31
 1192 456 1192 456 1195 456 c 256,32,33
 1198 456 1198 456 1198 445 c 0,34,35
 1198 426 1198 426 1196 421 c 0,36,37
 1173 349 1173 349 1128 241.5 c 128,-1,38
 1083 134 1083 134 1006 53 c 1,39,-1
 1004 53 l 2,40,41
 997 53 997 53 997 64 c 0,42,43
 997 73 997 73 1001 88 c 1,44,45
 908 50 908 50 759 24 c 0,46,47
 631 1 631 1 502 1 c 0,48,49
 480 1 480 1 459 2 c 0,50,51
 308 6 308 6 183.5 53.5 c 128,-1,52
 59 101 59 101 18 213 c 0,0,1
1021 1024 m 1,53,54
 991 961 991 961 951.5 902.5 c 128,-1,55
 912 844 912 844 871 791 c 0,56,57
 864 782 864 782 857 782 c 0,58,59
 848 782 848 782 840 802 c 0,60,61
 797 908 797 908 745 908 c 2,62,-1
 739 908 l 1,63,64
 683 901 683 901 630.5 841.5 c 128,-1,65
 578 782 578 782 535.5 705 c 128,-1,66
 493 628 493 628 474 602 c 1,67,-1
 473 691 l 1,68,-1
 475 694 l 1,69,70
 501 745 501 745 553.5 835 c 128,-1,71
 606 925 606 925 670 1010 c 0,72,73
 733 1094 733 1094 803 1143 c 1,74,75
 832 1162 832 1162 861 1162 c 0,76,77
 904 1162 904 1162 949 1121 c 1,78,79
 989 1082 989 1082 1021 1024 c 1,53,54
EndSplineSet
EndChar

StartChar: uniFE9B
Encoding: 65179 65179 86
Width: 604
GlyphClass: 2
Flags: W
LayerCount: 2
Fore
SplineSet
562 506 m 0,0,1
 550 406 550 406 494.5 296 c 128,-1,2
 439 186 439 186 364 121 c 0,3,4
 298 63 298 63 210.5 37.5 c 128,-1,5
 123 12 123 12 0 0 c 1,6,-1
 119 275 l 1,7,-1
 121 275 l 1,8,9
 208 285 208 285 281.5 299 c 128,-1,10
 355 313 355 313 412 352 c 1,11,12
 411 394 411 394 390 463.5 c 128,-1,13
 369 533 369 533 349 593 c 1,14,-1
 506 825 l 1,15,-1
 541 733 l 2,16,17
 566 667 566 667 566 580 c 0,18,19
 566 545 566 545 562 506 c 0,0,1
622 1230 m 1,20,21
 592 1167 592 1167 552.5 1108.5 c 128,-1,22
 513 1050 513 1050 472 997 c 0,23,24
 465 988 465 988 458 988 c 0,25,26
 449 988 449 988 441 1008 c 0,27,28
 398 1114 398 1114 346 1114 c 2,29,-1
 340 1114 l 1,30,31
 284 1107 284 1107 231.5 1047.5 c 128,-1,32
 179 988 179 988 136.5 911 c 128,-1,33
 94 834 94 834 75 808 c 1,34,-1
 74 897 l 1,35,-1
 76 900 l 1,36,37
 102 951 102 951 154.5 1041 c 128,-1,38
 207 1131 207 1131 271 1216 c 0,39,40
 334 1300 334 1300 404 1349 c 1,41,42
 433 1368 433 1368 462 1368 c 0,43,44
 505 1368 505 1368 550 1327 c 1,45,46
 590 1288 590 1288 622 1230 c 1,20,21
EndSplineSet
EndChar

StartChar: uniFE9C
Encoding: 65180 65180 87
Width: 419
GlyphClass: 2
Flags: W
LayerCount: 2
Fore
SplineSet
423 50 m 1,0,-1
 421 50 l 2,1,2
 412 50 412 50 412 61 c 0,3,4
 412 69 412 69 418 85 c 1,5,6
 348 56 348 56 218.5 32 c 128,-1,7
 89 8 89 8 0 0 c 1,8,-1
 119 275 l 1,9,10
 157 278 157 278 292 287 c 128,-1,11
 427 296 427 296 517 346 c 0,12,13
 577 380 577 380 604 446 c 1,14,15
 609 453 609 453 612 453 c 256,16,17
 615 453 615 453 615 442 c 0,18,19
 615 423 615 423 613 418 c 0,20,21
 590 346 590 346 545 239 c 128,-1,22
 500 132 500 132 423 50 c 1,0,-1
755 904 m 1,23,24
 725 841 725 841 685.5 782.5 c 128,-1,25
 646 724 646 724 605 671 c 0,26,27
 598 662 598 662 591 662 c 0,28,29
 582 662 582 662 574 682 c 0,30,31
 531 788 531 788 479 788 c 2,32,-1
 473 788 l 1,33,34
 417 781 417 781 364.5 721.5 c 128,-1,35
 312 662 312 662 269.5 585 c 128,-1,36
 227 508 227 508 208 482 c 1,37,-1
 207 571 l 1,38,-1
 209 574 l 1,39,40
 235 625 235 625 287.5 715 c 128,-1,41
 340 805 340 805 404 890 c 0,42,43
 467 974 467 974 537 1023 c 1,44,45
 566 1042 566 1042 595 1042 c 0,46,47
 638 1042 638 1042 683 1001 c 1,48,49
 723 962 723 962 755 904 c 1,23,24
EndSplineSet
EndChar

StartChar: uniFE9E
Encoding: 65182 65182 88
Width: 387
GlyphClass: 2
Flags: W
LayerCount: 2
Fore
SplineSet
793 809 m 1,0,1
 783 836 783 836 777 838 c 0,2,3
 681 859 681 859 564 859.5 c 128,-1,4
 447 860 447 860 372 848 c 1,5,6
 336 840 336 840 333 880.5 c 128,-1,7
 330 921 330 921 341.5 975 c 128,-1,8
 353 1029 353 1029 369 1078 c 128,-1,9
 385 1127 385 1127 387 1136 c 1,10,11
 468 1146 468 1146 635 1147 c 128,-1,12
 802 1148 802 1148 878 1118 c 1,13,14
 979 1076 979 1076 923.5 918.5 c 128,-1,15
 868 761 868 761 827 703 c 1,16,17
 776 633 776 633 714 575 c 128,-1,18
 652 517 652 517 592 464 c 0,19,20
 549 426 549 426 449.5 336 c 128,-1,21
 350 246 350 246 260 139.5 c 128,-1,22
 170 33 170 33 121.5 -72 c 128,-1,23
 73 -177 73 -177 133 -245 c 0,24,25
 237 -362 237 -362 382.5 -412 c 128,-1,26
 528 -462 528 -462 687 -467.5 c 128,-1,27
 846 -473 846 -473 1006 -446 c 128,-1,28
 1166 -419 1166 -419 1300 -385 c 0,29,30
 1308 -382 1308 -382 1321 -380 c 128,-1,31
 1334 -378 1334 -378 1328 -385 c 0,32,33
 1203 -536 1203 -536 997.5 -631.5 c 128,-1,34
 792 -727 792 -727 586.5 -741 c 128,-1,35
 381 -755 381 -755 217 -674.5 c 128,-1,36
 53 -594 53 -594 11 -393 c 0,37,38
 -34 -176 -34 -176 100.5 94 c 128,-1,39
 235 364 235 364 373 491 c 1,40,-1
 534 617 l 1,41,42
 596 662 596 662 668 711 c 128,-1,43
 740 760 740 760 793 809 c 1,0,1
929 155 m 1,44,45
 887 101 887 101 845 49 c 128,-1,46
 803 -3 803 -3 761 -55 c 1,47,-1
 617 80 l 1,48,49
 658 133 658 133 700.5 185 c 128,-1,50
 743 237 743 237 785 290 c 1,51,-1
 929 155 l 1,44,45
EndSplineSet
EndChar

StartChar: uniFE9F
Encoding: 65183 65183 89
Width: 1143
GlyphClass: 2
Flags: W
LayerCount: 2
Fore
SplineSet
765 405 m 0,0,1
 734 477 734 477 691 511 c 0,2,3
 660 535 660 535 631 535 c 0,4,5
 601 535 601 535 573 510 c 0,6,7
 531 473 531 473 508.5 424.5 c 128,-1,8
 486 376 486 376 465 324 c 1,9,-1
 755 381 l 2,10,11
 767 384 767 384 767 394 c 0,12,13
 767 399 767 399 765 405 c 0,0,1
128 277 m 1,14,-1
 130 277 l 1,15,-1
 134 278 l 1,16,-1
 414 320 l 1,17,18
 433 374 433 374 471 463.5 c 128,-1,19
 509 553 509 553 561.5 631 c 128,-1,20
 614 709 614 709 679 754 c 0,21,22
 715 778 715 778 754 778 c 0,23,24
 785 778 785 778 818 762 c 0,25,26
 878 733 878 733 913 669.5 c 128,-1,27
 948 606 948 606 971 529 c 1,28,29
 999 498 999 498 1036 498 c 0,30,31
 1061 498 1061 498 1089 512 c 1,32,-1
 958 230 l 1,33,34
 811 184 811 184 671 153.5 c 128,-1,35
 531 123 531 123 369 82 c 1,36,37
 359 62 359 62 351 23.5 c 128,-1,38
 343 -15 343 -15 317 -24 c 0,39,40
 313 -25 313 -25 310 -25 c 0,41,42
 297 -25 297 -25 297 -12 c 0,43,44
 297 -9 297 -9 298 -5 c 0,45,46
 300 7 300 7 305 28.5 c 128,-1,47
 310 50 310 50 313 66 c 1,48,49
 265 56 265 56 199 44 c 1,50,-1
 198 41 l 1,51,52
 132 29 132 29 67 16 c 0,53,54
 61 14 61 14 56 12.5 c 128,-1,55
 51 11 51 11 46 10 c 1,56,-1
 46 11 l 1,57,58
 34 8 34 8 23 5.5 c 128,-1,59
 12 3 12 3 0 1 c 1,60,-1
 128 277 l 1,14,-1
709 -151 m 1,61,62
 667 -205 667 -205 625 -257 c 128,-1,63
 583 -309 583 -309 541 -361 c 1,64,-1
 397 -226 l 1,65,66
 438 -173 438 -173 480.5 -121 c 128,-1,67
 523 -69 523 -69 565 -16 c 1,68,-1
 709 -151 l 1,61,62
EndSplineSet
EndChar

StartChar: uniFEA0
Encoding: 65184 65184 90
Width: 1052
GlyphClass: 2
Flags: W
LayerCount: 2
Fore
SplineSet
805 488 m 0,0,1
 822 496 822 496 827 506 c 1,2,3
 823 524 823 524 799 535 c 1,4,5
 721 563 721 563 638 580 c 128,-1,6
 555 597 555 597 469 617 c 1,7,8
 460 618 460 618 460 629 c 0,9,10
 460 639 460 639 467 656 c 0,11,12
 491 714 491 714 519.5 769.5 c 128,-1,13
 548 825 548 825 577 885 c 1,14,-1
 579 885 l 1,15,16
 648 868 648 868 787 836 c 128,-1,17
 926 804 926 804 982 761 c 0,18,19
 998 748 998 748 1000 725 c 1,20,-1
 1000 715 l 2,21,22
 1000 678 1000 678 987 652 c 0,23,24
 972 622 972 622 957 593 c 0,25,26
 932 541 932 541 903.5 495.5 c 128,-1,27
 875 450 875 450 845 403 c 0,28,29
 695 175 695 175 477.5 115 c 128,-1,30
 260 55 260 55 47 11 c 0,31,32
 32 8 32 8 0 0 c 1,33,-1
 128 276 l 1,34,-1
 130 277 l 1,35,-1
 133 277 l 1,36,-1
 134 279 l 1,37,38
 332 308 332 308 462.5 341.5 c 128,-1,39
 593 375 593 375 805 488 c 0,0,1
775 -106 m 1,40,41
 733 -160 733 -160 691 -212 c 128,-1,42
 649 -264 649 -264 607 -316 c 1,43,-1
 463 -181 l 1,44,45
 504 -128 504 -128 546.5 -76 c 128,-1,46
 589 -24 589 -24 631 29 c 1,47,-1
 775 -106 l 1,40,41
EndSplineSet
EndChar

StartChar: uniFEA2
Encoding: 65186 65186 91
Width: 387
GlyphClass: 2
Flags: W
LayerCount: 2
Fore
SplineSet
793 809 m 1,0,1
 783 836 783 836 777 838 c 0,2,3
 681 859 681 859 564 859.5 c 128,-1,4
 447 860 447 860 372 848 c 1,5,6
 336 840 336 840 333 880.5 c 128,-1,7
 330 921 330 921 341.5 975 c 128,-1,8
 353 1029 353 1029 369 1078 c 128,-1,9
 385 1127 385 1127 387 1136 c 1,10,11
 468 1146 468 1146 635 1147 c 128,-1,12
 802 1148 802 1148 878 1118 c 1,13,14
 979 1076 979 1076 923.5 918.5 c 128,-1,15
 868 761 868 761 827 703 c 1,16,17
 776 633 776 633 714 575 c 128,-1,18
 652 517 652 517 592 464 c 0,19,20
 549 426 549 426 449.5 336 c 128,-1,21
 350 246 350 246 260 139.5 c 128,-1,22
 170 33 170 33 121.5 -72 c 128,-1,23
 73 -177 73 -177 133 -245 c 0,24,25
 237 -362 237 -362 382.5 -412 c 128,-1,26
 528 -462 528 -462 687 -467.5 c 128,-1,27
 846 -473 846 -473 1006 -446 c 128,-1,28
 1166 -419 1166 -419 1300 -385 c 0,29,30
 1308 -382 1308 -382 1321 -380 c 128,-1,31
 1334 -378 1334 -378 1328 -385 c 0,32,33
 1203 -536 1203 -536 997.5 -631.5 c 128,-1,34
 792 -727 792 -727 586.5 -741 c 128,-1,35
 381 -755 381 -755 217 -674.5 c 128,-1,36
 53 -594 53 -594 11 -393 c 0,37,38
 -34 -176 -34 -176 100.5 94 c 128,-1,39
 235 364 235 364 373 491 c 1,40,-1
 534 617 l 1,41,42
 596 662 596 662 668 711 c 128,-1,43
 740 760 740 760 793 809 c 1,0,1
EndSplineSet
EndChar

StartChar: uniFEA3
Encoding: 65187 65187 92
Width: 1143
GlyphClass: 2
Flags: W
LayerCount: 2
Fore
SplineSet
765 405 m 0,0,1
 734 477 734 477 691 511 c 0,2,3
 660 535 660 535 631 535 c 0,4,5
 601 535 601 535 573 510 c 0,6,7
 531 473 531 473 508.5 424.5 c 128,-1,8
 486 376 486 376 465 324 c 1,9,-1
 755 381 l 2,10,11
 767 384 767 384 767 394 c 0,12,13
 767 399 767 399 765 405 c 0,0,1
128 277 m 1,14,-1
 130 277 l 1,15,-1
 134 278 l 1,16,-1
 414 320 l 1,17,18
 433 374 433 374 471 463.5 c 128,-1,19
 509 553 509 553 561.5 631 c 128,-1,20
 614 709 614 709 679 754 c 0,21,22
 715 778 715 778 754 778 c 0,23,24
 785 778 785 778 818 762 c 0,25,26
 878 733 878 733 913 669.5 c 128,-1,27
 948 606 948 606 971 529 c 1,28,29
 999 498 999 498 1036 498 c 0,30,31
 1061 498 1061 498 1089 512 c 1,32,-1
 958 230 l 1,33,34
 811 184 811 184 671 153.5 c 128,-1,35
 531 123 531 123 369 82 c 1,36,37
 359 62 359 62 351 23.5 c 128,-1,38
 343 -15 343 -15 317 -24 c 0,39,40
 313 -25 313 -25 310 -25 c 0,41,42
 297 -25 297 -25 297 -12 c 0,43,44
 297 -9 297 -9 298 -5 c 0,45,46
 300 7 300 7 305 28.5 c 128,-1,47
 310 50 310 50 313 66 c 1,48,49
 265 56 265 56 199 44 c 1,50,-1
 198 41 l 1,51,52
 132 29 132 29 67 16 c 0,53,54
 61 14 61 14 56 12.5 c 128,-1,55
 51 11 51 11 46 10 c 1,56,-1
 46 11 l 1,57,58
 34 8 34 8 23 5.5 c 128,-1,59
 12 3 12 3 0 1 c 1,60,-1
 128 277 l 1,14,-1
EndSplineSet
EndChar

StartChar: uniFEA4
Encoding: 65188 65188 93
Width: 1052
GlyphClass: 2
Flags: W
LayerCount: 2
Fore
SplineSet
805 488 m 0,0,1
 822 496 822 496 827 506 c 1,2,3
 823 524 823 524 799 535 c 1,4,5
 721 563 721 563 638 580 c 128,-1,6
 555 597 555 597 469 617 c 1,7,8
 460 618 460 618 460 629 c 0,9,10
 460 639 460 639 467 656 c 0,11,12
 491 714 491 714 519.5 769.5 c 128,-1,13
 548 825 548 825 577 885 c 1,14,-1
 579 885 l 1,15,16
 648 868 648 868 787 836 c 128,-1,17
 926 804 926 804 982 761 c 0,18,19
 998 748 998 748 1000 725 c 1,20,-1
 1000 715 l 2,21,22
 1000 678 1000 678 987 652 c 0,23,24
 972 622 972 622 957 593 c 0,25,26
 932 541 932 541 903.5 495.5 c 128,-1,27
 875 450 875 450 845 403 c 0,28,29
 695 175 695 175 477.5 115 c 128,-1,30
 260 55 260 55 47 11 c 0,31,32
 32 8 32 8 0 0 c 1,33,-1
 128 276 l 1,34,-1
 130 277 l 1,35,-1
 133 277 l 1,36,-1
 134 279 l 1,37,38
 332 308 332 308 462.5 341.5 c 128,-1,39
 593 375 593 375 805 488 c 0,0,1
EndSplineSet
EndChar

StartChar: uniFEA6
Encoding: 65190 65190 94
Width: 387
GlyphClass: 2
Flags: W
LayerCount: 2
Fore
SplineSet
793 809 m 1,0,1
 783 836 783 836 777 838 c 0,2,3
 681 859 681 859 564 859.5 c 128,-1,4
 447 860 447 860 372 848 c 1,5,6
 336 840 336 840 333 880.5 c 128,-1,7
 330 921 330 921 341.5 975 c 128,-1,8
 353 1029 353 1029 369 1078 c 128,-1,9
 385 1127 385 1127 387 1136 c 1,10,11
 468 1146 468 1146 635 1147 c 128,-1,12
 802 1148 802 1148 878 1118 c 1,13,14
 979 1076 979 1076 923.5 918.5 c 128,-1,15
 868 761 868 761 827 703 c 1,16,17
 776 633 776 633 714 575 c 128,-1,18
 652 517 652 517 592 464 c 0,19,20
 549 426 549 426 449.5 336 c 128,-1,21
 350 246 350 246 260 139.5 c 128,-1,22
 170 33 170 33 121.5 -72 c 128,-1,23
 73 -177 73 -177 133 -245 c 0,24,25
 237 -362 237 -362 382.5 -412 c 128,-1,26
 528 -462 528 -462 687 -467.5 c 128,-1,27
 846 -473 846 -473 1006 -446 c 128,-1,28
 1166 -419 1166 -419 1300 -385 c 0,29,30
 1308 -382 1308 -382 1321 -380 c 128,-1,31
 1334 -378 1334 -378 1328 -385 c 0,32,33
 1203 -536 1203 -536 997.5 -631.5 c 128,-1,34
 792 -727 792 -727 586.5 -741 c 128,-1,35
 381 -755 381 -755 217 -674.5 c 128,-1,36
 53 -594 53 -594 11 -393 c 0,37,38
 -34 -176 -34 -176 100.5 94 c 128,-1,39
 235 364 235 364 373 491 c 1,40,-1
 534 617 l 1,41,42
 596 662 596 662 668 711 c 128,-1,43
 740 760 740 760 793 809 c 1,0,1
767 1472 m 1,44,45
 725 1418 725 1418 683 1366 c 128,-1,46
 641 1314 641 1314 599 1262 c 1,47,-1
 455 1397 l 1,48,49
 496 1450 496 1450 538.5 1502 c 128,-1,50
 581 1554 581 1554 623 1607 c 1,51,-1
 767 1472 l 1,44,45
EndSplineSet
EndChar

StartChar: uniFEA7
Encoding: 65191 65191 95
Width: 1143
GlyphClass: 2
Flags: W
LayerCount: 2
Fore
SplineSet
765 405 m 0,0,1
 734 477 734 477 691 511 c 0,2,3
 660 535 660 535 631 535 c 0,4,5
 601 535 601 535 573 510 c 0,6,7
 531 473 531 473 508.5 424.5 c 128,-1,8
 486 376 486 376 465 324 c 1,9,-1
 755 381 l 2,10,11
 767 384 767 384 767 394 c 0,12,13
 767 399 767 399 765 405 c 0,0,1
128 277 m 1,14,-1
 130 277 l 1,15,-1
 134 278 l 1,16,-1
 414 320 l 1,17,18
 433 374 433 374 471 463.5 c 128,-1,19
 509 553 509 553 561.5 631 c 128,-1,20
 614 709 614 709 679 754 c 0,21,22
 715 778 715 778 754 778 c 0,23,24
 785 778 785 778 818 762 c 0,25,26
 878 733 878 733 913 669.5 c 128,-1,27
 948 606 948 606 971 529 c 1,28,29
 999 498 999 498 1036 498 c 0,30,31
 1061 498 1061 498 1089 512 c 1,32,-1
 958 230 l 1,33,34
 811 184 811 184 671 153.5 c 128,-1,35
 531 123 531 123 369 82 c 1,36,37
 359 62 359 62 351 23.5 c 128,-1,38
 343 -15 343 -15 317 -24 c 0,39,40
 313 -25 313 -25 310 -25 c 0,41,42
 297 -25 297 -25 297 -12 c 0,43,44
 297 -9 297 -9 298 -5 c 0,45,46
 300 7 300 7 305 28.5 c 128,-1,47
 310 50 310 50 313 66 c 1,48,49
 265 56 265 56 199 44 c 1,50,-1
 198 41 l 1,51,52
 132 29 132 29 67 16 c 0,53,54
 61 14 61 14 56 12.5 c 128,-1,55
 51 11 51 11 46 10 c 1,56,-1
 46 11 l 1,57,58
 34 8 34 8 23 5.5 c 128,-1,59
 12 3 12 3 0 1 c 1,60,-1
 128 277 l 1,14,-1
897 1142 m 1,61,62
 855 1088 855 1088 813 1036 c 128,-1,63
 771 984 771 984 729 932 c 1,64,-1
 585 1067 l 1,65,66
 626 1120 626 1120 668.5 1172 c 128,-1,67
 711 1224 711 1224 753 1277 c 1,68,-1
 897 1142 l 1,61,62
EndSplineSet
EndChar

StartChar: uniFEA8
Encoding: 65192 65192 96
Width: 1052
GlyphClass: 2
Flags: W
LayerCount: 2
Fore
SplineSet
805 488 m 0,0,1
 822 496 822 496 827 506 c 1,2,3
 823 524 823 524 799 535 c 1,4,5
 721 563 721 563 638 580 c 128,-1,6
 555 597 555 597 469 617 c 1,7,8
 460 618 460 618 460 629 c 0,9,10
 460 639 460 639 467 656 c 0,11,12
 491 714 491 714 519.5 769.5 c 128,-1,13
 548 825 548 825 577 885 c 1,14,-1
 579 885 l 1,15,16
 648 868 648 868 787 836 c 128,-1,17
 926 804 926 804 982 761 c 0,18,19
 998 748 998 748 1000 725 c 1,20,-1
 1000 715 l 2,21,22
 1000 678 1000 678 987 652 c 0,23,24
 972 622 972 622 957 593 c 0,25,26
 932 541 932 541 903.5 495.5 c 128,-1,27
 875 450 875 450 845 403 c 0,28,29
 695 175 695 175 477.5 115 c 128,-1,30
 260 55 260 55 47 11 c 0,31,32
 32 8 32 8 0 0 c 1,33,-1
 128 276 l 1,34,-1
 130 277 l 1,35,-1
 133 277 l 1,36,-1
 134 279 l 1,37,38
 332 308 332 308 462.5 341.5 c 128,-1,39
 593 375 593 375 805 488 c 0,0,1
775 1320 m 1,40,41
 733 1266 733 1266 691 1214 c 128,-1,42
 649 1162 649 1162 607 1110 c 1,43,-1
 463 1245 l 1,44,45
 504 1298 504 1298 546.5 1350 c 128,-1,46
 589 1402 589 1402 631 1455 c 1,47,-1
 775 1320 l 1,40,41
EndSplineSet
EndChar

StartChar: uniFEAA
Encoding: 65194 65194 97
Width: 845
GlyphClass: 2
Flags: W
LayerCount: 2
Fore
SplineSet
767 249 m 1,0,1
 734 225 734 225 706.5 189.5 c 128,-1,2
 679 154 679 154 655 115 c 1,3,4
 590 16 590 16 502 3 c 0,5,6
 483 1 483 1 462 1 c 0,7,8
 397 1 397 1 319 25 c 0,9,10
 286 35 286 35 156.5 89 c 128,-1,11
 27 143 27 143 3 166 c 0,12,13
 -3 172 -3 172 -3 177 c 0,14,15
 -3 187 -3 187 17 192 c 0,16,17
 162 228 162 228 322 238.5 c 128,-1,18
 482 249 482 249 634 274 c 0,19,20
 690 284 690 284 734 323 c 1,21,22
 747 336 747 336 762 336 c 0,23,24
 766 336 766 336 770 335 c 0,25,26
 796 327 796 327 796 301 c 0,27,28
 796 292 796 292 793 281 c 0,29,30
 786 257 786 257 767 249 c 1,0,1
EndSplineSet
EndChar

StartChar: uniFEAC
Encoding: 65196 65196 98
Width: 845
GlyphClass: 2
Flags: W
LayerCount: 2
Fore
SplineSet
767 249 m 1,0,1
 734 225 734 225 706.5 189.5 c 128,-1,2
 679 154 679 154 655 115 c 1,3,4
 590 16 590 16 502 3 c 0,5,6
 483 1 483 1 462 1 c 0,7,8
 397 1 397 1 319 25 c 0,9,10
 286 35 286 35 156.5 89 c 128,-1,11
 27 143 27 143 3 166 c 0,12,13
 -3 172 -3 172 -3 177 c 0,14,15
 -3 187 -3 187 17 192 c 0,16,17
 162 228 162 228 322 238.5 c 128,-1,18
 482 249 482 249 634 274 c 0,19,20
 690 284 690 284 734 323 c 1,21,22
 747 336 747 336 762 336 c 0,23,24
 766 336 766 336 770 335 c 0,25,26
 796 327 796 327 796 301 c 0,27,28
 796 292 796 292 793 281 c 0,29,30
 786 257 786 257 767 249 c 1,0,1
936 881 m 1,31,32
 894 827 894 827 852 775 c 128,-1,33
 810 723 810 723 768 671 c 1,34,-1
 624 806 l 1,35,36
 665 859 665 859 707.5 911 c 128,-1,37
 750 963 750 963 792 1016 c 1,38,-1
 936 881 l 1,31,32
EndSplineSet
EndChar

StartChar: uniFEAE
Encoding: 65198 65198 99
Width: 769
GlyphClass: 2
Flags: W
LayerCount: 2
Fore
SplineSet
717 339 m 1,0,1
 677 288 677 288 646 179 c 1,2,3
 611 66 611 66 529 29 c 0,4,5
 463 0 463 0 355 0 c 2,6,-1
 348 0 l 1,7,8
 313 1 313 1 173.5 17.5 c 128,-1,9
 34 34 34 34 6 49 c 0,10,11
 -3 54 -3 54 -3 60 c 0,12,13
 -3 68 -3 68 12 77 c 0,14,15
 141 152 141 152 292 206 c 128,-1,16
 443 260 443 260 582 326 c 0,17,18
 633 350 633 350 665 401 c 0,19,20
 677 422 677 422 697 422 c 0,21,22
 733 422 733 422 733 377 c 0,23,24
 733 351 733 351 717 339 c 1,0,1
EndSplineSet
EndChar

StartChar: uniFEB0
Encoding: 65200 65200 100
Width: 769
GlyphClass: 2
Flags: W
LayerCount: 2
Fore
SplineSet
717 339 m 1,0,1
 677 288 677 288 646 179 c 1,2,3
 611 66 611 66 529 29 c 0,4,5
 463 0 463 0 355 0 c 2,6,-1
 348 0 l 1,7,8
 313 1 313 1 173.5 17.5 c 128,-1,9
 34 34 34 34 6 49 c 0,10,11
 -3 54 -3 54 -3 60 c 0,12,13
 -3 68 -3 68 12 77 c 0,14,15
 141 152 141 152 292 206 c 128,-1,16
 443 260 443 260 582 326 c 0,17,18
 633 350 633 350 665 401 c 0,19,20
 677 422 677 422 697 422 c 0,21,22
 733 422 733 422 733 377 c 0,23,24
 733 351 733 351 717 339 c 1,0,1
826 950 m 1,25,26
 784 896 784 896 742 844 c 128,-1,27
 700 792 700 792 658 740 c 1,28,-1
 514 875 l 1,29,30
 555 928 555 928 597.5 980 c 128,-1,31
 640 1032 640 1032 682 1085 c 1,32,-1
 826 950 l 1,25,26
EndSplineSet
EndChar

StartChar: uniFEB2
Encoding: 65202 65202 101
Width: 1412
GlyphClass: 2
Flags: W
LayerCount: 2
Fore
SplineSet
1345 1096 m 1,0,1
 1334 993 1334 993 1312 899 c 128,-1,2
 1290 805 1290 805 1239 739 c 0,3,4
 1207 697 1207 697 1153.5 676 c 128,-1,5
 1100 655 1100 655 1042 642 c 1,6,7
 1040 640 1040 640 1034 640 c 0,8,9
 1020 640 1020 640 1017 653 c 1,10,11
 1010 653 1010 653 1000 647 c 128,-1,12
 990 641 990 641 984 639 c 0,13,14
 923 608 923 608 873 593 c 1,15,16
 834 490 834 490 807 420.5 c 128,-1,17
 780 351 780 351 716 258 c 0,18,19
 603 96 603 96 432 33 c 0,20,21
 343 1 343 1 268 1 c 0,22,23
 198 1 198 1 139 30 c 0,24,25
 17 89 17 89 0 285 c 0,26,27
 -1 301 -1 301 -1 317 c 0,28,29
 -1 509 -1 509 179 838 c 0,30,31
 189 857 189 857 198 857 c 0,32,33
 201 857 201 857 204 856 c 0,34,35
 210 853 210 853 210 843 c 0,36,37
 210 832 210 832 203 814 c 1,38,39
 179 761 179 761 141.5 688 c 128,-1,40
 104 615 104 615 85 542 c 0,41,42
 75 501 75 501 75 463 c 0,43,44
 75 433 75 433 82 404 c 0,45,46
 97 340 97 340 179 305 c 1,47,48
 245 293 245 293 306 293 c 0,49,50
 413 293 413 293 508 330 c 0,51,52
 656 387 656 387 754 477 c 1,53,-1
 754 495 l 2,54,55
 754 562 754 562 742 621 c 1,56,57
 727 687 727 687 706 760 c 1,58,-1
 814 1031 l 1,59,60
 862 930 862 930 889 877 c 0,61,62
 897 860 897 860 921 860 c 0,63,64
 973 860 973 860 1097 938 c 1,65,66
 1116 952 1116 952 1126 979 c 128,-1,67
 1136 1006 1136 1006 1149 1028 c 1,68,69
 1153 1038 1153 1038 1156 1038 c 0,70,71
 1158 1038 1158 1038 1158 1027 c 2,72,-1
 1158 1010 l 2,73,74
 1158 964 1158 964 1145 918 c 1,75,76
 1299 945 1299 945 1334 1086 c 0,77,78
 1338 1103 1338 1103 1341 1103 c 0,79,80
 1343 1103 1343 1103 1345 1096 c 1,0,1
EndSplineSet
EndChar

StartChar: uniFEB3
Encoding: 65203 65203 102
Width: 1120
GlyphClass: 2
Flags: W
LayerCount: 2
Fore
SplineSet
1067 578 m 0,0,1
 990 342 990 342 873 96 c 0,2,3
 862 73 862 73 847 73 c 0,4,5
 838 73 838 73 828 81 c 0,6,7
 820 87 820 87 820 102 c 0,8,9
 820 116 820 116 827 138 c 0,10,11
 836 168 836 168 851.5 197 c 128,-1,12
 867 226 867 226 879 257 c 1,13,14
 729 189 729 189 548 146.5 c 128,-1,15
 367 104 367 104 205 58 c 2,16,-1
 0 0 l 1,17,-1
 109 287 l 1,18,19
 319 332 319 332 529.5 376.5 c 128,-1,20
 740 421 740 421 921 493 c 1,21,22
 1018 530 1018 530 1053 585 c 0,23,24
 1054 587 1054 587 1056 587 c 256,25,26
 1058 587 1058 587 1061 585 c 0,27,28
 1067 581 1067 581 1067 578 c 0,0,1
EndSplineSet
EndChar

StartChar: uniFEB4
Encoding: 65204 65204 103
Width: 1005
GlyphClass: 2
Flags: W
LayerCount: 2
Fore
SplineSet
412 117 m 1,0,1
 355 92 355 92 278 73 c 128,-1,2
 201 54 201 54 123 37 c 1,3,-1
 123 36 l 1,4,5
 72 22 72 22 0 0 c 1,6,-1
 107 285 l 1,7,-1
 109 286 l 1,8,-1
 112 287 l 1,9,-1
 112 286 l 1,10,11
 192 298 192 298 343 328 c 128,-1,12
 494 358 494 358 528 465 c 0,13,14
 529 469 529 469 530 469 c 0,15,16
 532 469 532 469 535 459 c 1,17,18
 538 443 538 443 539 437 c 1,19,-1
 539 429 l 2,20,21
 539 407 539 407 531 360 c 1,22,-1
 535 360 l 1,23,24
 586 361 586 361 632 382.5 c 128,-1,25
 678 404 678 404 711 430 c 0,26,27
 729 444 729 444 739 471 c 128,-1,28
 749 498 749 498 762 520 c 0,29,30
 766 527 766 527 768 527 c 0,31,32
 771 527 771 527 772 519 c 1,33,-1
 772 502 l 2,34,35
 772 456 772 456 759 410 c 1,36,37
 911 437 911 437 948 578 c 0,38,39
 950 587 950 587 954 589 c 0,40,41
 956 590 956 590 957 590 c 256,42,43
 958 590 958 590 958 588 c 0,44,45
 948 485 948 485 925.5 390.5 c 128,-1,46
 903 296 903 296 852 230 c 0,47,48
 827 197 827 197 757 164.5 c 128,-1,49
 687 132 687 132 648 132 c 0,50,51
 634 132 634 132 631 145 c 1,52,53
 623 145 623 145 613.5 139 c 128,-1,54
 604 133 604 133 598 130 c 0,55,56
 572 118 572 118 546 106 c 128,-1,57
 520 94 520 94 487 85 c 0,58,59
 469 80 469 80 455 80 c 0,60,61
 417 80 417 80 412 117 c 1,0,1
EndSplineSet
EndChar

StartChar: uniFEB6
Encoding: 65206 65206 104
Width: 1412
GlyphClass: 2
Flags: W
LayerCount: 2
Fore
SplineSet
1345 1096 m 1,0,1
 1334 993 1334 993 1312 899 c 128,-1,2
 1290 805 1290 805 1239 739 c 0,3,4
 1207 697 1207 697 1153.5 676 c 128,-1,5
 1100 655 1100 655 1042 642 c 1,6,7
 1040 640 1040 640 1034 640 c 0,8,9
 1020 640 1020 640 1017 653 c 1,10,11
 1010 653 1010 653 1000 647 c 128,-1,12
 990 641 990 641 984 639 c 0,13,14
 923 608 923 608 873 593 c 1,15,16
 834 490 834 490 807 420.5 c 128,-1,17
 780 351 780 351 716 258 c 0,18,19
 603 96 603 96 432 33 c 0,20,21
 343 1 343 1 268 1 c 0,22,23
 198 1 198 1 139 30 c 0,24,25
 17 89 17 89 0 285 c 0,26,27
 -1 301 -1 301 -1 317 c 0,28,29
 -1 509 -1 509 179 838 c 0,30,31
 189 857 189 857 198 857 c 0,32,33
 201 857 201 857 204 856 c 0,34,35
 210 853 210 853 210 843 c 0,36,37
 210 832 210 832 203 814 c 1,38,39
 179 761 179 761 141.5 688 c 128,-1,40
 104 615 104 615 85 542 c 0,41,42
 75 501 75 501 75 463 c 0,43,44
 75 433 75 433 82 404 c 0,45,46
 97 340 97 340 179 305 c 1,47,48
 245 293 245 293 306 293 c 0,49,50
 413 293 413 293 508 330 c 0,51,52
 656 387 656 387 754 477 c 1,53,-1
 754 495 l 2,54,55
 754 562 754 562 742 621 c 1,56,57
 727 687 727 687 706 760 c 1,58,-1
 814 1031 l 1,59,60
 862 930 862 930 889 877 c 0,61,62
 897 860 897 860 921 860 c 0,63,64
 973 860 973 860 1097 938 c 1,65,66
 1116 952 1116 952 1126 979 c 128,-1,67
 1136 1006 1136 1006 1149 1028 c 1,68,69
 1153 1038 1153 1038 1156 1038 c 0,70,71
 1158 1038 1158 1038 1158 1027 c 2,72,-1
 1158 1010 l 2,73,74
 1158 964 1158 964 1145 918 c 1,75,76
 1299 945 1299 945 1334 1086 c 0,77,78
 1338 1103 1338 1103 1341 1103 c 0,79,80
 1343 1103 1343 1103 1345 1096 c 1,0,1
1420 1612 m 1,81,82
 1390 1549 1390 1549 1350.5 1490.5 c 128,-1,83
 1311 1432 1311 1432 1270 1379 c 0,84,85
 1263 1370 1263 1370 1256 1370 c 0,86,87
 1247 1370 1247 1370 1239 1390 c 0,88,89
 1196 1496 1196 1496 1144 1496 c 2,90,-1
 1138 1496 l 1,91,92
 1082 1489 1082 1489 1029.5 1429.5 c 128,-1,93
 977 1370 977 1370 934.5 1293 c 128,-1,94
 892 1216 892 1216 873 1190 c 1,95,-1
 872 1279 l 1,96,-1
 874 1282 l 1,97,98
 900 1333 900 1333 952.5 1423 c 128,-1,99
 1005 1513 1005 1513 1069 1598 c 0,100,101
 1132 1682 1132 1682 1202 1731 c 1,102,103
 1231 1750 1231 1750 1260 1750 c 0,104,105
 1303 1750 1303 1750 1348 1709 c 1,106,107
 1388 1670 1388 1670 1420 1612 c 1,81,82
EndSplineSet
EndChar

StartChar: uniFEB7
Encoding: 65207 65207 105
Width: 1120
GlyphClass: 2
Flags: W
LayerCount: 2
Fore
SplineSet
1067 578 m 0,0,1
 990 342 990 342 873 96 c 0,2,3
 862 73 862 73 847 73 c 0,4,5
 838 73 838 73 828 81 c 0,6,7
 820 87 820 87 820 102 c 0,8,9
 820 116 820 116 827 138 c 0,10,11
 836 168 836 168 851.5 197 c 128,-1,12
 867 226 867 226 879 257 c 1,13,14
 729 189 729 189 548 146.5 c 128,-1,15
 367 104 367 104 205 58 c 2,16,-1
 0 0 l 1,17,-1
 109 287 l 1,18,19
 319 332 319 332 529.5 376.5 c 128,-1,20
 740 421 740 421 921 493 c 1,21,22
 1018 530 1018 530 1053 585 c 0,23,24
 1054 587 1054 587 1056 587 c 256,25,26
 1058 587 1058 587 1061 585 c 0,27,28
 1067 581 1067 581 1067 578 c 0,0,1
937 1171 m 1,29,30
 907 1108 907 1108 867.5 1049.5 c 128,-1,31
 828 991 828 991 787 938 c 0,32,33
 780 929 780 929 773 929 c 0,34,35
 764 929 764 929 756 949 c 0,36,37
 713 1055 713 1055 661 1055 c 2,38,-1
 655 1055 l 1,39,40
 599 1048 599 1048 546.5 988.5 c 128,-1,41
 494 929 494 929 451.5 852 c 128,-1,42
 409 775 409 775 390 749 c 1,43,-1
 389 838 l 1,44,-1
 391 841 l 1,45,46
 417 892 417 892 469.5 982 c 128,-1,47
 522 1072 522 1072 586 1157 c 0,48,49
 649 1241 649 1241 719 1290 c 1,50,51
 748 1309 748 1309 777 1309 c 0,52,53
 820 1309 820 1309 865 1268 c 1,54,55
 905 1229 905 1229 937 1171 c 1,29,30
EndSplineSet
EndChar

StartChar: uniFEB8
Encoding: 65208 65208 106
Width: 1005
GlyphClass: 2
Flags: W
LayerCount: 2
Fore
SplineSet
412 117 m 1,0,1
 355 92 355 92 278 73 c 128,-1,2
 201 54 201 54 123 37 c 1,3,-1
 123 36 l 1,4,5
 72 22 72 22 0 0 c 1,6,-1
 107 285 l 1,7,-1
 109 286 l 1,8,-1
 112 287 l 1,9,-1
 112 286 l 1,10,11
 192 298 192 298 343 328 c 128,-1,12
 494 358 494 358 528 465 c 0,13,14
 529 469 529 469 530 469 c 0,15,16
 532 469 532 469 535 459 c 1,17,18
 538 443 538 443 539 437 c 1,19,-1
 539 429 l 2,20,21
 539 407 539 407 531 360 c 1,22,-1
 535 360 l 1,23,24
 586 361 586 361 632 382.5 c 128,-1,25
 678 404 678 404 711 430 c 0,26,27
 729 444 729 444 739 471 c 128,-1,28
 749 498 749 498 762 520 c 0,29,30
 766 527 766 527 768 527 c 0,31,32
 771 527 771 527 772 519 c 1,33,-1
 772 502 l 2,34,35
 772 456 772 456 759 410 c 1,36,37
 911 437 911 437 948 578 c 0,38,39
 950 587 950 587 954 589 c 0,40,41
 956 590 956 590 957 590 c 256,42,43
 958 590 958 590 958 588 c 0,44,45
 948 485 948 485 925.5 390.5 c 128,-1,46
 903 296 903 296 852 230 c 0,47,48
 827 197 827 197 757 164.5 c 128,-1,49
 687 132 687 132 648 132 c 0,50,51
 634 132 634 132 631 145 c 1,52,53
 623 145 623 145 613.5 139 c 128,-1,54
 604 133 604 133 598 130 c 0,55,56
 572 118 572 118 546 106 c 128,-1,57
 520 94 520 94 487 85 c 0,58,59
 469 80 469 80 455 80 c 0,60,61
 417 80 417 80 412 117 c 1,0,1
974 1194 m 1,62,63
 944 1131 944 1131 904.5 1072.5 c 128,-1,64
 865 1014 865 1014 824 961 c 0,65,66
 817 952 817 952 810 952 c 0,67,68
 801 952 801 952 793 972 c 0,69,70
 750 1078 750 1078 698 1078 c 2,71,-1
 692 1078 l 1,72,73
 636 1071 636 1071 583.5 1011.5 c 128,-1,74
 531 952 531 952 488.5 875 c 128,-1,75
 446 798 446 798 427 772 c 1,76,-1
 426 861 l 1,77,-1
 428 864 l 1,78,79
 454 915 454 915 506.5 1005 c 128,-1,80
 559 1095 559 1095 623 1180 c 0,81,82
 686 1264 686 1264 756 1313 c 1,83,84
 785 1332 785 1332 814 1332 c 0,85,86
 857 1332 857 1332 902 1291 c 1,87,88
 942 1252 942 1252 974 1194 c 1,62,63
EndSplineSet
EndChar

StartChar: uniFEBA
Encoding: 65210 65210 107
Width: 1155
GlyphClass: 2
Flags: W
LayerCount: 2
Fore
SplineSet
1126 852 m 1,0,1
 1129 856 1129 856 1181.5 913 c 128,-1,2
 1234 970 1234 970 1299 1039 c 128,-1,3
 1364 1108 1364 1108 1422.5 1168.5 c 128,-1,4
 1481 1229 1481 1229 1495 1243 c 0,5,6
 1543 1287 1543 1287 1639 1305.5 c 128,-1,7
 1735 1324 1735 1324 1787 1262 c 0,8,9
 1850 1185 1850 1185 1806 1100 c 128,-1,10
 1762 1015 1762 1015 1711 946 c 0,11,12
 1550 730 1550 730 1322.5 678 c 128,-1,13
 1095 626 1095 626 861 591 c 1,14,15
 823 414 823 414 716 258 c 1,16,17
 603 96 603 96 431.5 33 c 128,-1,18
 260 -30 260 -30 138.5 29.5 c 128,-1,19
 17 89 17 89 0 285 c 128,-1,20
 -17 481 -17 481 179 838 c 1,21,22
 191 862 191 862 203.5 856 c 128,-1,23
 216 850 216 850 203 814 c 1,24,25
 179 761 179 761 141.5 688 c 128,-1,26
 104 615 104 615 85 541.5 c 128,-1,27
 66 468 66 468 81.5 404 c 128,-1,28
 97 340 97 340 179 305 c 1,29,30
 359 272 359 272 507.5 329.5 c 128,-1,31
 656 387 656 387 754 477 c 1,32,33
 756 562 756 562 739.5 634 c 128,-1,34
 723 706 723 706 702 775 c 1,35,-1
 814 1031 l 1,36,37
 853 944 853 944 870.5 895.5 c 128,-1,38
 888 847 888 847 930 838 c 1,39,40
 979 825 979 825 1045.5 837 c 128,-1,41
 1112 849 1112 849 1126 852 c 1,0,1
1607 1032 m 0,42,43
 1589 1065 1589 1065 1538 1080 c 128,-1,44
 1487 1095 1487 1095 1445 1072 c 0,45,46
 1373 1033 1373 1033 1317 977 c 128,-1,47
 1261 921 1261 921 1205 864 c 1,48,49
 1313 885 1313 885 1414.5 910.5 c 128,-1,50
 1516 936 1516 936 1604 978 c 0,51,52
 1629 990 1629 990 1607 1032 c 0,42,43
EndSplineSet
EndChar

StartChar: uniFEBB
Encoding: 65211 65211 108
Width: 1477
GlyphClass: 2
Flags: W
LayerCount: 2
Fore
SplineSet
1164 469 m 0,0,1
 1146 502 1146 502 1095 517 c 0,2,3
 1075 523 1075 523 1056 523 c 0,4,5
 1027 523 1027 523 1001 509 c 0,6,7
 929 470 929 470 873 413.5 c 128,-1,8
 817 357 817 357 762 301 c 1,9,10
 870 322 870 322 971.5 347 c 128,-1,11
 1073 372 1073 372 1161 415 c 0,12,13
 1174 421 1174 421 1174 436 c 0,14,15
 1174 449 1174 449 1164 469 c 0,0,1
613 418 m 0,16,17
 597 369 597 369 553 272 c 1,18,-1
 555 270 l 1,19,20
 625 276 625 276 682 289 c 1,21,22
 769 391 769 391 861 489 c 128,-1,23
 953 587 953 587 1051 680 c 1,24,25
 1099 724 1099 724 1195 743 c 0,26,27
 1217 747 1217 747 1237 747 c 0,28,29
 1303 747 1303 747 1343 699 c 0,30,31
 1381 653 1381 653 1381 604 c 0,32,33
 1381 571 1381 571 1363 537 c 0,34,35
 1319 452 1319 452 1268 383 c 0,36,37
 1196 287 1196 287 1090.5 219.5 c 128,-1,38
 985 152 985 152 863 107 c 1,39,-1
 862 106 l 1,40,41
 820 94 820 94 740.5 73 c 128,-1,42
 661 52 661 52 585 40 c 0,43,44
 535 32 535 32 496 32 c 0,45,46
 474 32 474 32 456 35 c 0,47,48
 415 40 415 40 415 68 c 0,49,50
 415 76 415 76 418 85 c 1,51,52
 348 56 348 56 218.5 32 c 128,-1,53
 89 8 89 8 0 0 c 1,54,-1
 119 275 l 1,55,56
 157 278 157 278 292 287 c 128,-1,57
 427 296 427 296 517 346 c 0,58,59
 577 380 577 380 604 446 c 1,60,61
 609 453 609 453 612 453 c 256,62,63
 615 453 615 453 615 442 c 0,64,65
 615 423 615 423 613 418 c 0,16,17
EndSplineSet
EndChar

StartChar: uniFEBC
Encoding: 65212 65212 109
Width: 679
GlyphClass: 2
Flags: W
LayerCount: 2
Fore
SplineSet
1164 469 m 0,0,1
 1146 502 1146 502 1095 517 c 0,2,3
 1075 523 1075 523 1056 523 c 0,4,5
 1027 523 1027 523 1001 509 c 0,6,7
 929 470 929 470 873 413.5 c 128,-1,8
 817 357 817 357 762 301 c 1,9,10
 870 322 870 322 971.5 347 c 128,-1,11
 1073 372 1073 372 1161 415 c 0,12,13
 1174 421 1174 421 1174 436 c 0,14,15
 1174 449 1174 449 1164 469 c 0,0,1
613 418 m 0,16,17
 597 369 597 369 553 272 c 1,18,-1
 555 270 l 1,19,20
 625 276 625 276 682 289 c 1,21,22
 769 391 769 391 861 489 c 128,-1,23
 953 587 953 587 1051 680 c 1,24,25
 1099 724 1099 724 1195 743 c 0,26,27
 1217 747 1217 747 1237 747 c 0,28,29
 1303 747 1303 747 1343 699 c 0,30,31
 1381 653 1381 653 1381 604 c 0,32,33
 1381 571 1381 571 1363 537 c 0,34,35
 1319 452 1319 452 1268 383 c 0,36,37
 1196 287 1196 287 1090.5 219.5 c 128,-1,38
 985 152 985 152 863 107 c 1,39,-1
 862 106 l 1,40,41
 820 94 820 94 740.5 73 c 128,-1,42
 661 52 661 52 585 40 c 0,43,44
 535 32 535 32 496 32 c 0,45,46
 474 32 474 32 456 35 c 0,47,48
 415 40 415 40 415 68 c 0,49,50
 415 76 415 76 418 85 c 1,51,52
 348 56 348 56 218.5 32 c 128,-1,53
 89 8 89 8 0 0 c 1,54,-1
 119 275 l 1,55,56
 157 278 157 278 292 287 c 128,-1,57
 427 296 427 296 517 346 c 0,58,59
 577 380 577 380 604 446 c 1,60,61
 609 453 609 453 612 453 c 256,62,63
 615 453 615 453 615 442 c 0,64,65
 615 423 615 423 613 418 c 0,16,17
EndSplineSet
EndChar

StartChar: uniFEBE
Encoding: 65214 65214 110
Width: 1006
GlyphClass: 2
Flags: W
LayerCount: 2
Fore
SplineSet
716 258 m 1,0,1
 603 96 603 96 432 33 c 0,2,3
 343 1 343 1 268 1 c 0,4,5
 198 1 198 1 139 30 c 0,6,7
 17 89 17 89 0 285 c 0,8,9
 -1 301 -1 301 -1 317 c 0,10,11
 -1 509 -1 509 179 838 c 0,12,13
 189 857 189 857 198 857 c 0,14,15
 201 857 201 857 204 856 c 0,16,17
 210 853 210 853 210 843 c 0,18,19
 210 832 210 832 203 814 c 1,20,21
 179 761 179 761 141.5 688 c 128,-1,22
 104 615 104 615 85 542 c 0,23,24
 75 501 75 501 75 463 c 0,25,26
 75 433 75 433 82 404 c 0,27,28
 97 340 97 340 179 305 c 1,29,30
 245 293 245 293 306 293 c 0,31,32
 413 293 413 293 508 330 c 0,33,34
 656 387 656 387 754 477 c 1,35,-1
 754 495 l 2,36,37
 754 570 754 570 740 634 c 1,38,39
 723 706 723 706 702 775 c 1,40,-1
 814 1031 l 1,41,42
 865 918 865 918 886 870 c 0,43,44
 900 836 900 836 948 836 c 0,45,46
 969 836 969 836 996 842 c 1,47,-1
 996 843 l 1,48,-1
 998 845 l 1,49,50
 1085 946 1085 946 1176 1043.5 c 128,-1,51
 1267 1141 1267 1141 1365 1232 c 0,52,53
 1413 1277 1413 1277 1509 1295 c 0,54,55
 1531 1299 1531 1299 1550 1299 c 0,56,57
 1617 1299 1617 1299 1657 1252 c 1,58,59
 1694 1206 1694 1206 1694 1158 c 0,60,61
 1694 1124 1694 1124 1676 1090 c 0,62,63
 1632 1005 1632 1005 1581 936 c 0,64,65
 1500 826 1500 826 1371.5 750.5 c 128,-1,66
 1243 675 1243 675 1110 642 c 1,67,68
 980 608 980 608 861 591 c 1,69,70
 823 414 823 414 716 258 c 1,0,1
1478 1021 m 0,71,72
 1459 1055 1459 1055 1409 1070 c 0,73,74
 1389 1076 1389 1076 1371 1076 c 0,75,76
 1341 1076 1341 1076 1315 1061 c 0,77,78
 1243 1022 1243 1022 1187 966 c 128,-1,79
 1131 910 1131 910 1075 854 c 1,80,81
 1183 875 1183 875 1285 900 c 128,-1,82
 1387 925 1387 925 1475 967 c 0,83,84
 1489 974 1489 974 1489 989 c 0,85,86
 1489 1002 1489 1002 1478 1021 c 0,71,72
1523 1606 m 1,87,88
 1481 1552 1481 1552 1439 1500 c 128,-1,89
 1397 1448 1397 1448 1355 1396 c 1,90,-1
 1211 1531 l 1,91,92
 1252 1584 1252 1584 1294.5 1636 c 128,-1,93
 1337 1688 1337 1688 1379 1741 c 1,94,-1
 1523 1606 l 1,87,88
EndSplineSet
EndChar

StartChar: uniFEBF
Encoding: 65215 65215 111
Width: 1477
GlyphClass: 2
Flags: W
LayerCount: 2
Fore
SplineSet
1164 469 m 0,0,1
 1146 502 1146 502 1095 517 c 0,2,3
 1075 523 1075 523 1056 523 c 0,4,5
 1027 523 1027 523 1001 509 c 0,6,7
 929 470 929 470 873 413.5 c 128,-1,8
 817 357 817 357 762 301 c 1,9,10
 870 322 870 322 971.5 347 c 128,-1,11
 1073 372 1073 372 1161 415 c 0,12,13
 1174 421 1174 421 1174 436 c 0,14,15
 1174 449 1174 449 1164 469 c 0,0,1
613 418 m 0,16,17
 597 369 597 369 553 272 c 1,18,-1
 555 270 l 1,19,20
 625 276 625 276 682 289 c 1,21,22
 769 391 769 391 861 489 c 128,-1,23
 953 587 953 587 1051 680 c 1,24,25
 1099 724 1099 724 1195 743 c 0,26,27
 1217 747 1217 747 1237 747 c 0,28,29
 1303 747 1303 747 1343 699 c 0,30,31
 1381 653 1381 653 1381 604 c 0,32,33
 1381 571 1381 571 1363 537 c 0,34,35
 1319 452 1319 452 1268 383 c 0,36,37
 1196 287 1196 287 1090.5 219.5 c 128,-1,38
 985 152 985 152 863 107 c 1,39,-1
 862 106 l 1,40,41
 820 94 820 94 740.5 73 c 128,-1,42
 661 52 661 52 585 40 c 0,43,44
 535 32 535 32 496 32 c 0,45,46
 474 32 474 32 456 35 c 0,47,48
 415 40 415 40 415 68 c 0,49,50
 415 76 415 76 418 85 c 1,51,52
 348 56 348 56 218.5 32 c 128,-1,53
 89 8 89 8 0 0 c 1,54,-1
 119 275 l 1,55,56
 157 278 157 278 292 287 c 128,-1,57
 427 296 427 296 517 346 c 0,58,59
 577 380 577 380 604 446 c 1,60,61
 609 453 609 453 612 453 c 256,62,63
 615 453 615 453 615 442 c 0,64,65
 615 423 615 423 613 418 c 0,16,17
1348 1096 m 1,66,67
 1306 1042 1306 1042 1264 990 c 128,-1,68
 1222 938 1222 938 1180 886 c 1,69,-1
 1036 1021 l 1,70,71
 1077 1074 1077 1074 1119.5 1126 c 128,-1,72
 1162 1178 1162 1178 1204 1231 c 1,73,-1
 1348 1096 l 1,66,67
EndSplineSet
EndChar

StartChar: uniFEC0
Encoding: 65216 65216 112
Width: 679
GlyphClass: 2
Flags: W
LayerCount: 2
Fore
SplineSet
1164 469 m 0,0,1
 1146 502 1146 502 1095 517 c 0,2,3
 1075 523 1075 523 1056 523 c 0,4,5
 1027 523 1027 523 1001 509 c 0,6,7
 929 470 929 470 873 413.5 c 128,-1,8
 817 357 817 357 762 301 c 1,9,10
 870 322 870 322 971.5 347 c 128,-1,11
 1073 372 1073 372 1161 415 c 0,12,13
 1174 421 1174 421 1174 436 c 0,14,15
 1174 449 1174 449 1164 469 c 0,0,1
613 418 m 0,16,17
 597 369 597 369 553 272 c 1,18,-1
 555 270 l 1,19,20
 625 276 625 276 682 289 c 1,21,22
 769 391 769 391 861 489 c 128,-1,23
 953 587 953 587 1051 680 c 1,24,25
 1099 724 1099 724 1195 743 c 0,26,27
 1217 747 1217 747 1237 747 c 0,28,29
 1303 747 1303 747 1343 699 c 0,30,31
 1381 653 1381 653 1381 604 c 0,32,33
 1381 571 1381 571 1363 537 c 0,34,35
 1319 452 1319 452 1268 383 c 0,36,37
 1196 287 1196 287 1090.5 219.5 c 128,-1,38
 985 152 985 152 863 107 c 1,39,-1
 862 106 l 1,40,41
 820 94 820 94 740.5 73 c 128,-1,42
 661 52 661 52 585 40 c 0,43,44
 535 32 535 32 496 32 c 0,45,46
 474 32 474 32 456 35 c 0,47,48
 415 40 415 40 415 68 c 0,49,50
 415 76 415 76 418 85 c 1,51,52
 348 56 348 56 218.5 32 c 128,-1,53
 89 8 89 8 0 0 c 1,54,-1
 119 275 l 1,55,56
 157 278 157 278 292 287 c 128,-1,57
 427 296 427 296 517 346 c 0,58,59
 577 380 577 380 604 446 c 1,60,61
 609 453 609 453 612 453 c 256,62,63
 615 453 615 453 615 442 c 0,64,65
 615 423 615 423 613 418 c 0,16,17
1334 1060 m 1,66,67
 1292 1006 1292 1006 1250 954 c 128,-1,68
 1208 902 1208 902 1166 850 c 1,69,-1
 1022 985 l 1,70,71
 1063 1038 1063 1038 1105.5 1090 c 128,-1,72
 1148 1142 1148 1142 1190 1195 c 1,73,-1
 1334 1060 l 1,66,67
EndSplineSet
EndChar

StartChar: uniFEC2
Encoding: 65218 65218 113
Width: 606
GlyphClass: 2
Flags: W
LayerCount: 2
Fore
SplineSet
1087 433 m 1,0,1
 1068 466 1068 466 1017 481 c 0,2,3
 997 487 997 487 978 487 c 0,4,5
 949 487 949 487 924 473 c 0,6,7
 852 434 852 434 796 378 c 128,-1,8
 740 322 740 322 684 265 c 1,9,10
 792 286 792 286 893.5 311.5 c 128,-1,11
 995 337 995 337 1083 379 c 0,12,13
 1096 385 1096 385 1096 401 c 0,14,15
 1096 413 1096 413 1087 433 c 1,0,1
1186 387 m 0,16,17
 1082 248 1082 248 931 163.5 c 128,-1,18
 780 79 780 79 579 27 c 1,19,20
 479 0 479 0 401 0 c 0,21,22
 382 0 382 0 364 2 c 0,23,24
 264 11 264 11 191 63.5 c 128,-1,25
 118 116 118 116 4 184 c 0,26,27
 0 186 0 186 0 191 c 0,28,29
 0 194 0 194 2 198 c 0,30,31
 5 208 5 208 14 208 c 0,32,33
 65 206 65 206 114 206 c 0,34,35
 218 206 218 206 318 215 c 0,36,37
 466 227 466 227 601 250 c 1,38,39
 689 352 689 352 782 451.5 c 128,-1,40
 875 551 875 551 974 644 c 0,41,42
 1022 688 1022 688 1118 707 c 0,43,44
 1140 711 1140 711 1160 711 c 0,45,46
 1226 711 1226 711 1266 663 c 1,47,48
 1302 618 1302 618 1302 578 c 0,49,50
 1302 548 1302 548 1283 521 c 0,51,52
 1237 456 1237 456 1186 387 c 0,16,17
602 981 m 1,53,-1
 753 1221 l 1,54,-1
 797 564 l 1,55,-1
 646 324 l 1,56,-1
 602 981 l 1,53,-1
EndSplineSet
EndChar

StartChar: uniFEC3
Encoding: 65219 65219 114
Width: 1176
GlyphClass: 2
Flags: W
LayerCount: 2
Fore
SplineSet
403 1033 m 1,0,-1
 554 1273 l 1,1,-1
 598 616 l 1,2,-1
 447 376 l 1,3,-1
 403 1033 l 1,0,-1
128 276 m 1,4,-1
 129 276 l 1,5,-1
 129 277 l 1,6,7
 156 279 156 279 238 283 c 128,-1,8
 320 287 320 287 404 306 c 1,9,10
 492 407 492 407 584 505 c 128,-1,11
 676 603 676 603 775 696 c 0,12,13
 822 740 822 740 918 759 c 0,14,15
 940 763 940 763 960 763 c 0,16,17
 1026 763 1026 763 1066 715 c 0,18,19
 1104 669 1104 669 1104 621 c 0,20,21
 1104 588 1104 588 1086 553 c 0,22,23
 1042 468 1042 468 991 399 c 0,24,25
 838 194 838 194 548.5 109.5 c 128,-1,26
 259 25 259 25 10 1 c 1,27,-1
 11 3 l 1,28,29
 8 2 8 2 5.5 1 c 128,-1,30
 3 0 3 0 0 0 c 1,31,-1
 128 276 l 1,4,-1
887 485 m 0,32,33
 869 518 869 518 818 533 c 0,34,35
 798 539 798 539 779 539 c 0,36,37
 750 539 750 539 724 525 c 0,38,39
 652 486 652 486 596 430 c 128,-1,40
 540 374 540 374 485 317 c 1,41,42
 593 338 593 338 694.5 363.5 c 128,-1,43
 796 389 796 389 884 431 c 0,44,45
 897 437 897 437 897 452 c 0,46,47
 897 465 897 465 887 485 c 0,32,33
EndSplineSet
EndChar

StartChar: uniFEC4
Encoding: 65220 65220 115
Width: 409
GlyphClass: 2
Flags: W
LayerCount: 2
Fore
SplineSet
403 1033 m 1,0,-1
 554 1273 l 1,1,-1
 598 616 l 1,2,-1
 447 376 l 1,3,-1
 403 1033 l 1,0,-1
128 276 m 1,4,-1
 129 276 l 1,5,-1
 129 277 l 1,6,7
 156 279 156 279 238 283 c 128,-1,8
 320 287 320 287 404 306 c 1,9,10
 492 407 492 407 584 505 c 128,-1,11
 676 603 676 603 775 696 c 0,12,13
 822 740 822 740 918 759 c 0,14,15
 940 763 940 763 960 763 c 0,16,17
 1026 763 1026 763 1066 715 c 0,18,19
 1104 669 1104 669 1104 621 c 0,20,21
 1104 588 1104 588 1086 553 c 0,22,23
 1042 468 1042 468 991 399 c 0,24,25
 838 194 838 194 548.5 109.5 c 128,-1,26
 259 25 259 25 10 1 c 1,27,-1
 11 3 l 1,28,29
 8 2 8 2 5.5 1 c 128,-1,30
 3 0 3 0 0 0 c 1,31,-1
 128 276 l 1,4,-1
887 485 m 0,32,33
 869 518 869 518 818 533 c 0,34,35
 798 539 798 539 779 539 c 0,36,37
 750 539 750 539 724 525 c 0,38,39
 652 486 652 486 596 430 c 128,-1,40
 540 374 540 374 485 317 c 1,41,42
 593 338 593 338 694.5 363.5 c 128,-1,43
 796 389 796 389 884 431 c 0,44,45
 897 437 897 437 897 452 c 0,46,47
 897 465 897 465 887 485 c 0,32,33
EndSplineSet
EndChar

StartChar: uniFEC6
Encoding: 65222 65222 116
Width: 602
GlyphClass: 2
Flags: W
LayerCount: 2
Fore
SplineSet
1087 433 m 1,0,1
 1068 466 1068 466 1017 481 c 0,2,3
 997 487 997 487 978 487 c 0,4,5
 949 487 949 487 924 473 c 0,6,7
 852 434 852 434 796 378 c 128,-1,8
 740 322 740 322 684 265 c 1,9,10
 792 286 792 286 893.5 311.5 c 128,-1,11
 995 337 995 337 1083 379 c 0,12,13
 1096 385 1096 385 1096 401 c 0,14,15
 1096 413 1096 413 1087 433 c 1,0,1
1186 387 m 0,16,17
 1082 248 1082 248 931 163.5 c 128,-1,18
 780 79 780 79 579 27 c 1,19,20
 479 0 479 0 401 0 c 0,21,22
 382 0 382 0 364 2 c 0,23,24
 264 11 264 11 191 63.5 c 128,-1,25
 118 116 118 116 4 184 c 0,26,27
 0 186 0 186 0 191 c 0,28,29
 0 194 0 194 2 198 c 0,30,31
 5 208 5 208 14 208 c 0,32,33
 65 206 65 206 114 206 c 0,34,35
 218 206 218 206 318 215 c 0,36,37
 466 227 466 227 601 250 c 1,38,39
 689 352 689 352 782 451.5 c 128,-1,40
 875 551 875 551 974 644 c 0,41,42
 1022 688 1022 688 1118 707 c 0,43,44
 1140 711 1140 711 1160 711 c 0,45,46
 1226 711 1226 711 1266 663 c 1,47,48
 1302 618 1302 618 1302 578 c 0,49,50
 1302 548 1302 548 1283 521 c 0,51,52
 1237 456 1237 456 1186 387 c 0,16,17
602 981 m 1,53,-1
 753 1221 l 1,54,-1
 797 564 l 1,55,-1
 646 324 l 1,56,-1
 602 981 l 1,53,-1
1207 1021 m 1,57,58
 1165 967 1165 967 1123 915 c 128,-1,59
 1081 863 1081 863 1039 811 c 1,60,-1
 895 946 l 1,61,62
 936 999 936 999 978.5 1051 c 128,-1,63
 1021 1103 1021 1103 1063 1156 c 1,64,-1
 1207 1021 l 1,57,58
EndSplineSet
EndChar

StartChar: uniFEC7
Encoding: 65223 65223 117
Width: 1180
GlyphClass: 2
Flags: W
LayerCount: 2
Fore
SplineSet
403 1033 m 1,0,-1
 554 1273 l 1,1,-1
 598 616 l 1,2,-1
 447 376 l 1,3,-1
 403 1033 l 1,0,-1
128 276 m 1,4,-1
 129 276 l 1,5,-1
 129 277 l 1,6,7
 156 279 156 279 238 283 c 128,-1,8
 320 287 320 287 404 306 c 1,9,10
 492 407 492 407 584 505 c 128,-1,11
 676 603 676 603 775 696 c 0,12,13
 822 740 822 740 918 759 c 0,14,15
 940 763 940 763 960 763 c 0,16,17
 1026 763 1026 763 1066 715 c 0,18,19
 1104 669 1104 669 1104 621 c 0,20,21
 1104 588 1104 588 1086 553 c 0,22,23
 1042 468 1042 468 991 399 c 0,24,25
 838 194 838 194 548.5 109.5 c 128,-1,26
 259 25 259 25 10 1 c 1,27,-1
 11 3 l 1,28,29
 8 2 8 2 5.5 1 c 128,-1,30
 3 0 3 0 0 0 c 1,31,-1
 128 276 l 1,4,-1
887 485 m 0,32,33
 869 518 869 518 818 533 c 0,34,35
 798 539 798 539 779 539 c 0,36,37
 750 539 750 539 724 525 c 0,38,39
 652 486 652 486 596 430 c 128,-1,40
 540 374 540 374 485 317 c 1,41,42
 593 338 593 338 694.5 363.5 c 128,-1,43
 796 389 796 389 884 431 c 0,44,45
 897 437 897 437 897 452 c 0,46,47
 897 465 897 465 887 485 c 0,32,33
1020 1060 m 1,48,49
 978 1006 978 1006 936 954 c 128,-1,50
 894 902 894 902 852 850 c 1,51,-1
 708 985 l 1,52,53
 749 1038 749 1038 791.5 1090 c 128,-1,54
 834 1142 834 1142 876 1195 c 1,55,-1
 1020 1060 l 1,48,49
EndSplineSet
EndChar

StartChar: uniFEC8
Encoding: 65224 65224 118
Width: 409
GlyphClass: 2
Flags: W
LayerCount: 2
Fore
SplineSet
403 1033 m 1,0,-1
 554 1273 l 1,1,-1
 598 616 l 1,2,-1
 447 376 l 1,3,-1
 403 1033 l 1,0,-1
128 276 m 1,4,-1
 129 276 l 1,5,-1
 129 277 l 1,6,7
 156 279 156 279 238 283 c 128,-1,8
 320 287 320 287 404 306 c 1,9,10
 492 407 492 407 584 505 c 128,-1,11
 676 603 676 603 775 696 c 0,12,13
 822 740 822 740 918 759 c 0,14,15
 940 763 940 763 960 763 c 0,16,17
 1026 763 1026 763 1066 715 c 0,18,19
 1104 669 1104 669 1104 621 c 0,20,21
 1104 588 1104 588 1086 553 c 0,22,23
 1042 468 1042 468 991 399 c 0,24,25
 838 194 838 194 548.5 109.5 c 128,-1,26
 259 25 259 25 10 1 c 1,27,-1
 11 3 l 1,28,29
 8 2 8 2 5.5 1 c 128,-1,30
 3 0 3 0 0 0 c 1,31,-1
 128 276 l 1,4,-1
887 485 m 0,32,33
 869 518 869 518 818 533 c 0,34,35
 798 539 798 539 779 539 c 0,36,37
 750 539 750 539 724 525 c 0,38,39
 652 486 652 486 596 430 c 128,-1,40
 540 374 540 374 485 317 c 1,41,42
 593 338 593 338 694.5 363.5 c 128,-1,43
 796 389 796 389 884 431 c 0,44,45
 897 437 897 437 897 452 c 0,46,47
 897 465 897 465 887 485 c 0,32,33
1020 1060 m 1,48,49
 978 1006 978 1006 936 954 c 128,-1,50
 894 902 894 902 852 850 c 1,51,-1
 708 985 l 1,52,53
 749 1038 749 1038 791.5 1090 c 128,-1,54
 834 1142 834 1142 876 1195 c 1,55,-1
 1020 1060 l 1,48,49
EndSplineSet
EndChar

StartChar: uniFECA
Encoding: 65226 65226 119
Width: 700
GlyphClass: 2
Flags: W
LayerCount: 2
Fore
SplineSet
755 684 m 1,0,1
 724 632 724 632 642.5 574.5 c 128,-1,2
 561 517 561 517 504 468 c 1,3,4
 462 430 462 430 375.5 340.5 c 128,-1,5
 289 251 289 251 214 145 c 128,-1,6
 139 39 139 39 104 -65 c 0,7,8
 90 -104 90 -104 90 -138 c 0,9,10
 90 -195 90 -195 128 -238 c 0,11,12
 232 -355 232 -355 377.5 -405 c 128,-1,13
 523 -455 523 -455 682 -460 c 0,14,15
 709 -461 709 -461 736 -461 c 0,16,17
 868 -461 868 -461 1001 -439 c 0,18,19
 1161 -412 1161 -412 1295 -378 c 0,20,21
 1313 -373 1313 -373 1320 -373 c 0,22,23
 1324 -373 1324 -373 1324 -375 c 0,24,25
 1324 -376 1324 -376 1323 -378 c 0,26,27
 1198 -529 1198 -529 993.5 -624.5 c 128,-1,28
 789 -720 789 -720 585 -734 c 0,29,30
 555 -736 555 -736 526 -736 c 0,31,32
 357 -736 357 -736 218 -667 c 0,33,34
 55 -587 55 -587 13 -386 c 0,35,36
 0 -322 0 -322 0 -251 c 0,37,38
 0 -116 0 -116 49 42 c 0,39,40
 123 283 123 283 273 447 c 1,41,-1
 510 680 l 1,42,-1
 481 865 l 2,43,44
 480 868 480 868 480 871 c 0,45,46
 480 905 480 905 557 996 c 0,47,48
 641 1096 641 1096 659 1110 c 1,49,50
 704 1123 704 1123 777 1123 c 2,51,-1
 797 1123 l 1,52,53
 883 1121 883 1121 916 1090 c 0,54,55
 945 1062 945 1062 945 1026 c 0,56,57
 945 1009 945 1009 939 990 c 0,58,59
 919 931 919 931 895 895 c 2,60,-1
 791 733 l 2,61,62
 771 703 771 703 755 684 c 1,0,1
EndSplineSet
EndChar

StartChar: uniFECB
Encoding: 65227 65227 120
Width: 1066
GlyphClass: 2
Flags: W
LayerCount: 2
Fore
SplineSet
909 273 m 1,0,1
 691 156 691 156 452.5 100.5 c 128,-1,2
 214 45 214 45 0 0 c 1,3,-1
 127 276 l 1,4,5
 199 287 199 287 298 302.5 c 128,-1,6
 397 318 397 318 461 336 c 1,7,8
 424 392 424 392 424 481 c 0,9,10
 424 487 424 487 425 493 c 0,11,12
 427 590 427 590 458.5 683 c 128,-1,13
 490 776 490 776 545 843 c 0,14,15
 598 908 598 908 663 908 c 2,16,-1
 665 908 l 1,17,18
 718 906 718 906 765 895 c 128,-1,19
 812 884 812 884 863 872 c 1,20,-1
 777 607 l 1,21,22
 673 639 673 639 562 649 c 1,23,24
 574 574 574 574 611.5 517.5 c 128,-1,25
 649 461 649 461 698 419 c 1,26,27
 793 422 793 422 860.5 457 c 128,-1,28
 928 492 928 492 1002 520 c 0,29,30
 1004 521 1004 521 1005 521 c 0,31,32
 1010 521 1010 521 1010 514 c 0,33,34
 1010 506 1010 506 1004 490 c 0,35,36
 992 454 992 454 972 408 c 128,-1,37
 952 362 952 362 931.5 320.5 c 128,-1,38
 911 279 911 279 909 273 c 1,0,1
EndSplineSet
EndChar

StartChar: uniFECC
Encoding: 65228 65228 121
Width: 969
GlyphClass: 2
Flags: W
LayerCount: 2
Fore
SplineSet
496 120 m 1,0,1
 428 93 428 93 281.5 57.5 c 128,-1,2
 135 22 135 22 0 0 c 1,3,-1
 70 148 l 1,4,-1
 130 277 l 1,5,-1
 132 278 l 1,6,-1
 427 315 l 1,7,-1
 486 325 l 1,8,-1
 446 460 l 2,9,10
 445 463 445 463 445 466 c 0,11,12
 445 500 445 500 522 591 c 0,13,14
 607 691 607 691 625 705 c 1,15,16
 670 718 670 718 742 718 c 2,17,-1
 762 718 l 1,18,19
 848 716 848 716 881 685 c 0,20,21
 910 657 910 657 910 621 c 0,22,23
 910 604 910 604 904 585 c 0,24,25
 884 526 884 526 860 490 c 2,26,-1
 756 328 l 2,27,28
 699 238 699 238 620.5 186 c 128,-1,29
 542 134 542 134 496 120 c 1,0,1
EndSplineSet
EndChar

StartChar: uniFECE
Encoding: 65230 65230 122
Width: 700
GlyphClass: 2
Flags: W
LayerCount: 2
Fore
SplineSet
755 684 m 1,0,1
 724 632 724 632 642.5 574.5 c 128,-1,2
 561 517 561 517 504 468 c 1,3,4
 462 430 462 430 375.5 340.5 c 128,-1,5
 289 251 289 251 214 145 c 128,-1,6
 139 39 139 39 104 -65 c 0,7,8
 90 -104 90 -104 90 -138 c 0,9,10
 90 -195 90 -195 128 -238 c 0,11,12
 232 -355 232 -355 377.5 -405 c 128,-1,13
 523 -455 523 -455 682 -460 c 0,14,15
 709 -461 709 -461 736 -461 c 0,16,17
 868 -461 868 -461 1001 -439 c 0,18,19
 1161 -412 1161 -412 1295 -378 c 0,20,21
 1313 -373 1313 -373 1320 -373 c 0,22,23
 1324 -373 1324 -373 1324 -375 c 0,24,25
 1324 -376 1324 -376 1323 -378 c 0,26,27
 1198 -529 1198 -529 993.5 -624.5 c 128,-1,28
 789 -720 789 -720 585 -734 c 0,29,30
 555 -736 555 -736 526 -736 c 0,31,32
 357 -736 357 -736 218 -667 c 0,33,34
 55 -587 55 -587 13 -386 c 0,35,36
 0 -322 0 -322 0 -251 c 0,37,38
 0 -116 0 -116 49 42 c 0,39,40
 123 283 123 283 273 447 c 1,41,-1
 510 680 l 1,42,-1
 481 865 l 2,43,44
 480 868 480 868 480 871 c 0,45,46
 480 905 480 905 557 996 c 0,47,48
 641 1096 641 1096 659 1110 c 1,49,50
 704 1123 704 1123 777 1123 c 2,51,-1
 797 1123 l 1,52,53
 883 1121 883 1121 916 1090 c 0,54,55
 945 1062 945 1062 945 1026 c 0,56,57
 945 1009 945 1009 939 990 c 0,58,59
 919 931 919 931 895 895 c 2,60,-1
 791 733 l 2,61,62
 771 703 771 703 755 684 c 1,0,1
911 1488 m 1,63,64
 869 1434 869 1434 827 1382 c 128,-1,65
 785 1330 785 1330 743 1278 c 1,66,-1
 599 1413 l 1,67,68
 640 1466 640 1466 682.5 1518 c 128,-1,69
 725 1570 725 1570 767 1623 c 1,70,-1
 911 1488 l 1,63,64
EndSplineSet
EndChar

StartChar: uniFECF
Encoding: 65231 65231 123
Width: 1066
GlyphClass: 2
Flags: W
LayerCount: 2
Fore
SplineSet
909 273 m 1,0,1
 691 156 691 156 452.5 100.5 c 128,-1,2
 214 45 214 45 0 0 c 1,3,-1
 127 276 l 1,4,5
 199 287 199 287 298 302.5 c 128,-1,6
 397 318 397 318 461 336 c 1,7,8
 424 392 424 392 424 481 c 0,9,10
 424 487 424 487 425 493 c 0,11,12
 427 590 427 590 458.5 683 c 128,-1,13
 490 776 490 776 545 843 c 0,14,15
 598 908 598 908 663 908 c 2,16,-1
 665 908 l 1,17,18
 718 906 718 906 765 895 c 128,-1,19
 812 884 812 884 863 872 c 1,20,-1
 777 607 l 1,21,22
 673 639 673 639 562 649 c 1,23,24
 574 574 574 574 611.5 517.5 c 128,-1,25
 649 461 649 461 698 419 c 1,26,27
 793 422 793 422 860.5 457 c 128,-1,28
 928 492 928 492 1002 520 c 0,29,30
 1004 521 1004 521 1005 521 c 0,31,32
 1010 521 1010 521 1010 514 c 0,33,34
 1010 506 1010 506 1004 490 c 0,35,36
 992 454 992 454 972 408 c 128,-1,37
 952 362 952 362 931.5 320.5 c 128,-1,38
 911 279 911 279 909 273 c 1,0,1
752 1228 m 1,39,40
 710 1174 710 1174 668 1122 c 128,-1,41
 626 1070 626 1070 584 1018 c 1,42,-1
 440 1153 l 1,43,44
 481 1206 481 1206 523.5 1258 c 128,-1,45
 566 1310 566 1310 608 1363 c 1,46,-1
 752 1228 l 1,39,40
EndSplineSet
EndChar

StartChar: uniFED0
Encoding: 65232 65232 124
Width: 969
GlyphClass: 2
Flags: W
LayerCount: 2
Fore
SplineSet
496 120 m 1,0,1
 428 93 428 93 281.5 57.5 c 128,-1,2
 135 22 135 22 0 0 c 1,3,-1
 70 148 l 1,4,-1
 130 277 l 1,5,-1
 132 278 l 1,6,-1
 427 315 l 1,7,-1
 486 325 l 1,8,-1
 446 460 l 2,9,10
 445 463 445 463 445 466 c 0,11,12
 445 500 445 500 522 591 c 0,13,14
 607 691 607 691 625 705 c 1,15,16
 670 718 670 718 742 718 c 2,17,-1
 762 718 l 1,18,19
 848 716 848 716 881 685 c 0,20,21
 910 657 910 657 910 621 c 0,22,23
 910 604 910 604 904 585 c 0,24,25
 884 526 884 526 860 490 c 2,26,-1
 756 328 l 2,27,28
 699 238 699 238 620.5 186 c 128,-1,29
 542 134 542 134 496 120 c 1,0,1
789 1069 m 1,30,31
 747 1015 747 1015 705 963 c 128,-1,32
 663 911 663 911 621 859 c 1,33,-1
 477 994 l 1,34,35
 518 1047 518 1047 560.5 1099 c 128,-1,36
 603 1151 603 1151 645 1204 c 1,37,-1
 789 1069 l 1,30,31
EndSplineSet
EndChar

StartChar: uniFED2
Encoding: 65234 65234 125
Width: 1162
GlyphClass: 2
Flags: W
LayerCount: 2
Fore
SplineSet
993 372 m 1,0,1
 1107 624 1107 624 1252 792 c 1,2,3
 1335 890 1335 890 1410 890 c 0,4,5
 1438 890 1438 890 1465 876 c 0,6,7
 1531 841 1531 841 1531 746 c 0,8,9
 1531 699 1531 699 1515 638 c 1,10,11
 1455 473 1455 473 1346 337.5 c 128,-1,12
 1237 202 1237 202 1063 153 c 1,13,-1
 1031 145 l 1,14,-1
 1030 146 l 1,15,16
 957 110 957 110 843 73 c 128,-1,17
 729 36 729 36 603 17 c 1,18,19
 505 1 505 1 409 1 c 0,20,21
 382 1 382 1 356 3 c 0,22,23
 234 8 234 8 147 59 c 1,24,25
 53 111 53 111 18 211 c 1,26,27
 -2 265 -2 265 -2 324 c 0,28,29
 -2 407 -2 407 39 499 c 0,30,31
 109 655 109 655 184 773 c 1,32,33
 197 791 197 791 211 791 c 0,34,35
 216 791 216 791 221 790 c 1,36,37
 232 785 232 785 232 772 c 0,38,39
 232 763 232 763 226 749 c 1,40,41
 137 583 137 583 137 482 c 0,42,43
 137 435 137 435 156 402 c 0,44,45
 217 297 217 297 366 277 c 1,46,47
 418 269 418 269 475 269 c 0,48,49
 579 269 579 269 697 294 c 1,50,51
 880 331 880 331 993 372 c 1,0,1
1264 640 m 1,52,53
 1216 623 1216 623 1187.5 585.5 c 128,-1,54
 1159 548 1159 548 1132 512 c 0,55,56
 1120 496 1120 496 1120 479 c 0,57,58
 1120 467 1120 467 1127 455 c 0,59,60
 1142 425 1142 425 1166 413 c 1,61,62
 1231 417 1231 417 1311 455 c 0,63,64
 1341 470 1341 470 1341 504 c 0,65,66
 1341 524 1341 524 1331 551 c 0,67,68
 1303 624 1303 624 1264 640 c 1,52,53
1502 1230 m 1,69,70
 1460 1176 1460 1176 1418 1124 c 128,-1,71
 1376 1072 1376 1072 1334 1020 c 1,72,-1
 1190 1155 l 1,73,74
 1231 1208 1231 1208 1273.5 1260 c 128,-1,75
 1316 1312 1316 1312 1358 1365 c 1,76,-1
 1502 1230 l 1,69,70
EndSplineSet
EndChar

StartChar: uniFED3
Encoding: 65235 65235 126
Width: 800
GlyphClass: 2
Flags: W
LayerCount: 2
Fore
SplineSet
590 266 m 1,0,1
 506 170 506 170 406 117 c 128,-1,2
 306 64 306 64 197 41 c 2,3,-1
 0 0 l 1,4,-1
 128 277 l 1,5,6
 239 294 239 294 378.5 329 c 128,-1,7
 518 364 518 364 616 442 c 1,8,-1
 591 516 l 2,9,10
 571 576 571 576 556 576 c 0,11,12
 552 576 552 576 549 572 c 1,13,14
 517 544 517 544 465 528 c 0,15,16
 445 522 445 522 425 522 c 0,17,18
 394 522 394 522 364 537 c 0,19,20
 335 551 335 551 334 593 c 0,21,22
 333 596 333 596 333 599 c 0,23,24
 333 636 333 636 349 664 c 0,25,26
 382 726 382 726 413.5 792.5 c 128,-1,27
 445 859 445 859 487 916 c 0,28,29
 518 958 518 958 553 958 c 0,30,31
 575 958 575 958 599 941 c 0,32,33
 660 897 660 897 699 822 c 0,34,35
 737 747 737 747 737 656 c 0,36,37
 737 597 737 597 721 532 c 0,38,39
 680 366 680 366 590 266 c 1,0,1
675 1276 m 1,40,41
 633 1222 633 1222 591 1170 c 128,-1,42
 549 1118 549 1118 507 1066 c 1,43,-1
 363 1201 l 1,44,45
 404 1254 404 1254 446.5 1306 c 128,-1,46
 489 1358 489 1358 531 1411 c 1,47,-1
 675 1276 l 1,40,41
EndSplineSet
EndChar

StartChar: uniFED4
Encoding: 65236 65236 127
Width: 578
GlyphClass: 2
Flags: W
LayerCount: 2
Fore
SplineSet
682 600 m 1,0,1
 633 584 633 584 604.5 546.5 c 128,-1,2
 576 509 576 509 549 472 c 0,3,4
 537 456 537 456 537 439 c 0,5,6
 537 427 537 427 544 415 c 0,7,8
 559 385 559 385 583 373 c 1,9,10
 647 378 647 378 728 415 c 0,11,12
 759 430 759 430 759 465 c 0,13,14
 759 484 759 484 749 511 c 0,15,16
 721 584 721 584 682 600 c 1,0,1
480 113 m 0,17,18
 408 93 408 93 338 74.5 c 128,-1,19
 268 56 268 56 199 42 c 2,20,-1
 0 0 l 1,21,-1
 128 276 l 1,22,23
 199 287 199 287 268.5 297 c 128,-1,24
 338 307 338 307 408 320 c 1,25,26
 461 439 461 439 525.5 549.5 c 128,-1,27
 590 660 590 660 669 752 c 0,28,29
 752 850 752 850 827 850 c 0,30,31
 855 850 855 850 882 836 c 0,32,33
 948 801 948 801 948 706 c 0,34,35
 948 659 948 659 932 598 c 1,36,37
 872 434 872 434 763 298 c 128,-1,38
 654 162 654 162 480 113 c 0,17,18
997 1230 m 1,39,40
 955 1176 955 1176 913 1124 c 128,-1,41
 871 1072 871 1072 829 1020 c 1,42,-1
 685 1155 l 1,43,44
 726 1208 726 1208 768.5 1260 c 128,-1,45
 811 1312 811 1312 853 1365 c 1,46,-1
 997 1230 l 1,39,40
EndSplineSet
EndChar

StartChar: uniFED6
Encoding: 65238 65238 128
Width: 1300
GlyphClass: 2
Flags: W
LayerCount: 2
Fore
SplineSet
1025 256 m 0,0,1
 933 124 933 124 798 57.5 c 128,-1,2
 663 -9 663 -9 544.5 2 c 128,-1,3
 426 13 426 13 354.5 108.5 c 128,-1,4
 283 204 283 204 320 398 c 0,5,6
 332 460 332 460 331 513 c 0,7,8
 330 526 330 526 326 546 c 128,-1,9
 322 566 322 566 305 563 c 0,10,11
 121 534 121 534 13 388 c 1,12,13
 37 463 37 463 62 537 c 128,-1,14
 87 611 87 611 117 683 c 1,15,16
 173 734 173 734 241 773 c 128,-1,17
 309 812 309 812 402 827 c 1,18,19
 439 831 439 831 439 796 c 1,20,21
 436 726 436 726 418.5 637 c 128,-1,22
 401 548 401 548 409 469 c 1,23,24
 420 342 420 342 503 308 c 128,-1,25
 586 274 586 274 691.5 294 c 128,-1,26
 797 314 797 314 902 369 c 128,-1,27
 1007 424 1007 424 1063 476 c 1,28,29
 1063 517 1063 517 1058.5 576 c 128,-1,30
 1054 635 1054 635 1034 664 c 1,31,32
 983 652 983 652 926.5 656.5 c 128,-1,33
 870 661 870 661 844 691 c 1,34,35
 800 739 800 739 841 816 c 1,36,37
 874 882 874 882 905 953 c 128,-1,38
 936 1024 936 1024 985 1079 c 0,39,40
 1009 1106 1009 1106 1043.5 1093 c 128,-1,41
 1078 1080 1078 1080 1097 1062 c 0,42,43
 1239 917 1239 917 1184 662 c 128,-1,44
 1129 407 1129 407 1025 256 c 0,0,1
EndSplineSet
EndChar

StartChar: uniFED7
Encoding: 65239 65239 129
Width: 800
GlyphClass: 2
Flags: W
LayerCount: 2
Fore
SplineSet
590 266 m 1,0,1
 506 170 506 170 406 117 c 128,-1,2
 306 64 306 64 197 41 c 2,3,-1
 0 0 l 1,4,-1
 128 277 l 1,5,6
 239 294 239 294 378.5 329 c 128,-1,7
 518 364 518 364 616 442 c 1,8,-1
 591 516 l 2,9,10
 571 576 571 576 556 576 c 0,11,12
 552 576 552 576 549 572 c 1,13,14
 517 544 517 544 465 528 c 0,15,16
 445 522 445 522 425 522 c 0,17,18
 394 522 394 522 364 537 c 0,19,20
 335 551 335 551 334 593 c 0,21,22
 333 596 333 596 333 599 c 0,23,24
 333 636 333 636 349 664 c 0,25,26
 382 726 382 726 413.5 792.5 c 128,-1,27
 445 859 445 859 487 916 c 0,28,29
 518 958 518 958 553 958 c 0,30,31
 575 958 575 958 599 941 c 0,32,33
 660 897 660 897 699 822 c 0,34,35
 737 747 737 747 737 656 c 0,36,37
 737 597 737 597 721 532 c 0,38,39
 680 366 680 366 590 266 c 1,0,1
645 1175 m 1,40,41
 546 1157 546 1157 448 1138.5 c 128,-1,42
 350 1120 350 1120 252 1102 c 1,43,-1
 374 1346 l 1,44,45
 588 1384 588 1384 768 1419 c 1,46,-1
 645 1175 l 1,40,41
EndSplineSet
EndChar

StartChar: uniFED8
Encoding: 65240 65240 130
Width: 578
GlyphClass: 2
Flags: W
LayerCount: 2
Fore
SplineSet
682 600 m 1,0,1
 633 584 633 584 604.5 546.5 c 128,-1,2
 576 509 576 509 549 472 c 0,3,4
 537 456 537 456 537 439 c 0,5,6
 537 427 537 427 544 415 c 0,7,8
 559 385 559 385 583 373 c 1,9,10
 647 378 647 378 728 415 c 0,11,12
 759 430 759 430 759 465 c 0,13,14
 759 484 759 484 749 511 c 0,15,16
 721 584 721 584 682 600 c 1,0,1
480 113 m 0,17,18
 408 93 408 93 338 74.5 c 128,-1,19
 268 56 268 56 199 42 c 2,20,-1
 0 0 l 1,21,-1
 128 276 l 1,22,23
 199 287 199 287 268.5 297 c 128,-1,24
 338 307 338 307 408 320 c 1,25,26
 461 439 461 439 525.5 549.5 c 128,-1,27
 590 660 590 660 669 752 c 0,28,29
 752 850 752 850 827 850 c 0,30,31
 855 850 855 850 882 836 c 0,32,33
 948 801 948 801 948 706 c 0,34,35
 948 659 948 659 932 598 c 1,36,37
 872 434 872 434 763 298 c 128,-1,38
 654 162 654 162 480 113 c 0,17,18
920 1065 m 1,39,40
 821 1047 821 1047 723 1028.5 c 128,-1,41
 625 1010 625 1010 527 992 c 1,42,-1
 649 1236 l 1,43,44
 863 1274 863 1274 1043 1309 c 1,45,-1
 920 1065 l 1,39,40
EndSplineSet
EndChar

StartChar: uniFEDA
Encoding: 65242 65242 131
Width: 1048
GlyphClass: 2
Flags: W
LayerCount: 2
Fore
SplineSet
1022 465 m 1,0,-1
 956 1245 l 1,1,-1
 1107 1496 l 1,2,-1
 1189 282 l 1,3,-1
 1048 0 l 1,4,-1
 1023 358 l 1,5,6
 946 243 946 243 800 149.5 c 128,-1,7
 654 56 654 56 499 20 c 0,8,9
 421 2 421 2 349 2 c 0,10,11
 276 2 276 2 208 21 c 0,12,13
 72 57 72 57 18 204 c 0,14,15
 -3 259 -3 259 -3 318 c 0,16,17
 -3 405 -3 405 42 501 c 0,18,19
 117 662 117 662 193 780 c 0,20,21
 432 1153 432 1153 584 1182 c 0,22,23
 610 1187 610 1187 633 1187 c 0,24,25
 742 1187 742 1187 772 1077 c 0,26,27
 783 1038 783 1038 783 994 c 0,28,29
 783 884 783 884 718 741 c 0,30,31
 627 538 627 538 380 450 c 1,32,-1
 468 718 l 1,33,34
 525 730 525 730 552 742.5 c 128,-1,35
 579 755 579 755 632 780 c 1,36,37
 606 936 606 936 519 936 c 0,38,39
 496 936 496 936 468 925 c 0,40,41
 337 872 337 872 264 765 c 0,42,43
 193 662 193 662 134 554 c 0,44,45
 116 521 116 521 116 488 c 0,46,47
 116 413 116 413 212 339 c 1,48,49
 284 282 284 282 394 281 c 1,50,-1
 402 281 l 2,51,52
 508 281 508 281 621 309 c 0,53,54
 738 337 738 337 846 382.5 c 128,-1,55
 954 428 954 428 1022 465 c 1,0,-1
EndSplineSet
EndChar

StartChar: uniFEDB
Encoding: 65243 65243 132
Width: 1410
GlyphClass: 2
Flags: W
LayerCount: 2
Fore
SplineSet
629 452 m 1,0,1
 565 192 565 192 390.5 121.5 c 128,-1,2
 216 51 216 51 0 0 c 1,3,-1
 128 276 l 1,4,-1
 130 277 l 1,5,6
 234 292 234 292 317.5 308.5 c 128,-1,7
 401 325 401 325 500 373 c 1,8,9
 500 528 500 528 487.5 692.5 c 128,-1,10
 475 857 475 857 465 1011 c 1,11,-1
 589 1207 l 1,12,-1
 655 1446 l 1,13,14
 820 1542 820 1542 985.5 1639 c 128,-1,15
 1151 1736 1151 1736 1317 1833 c 0,16,17
 1326 1838 1326 1838 1331 1838 c 0,18,19
 1340 1838 1340 1838 1340 1826 c 0,20,21
 1340 1823 1340 1823 1339 1819 c 2,22,-1
 1272 1580 l 1,23,24
 1109 1484 1109 1484 945.5 1389 c 128,-1,25
 782 1294 782 1294 620 1199 c 1,26,-1
 653 673 l 2,27,28
 654 655 654 655 654 637 c 0,29,30
 654 593 654 593 649 552 c 0,31,32
 641 495 641 495 629 452 c 1,0,1
EndSplineSet
EndChar

StartChar: uniFEDC
Encoding: 65244 65244 133
Width: 531
GlyphClass: 2
Flags: W
LayerCount: 2
Fore
SplineSet
439 1026 m 1,0,-1
 572 1247 l 1,1,-1
 618 1413 l 1,2,3
 783 1509 783 1509 931.5 1592 c 128,-1,4
 1080 1675 1080 1675 1246 1772 c 0,5,6
 1255 1777 1255 1777 1261 1777 c 0,7,8
 1269 1777 1269 1777 1269 1767 c 0,9,10
 1269 1763 1269 1763 1268 1759 c 2,11,-1
 1201 1520 l 1,12,13
 1042 1427 1042 1427 899 1346.5 c 128,-1,14
 756 1266 756 1266 599 1175 c 1,15,-1
 672 282 l 1,16,-1
 531 0 l 1,17,-1
 511 256 l 1,18,19
 403 97 403 97 286.5 67.5 c 128,-1,20
 170 38 170 38 0 0 c 1,21,-1
 114 273 l 1,22,23
 234 291 234 291 319 301.5 c 128,-1,24
 404 312 404 312 503 363 c 1,25,-1
 439 1026 l 1,0,-1
EndSplineSet
EndChar

StartChar: uniFEDE
Encoding: 65246 65246 134
Width: 921
GlyphClass: 2
Flags: W
LayerCount: 2
Fore
SplineSet
672 1363 m 1,0,-1
 824 1604 l 1,1,-1
 874 805 l 2,2,3
 876 787 876 787 876 777 c 2,4,-1
 878 754 l 1,5,-1
 877 750 l 1,6,7
 877 619 877 619 834 492.5 c 128,-1,8
 791 366 791 366 716 258 c 0,9,10
 603 96 603 96 432 33 c 0,11,12
 343 1 343 1 268 1 c 0,13,14
 198 1 198 1 139 30 c 0,15,16
 17 89 17 89 0 285 c 0,17,18
 -1 301 -1 301 -1 317 c 0,19,20
 -1 509 -1 509 179 838 c 0,21,22
 189 857 189 857 198 857 c 0,23,24
 201 857 201 857 204 856 c 0,25,26
 210 853 210 853 210 843 c 0,27,28
 210 832 210 832 203 814 c 1,29,30
 179 761 179 761 141.5 688 c 128,-1,31
 104 615 104 615 85 542 c 0,32,33
 75 501 75 501 75 463 c 0,34,35
 75 433 75 433 82 404 c 0,36,37
 97 340 97 340 179 305 c 1,38,39
 244 294 244 294 304 294 c 0,40,41
 403 294 403 294 491 324 c 0,42,43
 632 373 632 373 731 457 c 1,44,-1
 672 1363 l 1,0,-1
EndSplineSet
EndChar

StartChar: uniFEDF
Encoding: 65247 65247 135
Width: 642
GlyphClass: 2
Flags: W
LayerCount: 2
Fore
SplineSet
586 447 m 0,0,1
 527 214 527 214 321 104 c 0,2,3
 250 66 250 66 164 43 c 128,-1,4
 78 20 78 20 0 0 c 1,5,-1
 0 1 l 1,6,-1
 3 8 l 1,7,-1
 89 273 l 1,8,9
 185 287 185 287 274.5 307 c 128,-1,10
 364 327 364 327 456 367 c 1,11,12
 456 523 456 523 440.5 812.5 c 128,-1,13
 425 1102 425 1102 415 1257 c 1,14,-1
 566 1497 l 1,15,-1
 609 668 l 2,16,17
 610 650 610 650 610 632 c 0,18,19
 610 588 610 588 605 547 c 0,20,21
 597 490 597 490 586 447 c 0,0,1
EndSplineSet
EndChar

StartChar: uniFEE0
Encoding: 65248 65248 136
Width: 505
GlyphClass: 2
Flags: W
LayerCount: 2
Fore
SplineSet
414 1160 m 1,0,-1
 565 1410 l 1,1,-1
 647 282 l 1,2,-1
 505 0 l 1,3,-1
 486 256 l 1,4,5
 378 97 378 97 275 70 c 128,-1,6
 172 43 172 43 0 0 c 1,7,-1
 88 273 l 1,8,9
 208 291 208 291 293 301.5 c 128,-1,10
 378 312 378 312 477 363 c 1,11,-1
 414 1160 l 1,0,-1
EndSplineSet
EndChar

StartChar: uniFEE2
Encoding: 65250 65250 137
Width: 1056
GlyphClass: 2
Flags: W
LayerCount: 2
Fore
SplineSet
991 1031 m 0,0,1
 917 662 917 662 626 515 c 0,2,3
 526 464 526 464 400 438 c 128,-1,4
 274 412 274 412 175 358 c 0,5,6
 135 337 135 337 98.5 303.5 c 128,-1,7
 62 270 62 270 73 204 c 2,8,-1
 157 -330 l 1,9,10
 184 -547 184 -547 130 -737 c 1,11,12
 101 -521 101 -521 51 -321.5 c 128,-1,13
 1 -122 1 -122 0 101 c 0,14,15
 0 212 0 212 23 318 c 128,-1,16
 46 424 46 424 85 511 c 1,17,18
 136 590 136 590 224.5 627 c 128,-1,19
 313 664 313 664 426 696 c 2,20,-1
 575 738 l 1,21,22
 602 797 602 797 663 950.5 c 128,-1,23
 724 1104 724 1104 779 1104 c 1,24,25
 816 1116 816 1116 911 1112 c 128,-1,26
 1006 1108 1006 1108 991 1031 c 0,0,1
EndSplineSet
EndChar

StartChar: uniFEE3
Encoding: 65251 65251 138
Width: 851
GlyphClass: 2
Flags: W
LayerCount: 2
Fore
SplineSet
796 616 m 0,0,1
 762 448 762 448 687 341 c 128,-1,2
 612 234 612 234 483 158 c 1,3,-1
 483 158 l 1,4,5
 382 103 382 103 260 69 c 128,-1,6
 138 35 138 35 0 0 c 1,7,-1
 87 270 l 1,8,-1
 150 280 l 2,9,10
 213 289 213 289 271.5 303 c 128,-1,11
 330 317 330 317 391 335 c 1,12,-1
 391 334 l 1,13,-1
 395 336 l 1,14,15
 422 395 422 395 476 542 c 128,-1,16
 530 689 530 689 584 689 c 1,17,18
 621 701 621 701 716 697 c 128,-1,19
 811 693 811 693 796 616 c 0,0,1
EndSplineSet
EndChar

StartChar: uniFEE4
Encoding: 65252 65252 139
Width: 524
GlyphClass: 2
Flags: W
LayerCount: 2
Fore
SplineSet
796 616 m 0,0,1
 762 448 762 448 687 341 c 128,-1,2
 612 234 612 234 483 158 c 1,3,-1
 483 158 l 1,4,5
 382 103 382 103 260 69 c 128,-1,6
 138 35 138 35 0 0 c 1,7,-1
 87 270 l 1,8,-1
 150 280 l 2,9,10
 213 289 213 289 271.5 303 c 128,-1,11
 330 317 330 317 391 335 c 1,12,-1
 391 334 l 1,13,-1
 395 336 l 1,14,15
 422 395 422 395 476 542 c 128,-1,16
 530 689 530 689 584 689 c 1,17,18
 621 701 621 701 716 697 c 128,-1,19
 811 693 811 693 796 616 c 0,0,1
EndSplineSet
EndChar

StartChar: uniFEE6
Encoding: 65254 65254 140
Width: 877
GlyphClass: 2
Flags: W
LayerCount: 2
Fore
SplineSet
200 772 m 1,0,-1
 194 759 l 1,1,2
 138 648 138 648 86 508 c 0,3,4
 72 471 72 471 72 439 c 0,5,6
 72 351 72 351 179 305 c 1,7,8
 245 293 245 293 306 293 c 0,9,10
 413 293 413 293 508 330 c 0,11,12
 656 387 656 387 754 477 c 1,13,-1
 754 495 l 2,14,15
 754 570 754 570 740 634 c 1,16,17
 723 706 723 706 702 775 c 1,18,-1
 814 1031 l 1,19,20
 879 895 879 895 879 751 c 0,21,22
 879 692 879 692 868 633 c 0,23,24
 831 425 831 425 716 258 c 1,25,26
 603 96 603 96 432 33 c 0,27,28
 343 1 343 1 268 1 c 0,29,30
 198 1 198 1 139 30 c 0,31,32
 17 89 17 89 0 285 c 0,33,34
 -1 301 -1 301 -1 317 c 0,35,36
 -1 509 -1 509 179 838 c 0,37,38
 203 883 203 883 232.5 934 c 128,-1,39
 262 985 262 985 289 1032 c 1,40,-1
 320 1015 l 1,41,-1
 323 1013 l 1,42,-1
 484 905 l 1,43,44
 451 844 451 844 418 786 c 128,-1,45
 385 728 385 728 352 670 c 1,46,-1
 200 772 l 1,0,-1
EndSplineSet
EndChar

StartChar: uniFEE7
Encoding: 65255 65255 141
Width: 604
GlyphClass: 2
Flags: W
LayerCount: 2
Fore
SplineSet
562 506 m 0,0,1
 550 406 550 406 494.5 296 c 128,-1,2
 439 186 439 186 364 121 c 0,3,4
 298 63 298 63 210.5 37.5 c 128,-1,5
 123 12 123 12 0 0 c 1,6,-1
 119 275 l 1,7,-1
 121 275 l 1,8,9
 208 285 208 285 281.5 299 c 128,-1,10
 355 313 355 313 412 352 c 1,11,12
 411 394 411 394 390 463.5 c 128,-1,13
 369 533 369 533 349 593 c 1,14,-1
 506 825 l 1,15,-1
 541 733 l 2,16,17
 566 667 566 667 566 580 c 0,18,19
 566 545 566 545 562 506 c 0,0,1
555 1083 m 1,20,21
 513 1029 513 1029 471 977 c 128,-1,22
 429 925 429 925 387 873 c 1,23,-1
 243 1008 l 1,24,25
 284 1061 284 1061 326.5 1113 c 128,-1,26
 369 1165 369 1165 411 1218 c 1,27,-1
 555 1083 l 1,20,21
EndSplineSet
EndChar

StartChar: uniFEE8
Encoding: 65256 65256 142
Width: 419
GlyphClass: 2
Flags: W
LayerCount: 2
Fore
SplineSet
423 50 m 1,0,-1
 421 50 l 2,1,2
 412 50 412 50 412 61 c 0,3,4
 412 69 412 69 418 85 c 1,5,6
 348 56 348 56 218.5 32 c 128,-1,7
 89 8 89 8 0 0 c 1,8,-1
 119 275 l 1,9,10
 157 278 157 278 292 287 c 128,-1,11
 427 296 427 296 517 346 c 0,12,13
 577 380 577 380 604 446 c 1,14,15
 609 453 609 453 612 453 c 256,16,17
 615 453 615 453 615 442 c 0,18,19
 615 423 615 423 613 418 c 0,20,21
 590 346 590 346 545 239 c 128,-1,22
 500 132 500 132 423 50 c 1,0,-1
570 757 m 1,23,24
 528 703 528 703 486 651 c 128,-1,25
 444 599 444 599 402 547 c 1,26,-1
 258 682 l 1,27,28
 299 735 299 735 341.5 787 c 128,-1,29
 384 839 384 839 426 892 c 1,30,-1
 570 757 l 1,23,24
EndSplineSet
EndChar

StartChar: uniFEEA
Encoding: 65258 65258 143
Width: 403
GlyphClass: 2
Flags: W
LayerCount: 2
Fore
SplineSet
519 822 m 1,0,-1
 556 282 l 1,1,-1
 403 0 l 1,2,-1
 377 388 l 1,3,4
 312 313 312 313 213 284 c 0,5,6
 186 276 186 276 160 276 c 0,7,8
 90 276 90 276 29 334 c 0,9,10
 1 361 1 361 1 408 c 0,11,12
 1 432 1 432 8 461 c 0,13,14
 29 548 29 548 77 642 c 128,-1,15
 125 736 125 736 181.5 816 c 128,-1,16
 238 896 238 896 266 922 c 0,17,18
 342 993 342 993 404 993 c 0,19,20
 424 993 424 993 442 986 c 0,21,22
 518 956 518 956 519 822 c 1,0,-1
293 739 m 0,23,24
 275 745 275 745 259 745 c 0,25,26
 229 745 229 745 205 725 c 0,27,28
 167 695 167 695 143 665 c 0,29,30
 132 651 132 651 132 636 c 0,31,32
 132 623 132 623 141 608 c 1,33,34
 163 564 163 564 223 547 c 0,35,36
 252 539 252 539 282 539 c 0,37,38
 314 539 314 539 347 548 c 1,39,40
 350 567 350 567 350 590 c 0,41,42
 350 621 350 621 345 659 c 0,43,44
 337 724 337 724 293 739 c 0,23,24
EndSplineSet
EndChar

StartChar: uniFEEB
Encoding: 65259 65259 144
Width: 1200
GlyphClass: 2
Flags: W
LayerCount: 2
Fore
SplineSet
393 91 m 1,0,1
 383 90 383 90 371 88 c 1,2,-1
 370 87 l 1,3,-1
 370 88 l 1,4,5
 278 64 278 64 185.5 44 c 128,-1,6
 93 24 93 24 0 0 c 1,7,-1
 88 273 l 1,8,9
 145 281 145 281 219 293 c 0,10,11
 290 304 290 304 351 316 c 1,12,13
 453 564 453 564 596 730 c 0,14,15
 656 800 656 800 702 800 c 0,16,17
 741 800 741 800 770 750 c 0,18,19
 807 685 807 685 807 627 c 0,20,21
 807 588 807 588 789 552 c 0,22,23
 746 464 746 464 691 358 c 1,24,25
 845 387 845 387 945 451 c 1,26,27
 947 486 947 486 947 519 c 0,28,29
 947 766 947 766 862 944 c 1,30,31
 847 972 847 972 813 995 c 0,32,33
 795 1006 795 1006 775 1006 c 0,34,35
 756 1006 756 1006 735 996 c 0,36,37
 668 962 668 962 626.5 902 c 128,-1,38
 585 842 585 842 538 790 c 0,39,40
 529 780 529 780 507 780 c 1,41,42
 506 779 506 779 505 779 c 0,43,44
 488 779 488 779 488 788 c 0,45,46
 488 789 488 789 489 791 c 0,47,48
 511 856 511 856 552 908.5 c 128,-1,49
 593 961 593 961 632 1014 c 0,50,51
 682 1081 682 1081 752 1145.5 c 128,-1,52
 822 1210 822 1210 891 1233 c 0,53,54
 917 1242 917 1242 941 1242 c 0,55,56
 981 1242 981 1242 1017 1218 c 0,57,58
 1073 1180 1073 1180 1096 1042 c 0,59,60
 1111 946 1111 946 1125 861 c 0,61,62
 1134 808 1134 808 1134 757 c 0,63,64
 1134 724 1134 724 1130 691 c 0,65,66
 1118 574 1118 574 1026.5 434 c 128,-1,67
 935 294 935 294 843 223 c 0,68,69
 672 91 672 91 416 91 c 2,70,-1
 393 91 l 1,0,1
641 416 m 1,71,-1
 637 422 l 1,72,73
 608 503 608 503 567 503 c 0,74,75
 560 503 560 503 552 501 c 0,76,77
 501 483 501 483 467 408 c 0,78,79
 463 399 463 399 463 390 c 0,80,81
 463 376 463 376 474 363 c 0,82,83
 490 345 490 345 499 345 c 2,84,-1
 502 345 l 1,85,86
 588 371 588 371 641 416 c 1,71,-1
EndSplineSet
EndChar

StartChar: uniFEEC
Encoding: 65260 65260 145
Width: 1286
GlyphClass: 2
Flags: W
LayerCount: 2
Fore
SplineSet
365 86 m 1,0,-1
 28 7 l 2,1,2
 21 5 21 5 13.5 3 c 128,-1,3
 6 1 6 1 0 0 c 1,4,-1
 93 271 l 1,5,-1
 161 282 l 1,6,-1
 287 303 l 1,7,8
 338 418 338 418 403.5 528.5 c 128,-1,9
 469 639 469 639 544 729 c 1,10,-1
 544 730 l 2,11,12
 544 739 544 739 589 805 c 0,13,14
 639 877 639 877 693 904 c 0,15,16
 723 918 723 918 758 918 c 0,17,18
 820 918 820 918 899 874 c 0,19,20
 1023 805 1023 805 1107 775 c 1,21,22
 1219 721 1219 721 1219 624 c 2,23,-1
 1219 614 l 1,24,25
 1213 509 1213 509 1141 400 c 0,26,27
 1022 220 1022 220 844 116 c 0,28,29
 740 55 740 55 595 55 c 0,30,31
 491 55 491 55 365 86 c 1,0,-1
566 588 m 1,32,33
 518 571 518 571 489.5 533.5 c 128,-1,34
 461 496 461 496 434 460 c 0,35,36
 422 443 422 443 422 427 c 0,37,38
 422 414 422 414 429 402 c 0,39,40
 444 373 444 373 468 361 c 1,41,42
 533 365 533 365 613 403 c 0,43,44
 643 418 643 418 643 452 c 0,45,46
 643 472 643 472 633 499 c 0,47,48
 605 572 605 572 566 588 c 1,32,33
1013 494 m 0,49,50
 950 533 950 533 920.5 544.5 c 128,-1,51
 891 556 891 556 817 586 c 1,52,53
 789 509 789 509 750.5 442 c 128,-1,54
 712 375 712 375 667 314 c 1,55,-1
 675 314 l 2,56,57
 709 314 709 314 779 328 c 0,58,59
 857 343 857 343 927.5 368.5 c 128,-1,60
 998 394 998 394 1033 427 c 0,61,62
 1046 440 1046 440 1046 453 c 0,63,64
 1046 473 1046 473 1013 494 c 0,49,50
EndSplineSet
EndChar

StartChar: uniFEEE
Encoding: 65262 65262 146
Width: 1057
GlyphClass: 2
Flags: W
LayerCount: 2
Fore
SplineSet
470 17 m 1,0,1
 377 0 377 0 281 0 c 0,2,3
 261 0 261 0 240 1 c 0,4,5
 123 5 123 5 11 17 c 1,6,7
 0 17 0 17 0 29 c 0,8,9
 0 40 0 40 9 46 c 0,10,11
 168 134 168 134 347 202.5 c 128,-1,12
 526 271 526 271 703 343 c 0,13,14
 794 379 794 379 859 452 c 0,15,16
 864 459 864 459 864 470 c 0,17,18
 864 478 864 478 862 488 c 0,19,20
 856 513 856 513 845 529 c 1,21,22
 809 520 809 520 769 520 c 0,23,24
 754 520 754 520 739 522 c 0,25,26
 682 526 682 526 656 556 c 1,27,28
 633 581 633 581 633 614 c 0,29,30
 633 644 633 644 652 681 c 0,31,32
 686 747 686 747 717 818 c 128,-1,33
 748 889 748 889 797 944 c 0,34,35
 813 962 813 962 834 962 c 0,36,37
 844 962 844 962 855 958 c 0,38,39
 890 945 890 945 908 927 c 0,40,41
 1003 830 1003 830 1003 694 c 2,42,-1
 1003 681 l 1,43,44
 998 536 998 536 925.5 397.5 c 128,-1,45
 853 259 853 259 730.5 151.5 c 128,-1,46
 608 44 608 44 470 17 c 1,0,1
EndSplineSet
EndChar

StartChar: uniFEF0
Encoding: 65264 65264 147
Width: 848
GlyphClass: 2
Flags: W
LayerCount: 2
Fore
SplineSet
160 48 m 0,0,1
 27 121 27 121 9 251 c 0,2,3
 3 291 3 291 3 333 c 0,4,5
 3 424 3 424 31 521 c 0,6,7
 71 662 71 662 144.5 791.5 c 128,-1,8
 218 921 218 921 270 993 c 0,9,10
 274 998 274 998 279 998 c 0,11,12
 281 998 281 998 284 997 c 0,13,14
 288 996 288 996 288 991 c 0,15,16
 288 988 288 988 286 983 c 0,17,18
 256 920 256 920 210 835.5 c 128,-1,19
 164 751 164 751 136 663 c 0,20,21
 115 595 115 595 115 529 c 0,22,23
 115 509 115 509 117 490 c 0,24,25
 125 405 125 405 204 344 c 0,26,27
 273 290 273 290 394 282 c 0,28,29
 427 280 427 280 460 280 c 0,30,31
 544 280 544 280 621 295 c 1,32,33
 860 338 860 338 1056 465 c 1,34,35
 952 475 952 475 866.5 511.5 c 128,-1,36
 781 548 781 548 757 631 c 0,37,38
 752 648 752 648 752 668 c 0,39,40
 752 708 752 708 772 763 c 0,41,42
 802 845 802 845 848 925 c 1,43,44
 872 853 872 853 934 811 c 128,-1,45
 996 769 996 769 1065 751 c 1,46,47
 1107 739 1107 739 1153 732.5 c 128,-1,48
 1199 726 1199 726 1226 697 c 0,49,50
 1259 662 1259 662 1259 615 c 0,51,52
 1259 559 1259 559 1211 485 c 0,53,54
 1146 384 1146 384 1018.5 279 c 128,-1,55
 891 174 891 174 740 100.5 c 128,-1,56
 589 27 589 27 435 5 c 0,57,58
 395 -1 395 -1 359 -1 c 0,59,60
 250 -1 250 -1 160 48 c 0,0,1
EndSplineSet
EndChar

StartChar: uniFEF2
Encoding: 65266 65266 148
Width: 848
GlyphClass: 2
Flags: W
LayerCount: 2
Fore
SplineSet
160 48 m 0,0,1
 27 121 27 121 9 251 c 0,2,3
 3 291 3 291 3 333 c 0,4,5
 3 424 3 424 31 521 c 0,6,7
 71 662 71 662 144.5 791.5 c 128,-1,8
 218 921 218 921 270 993 c 0,9,10
 274 998 274 998 279 998 c 0,11,12
 281 998 281 998 284 997 c 0,13,14
 288 996 288 996 288 991 c 0,15,16
 288 988 288 988 286 983 c 0,17,18
 256 920 256 920 210 835.5 c 128,-1,19
 164 751 164 751 136 663 c 0,20,21
 115 595 115 595 115 529 c 0,22,23
 115 509 115 509 117 490 c 0,24,25
 125 405 125 405 204 344 c 0,26,27
 273 290 273 290 394 282 c 0,28,29
 427 280 427 280 460 280 c 0,30,31
 544 280 544 280 621 295 c 1,32,33
 860 338 860 338 1056 465 c 1,34,35
 952 475 952 475 866.5 511.5 c 128,-1,36
 781 548 781 548 757 631 c 0,37,38
 752 648 752 648 752 668 c 0,39,40
 752 708 752 708 772 763 c 0,41,42
 802 845 802 845 848 925 c 1,43,44
 872 853 872 853 934 811 c 128,-1,45
 996 769 996 769 1065 751 c 1,46,47
 1107 739 1107 739 1153 732.5 c 128,-1,48
 1199 726 1199 726 1226 697 c 0,49,50
 1259 662 1259 662 1259 615 c 0,51,52
 1259 559 1259 559 1211 485 c 0,53,54
 1146 384 1146 384 1018.5 279 c 128,-1,55
 891 174 891 174 740 100.5 c 128,-1,56
 589 27 589 27 435 5 c 0,57,58
 395 -1 395 -1 359 -1 c 0,59,60
 250 -1 250 -1 160 48 c 0,0,1
673 -313 m 1,61,62
 574 -331 574 -331 476 -349.5 c 128,-1,63
 378 -368 378 -368 280 -386 c 1,64,-1
 402 -142 l 1,65,66
 616 -104 616 -104 796 -69 c 1,67,-1
 673 -313 l 1,61,62
EndSplineSet
EndChar

StartChar: uniFEF3
Encoding: 65267 65267 149
Width: 604
GlyphClass: 2
Flags: W
LayerCount: 2
Fore
SplineSet
562 506 m 0,0,1
 550 406 550 406 494.5 296 c 128,-1,2
 439 186 439 186 364 121 c 0,3,4
 298 63 298 63 210.5 37.5 c 128,-1,5
 123 12 123 12 0 0 c 1,6,-1
 119 275 l 1,7,-1
 121 275 l 1,8,9
 208 285 208 285 281.5 299 c 128,-1,10
 355 313 355 313 412 352 c 1,11,12
 411 394 411 394 390 463.5 c 128,-1,13
 369 533 369 533 349 593 c 1,14,-1
 506 825 l 1,15,-1
 541 733 l 2,16,17
 566 667 566 667 566 580 c 0,18,19
 566 545 566 545 562 506 c 0,0,1
452 -322 m 1,20,21
 353 -340 353 -340 255 -358.5 c 128,-1,22
 157 -377 157 -377 59 -395 c 1,23,-1
 181 -151 l 1,24,25
 395 -113 395 -113 575 -78 c 1,26,-1
 452 -322 l 1,20,21
EndSplineSet
EndChar

StartChar: uniFEF4
Encoding: 65268 65268 150
Width: 419
GlyphClass: 2
Flags: W
LayerCount: 2
Fore
SplineSet
423 50 m 1,0,-1
 421 50 l 2,1,2
 412 50 412 50 412 61 c 0,3,4
 412 69 412 69 418 85 c 1,5,6
 348 56 348 56 218.5 32 c 128,-1,7
 89 8 89 8 0 0 c 1,8,-1
 119 275 l 1,9,10
 157 278 157 278 292 287 c 128,-1,11
 427 296 427 296 517 346 c 0,12,13
 577 380 577 380 604 446 c 1,14,15
 609 453 609 453 612 453 c 256,16,17
 615 453 615 453 615 442 c 0,18,19
 615 423 615 423 613 418 c 0,20,21
 590 346 590 346 545 239 c 128,-1,22
 500 132 500 132 423 50 c 1,0,-1
364 -363 m 1,23,24
 265 -381 265 -381 167 -399.5 c 128,-1,25
 69 -418 69 -418 -29 -436 c 1,26,-1
 93 -192 l 1,27,28
 307 -154 307 -154 487 -119 c 1,29,-1
 364 -363 l 1,23,24
EndSplineSet
EndChar

StartChar: uniFEF5
Encoding: 65269 65269 151
Width: 1412
GlyphClass: 3
Flags: W
LayerCount: 2
Fore
SplineSet
1345 911 m 1,0,1
 1337 623 1337 623 1174.5 405 c 128,-1,2
 1012 187 1012 187 748 87 c 0,3,4
 612 35 612 35 439.5 21 c 128,-1,5
 267 7 267 7 89 4 c 0,6,7
 70 3 70 3 26 1 c 0,8,9
 22 0 22 0 18 0 c 0,10,11
 -2 0 -2 0 -2 7 c 0,12,13
 -2 12 -2 12 8 20 c 1,14,15
 71 50 71 50 143.5 76 c 128,-1,16
 216 102 216 102 283 129 c 1,17,-1
 724 321 l 1,18,-1
 653 934 l 1,19,-1
 786 1180 l 1,20,21
 804 1021 804 1021 826 867.5 c 128,-1,22
 848 714 848 714 860 550 c 1,23,-1
 768 343 l 1,24,25
 883 393 883 393 992 450 c 128,-1,26
 1101 507 1101 507 1189 585 c 0,27,28
 1218 611 1218 611 1218 622 c 2,29,-1
 1218 623 l 1,30,31
 1206 712 1206 712 1193 802.5 c 128,-1,32
 1180 893 1180 893 1164 981 c 1,33,34
 1193 1044 1193 1044 1224 1104 c 128,-1,35
 1255 1164 1255 1164 1282 1228 c 1,36,37
 1301 1152 1301 1152 1317.5 1073.5 c 128,-1,38
 1334 995 1334 995 1345 911 c 1,0,1
1173 1440 m 1,39,-1
 1083 1325 l 1,40,41
 1008 1277 1008 1277 883 1252 c 0,42,43
 845 1244 845 1244 808 1244 c 0,44,45
 724 1244 724 1244 648 1284 c 0,46,47
 639 1288 639 1288 631 1288 c 0,48,49
 621 1288 621 1288 613 1283 c 0,50,51
 596 1272 596 1272 582 1264 c 0,52,53
 552 1246 552 1246 501 1192 c 0,54,55
 484 1174 484 1174 479 1174 c 0,56,57
 478 1174 478 1174 478 1176 c 0,58,59
 478 1187 478 1187 512 1246 c 0,60,61
 566 1340 566 1340 673 1394 c 0,62,63
 678 1396 678 1396 683 1396 c 0,64,65
 694 1396 694 1396 709 1389 c 0,66,67
 790 1348 790 1348 879 1348 c 0,68,69
 919 1348 919 1348 961 1356 c 0,70,71
 1095 1383 1095 1383 1165 1445 c 0,72,73
 1168 1448 1168 1448 1170 1448 c 0,74,75
 1173 1448 1173 1448 1173 1440 c 1,39,-1
EndSplineSet
EndChar

StartChar: uniFEF6
Encoding: 65270 65270 152
Width: 1497
GlyphClass: 3
Flags: W
LayerCount: 2
Fore
SplineSet
1454 871 m 2,0,1
 1454 882 1454 882 1442 892 c 0,2,3
 1439 894 1439 894 1435 894 c 0,4,5
 1426 894 1426 894 1415 875 c 0,6,7
 1330 741 1330 741 1288 616.5 c 128,-1,8
 1246 492 1246 492 1147 370 c 1,9,10
 989 178 989 178 748 87 c 0,11,12
 612 35 612 35 439.5 21 c 128,-1,13
 267 7 267 7 89 4 c 0,14,15
 70 3 70 3 26 1 c 0,16,17
 22 0 22 0 18 0 c 0,18,19
 -2 0 -2 0 -2 7 c 0,20,21
 -2 12 -2 12 8 20 c 1,22,23
 71 50 71 50 143.5 76 c 128,-1,24
 216 102 216 102 283 129 c 1,25,-1
 724 321 l 1,26,-1
 653 934 l 1,27,-1
 786 1180 l 1,28,29
 804 1021 804 1021 826 867.5 c 128,-1,30
 848 714 848 714 860 550 c 1,31,-1
 768 343 l 1,32,33
 831 370 831 370 893 399.5 c 128,-1,34
 955 429 955 429 1013 462 c 0,35,36
 1178 555 1178 555 1238.5 681 c 128,-1,37
 1299 807 1299 807 1386 982 c 0,38,39
 1411 1033 1411 1033 1453 1080.5 c 128,-1,40
 1495 1128 1495 1128 1548 1155 c 0,41,42
 1554 1158 1554 1158 1562 1158 c 0,43,44
 1568 1158 1568 1158 1576 1157 c 0,45,46
 1593 1153 1593 1153 1593 1141 c 2,47,-1
 1623 282 l 1,48,-1
 1497 0 l 1,49,-1
 1454 871 l 2,0,1
1173 1440 m 1,50,-1
 1083 1325 l 1,51,52
 1008 1277 1008 1277 883 1252 c 0,53,54
 845 1244 845 1244 808 1244 c 0,55,56
 724 1244 724 1244 648 1284 c 0,57,58
 639 1288 639 1288 631 1288 c 0,59,60
 621 1288 621 1288 613 1283 c 0,61,62
 596 1272 596 1272 582 1264 c 0,63,64
 552 1246 552 1246 501 1192 c 0,65,66
 484 1174 484 1174 479 1174 c 0,67,68
 478 1174 478 1174 478 1176 c 0,69,70
 478 1187 478 1187 512 1246 c 0,71,72
 566 1340 566 1340 673 1394 c 0,73,74
 678 1396 678 1396 683 1396 c 0,75,76
 694 1396 694 1396 709 1389 c 0,77,78
 790 1348 790 1348 879 1348 c 0,79,80
 919 1348 919 1348 961 1356 c 0,81,82
 1095 1383 1095 1383 1165 1445 c 0,83,84
 1168 1448 1168 1448 1170 1448 c 0,85,86
 1173 1448 1173 1448 1173 1440 c 1,50,-1
EndSplineSet
EndChar

StartChar: uniFEF7
Encoding: 65271 65271 153
Width: 1412
GlyphClass: 3
Flags: W
LayerCount: 2
Fore
SplineSet
1345 911 m 1,0,1
 1337 623 1337 623 1174.5 405 c 128,-1,2
 1012 187 1012 187 748 87 c 0,3,4
 612 35 612 35 439.5 21 c 128,-1,5
 267 7 267 7 89 4 c 0,6,7
 70 3 70 3 26 1 c 0,8,9
 22 0 22 0 18 0 c 0,10,11
 -2 0 -2 0 -2 7 c 0,12,13
 -2 12 -2 12 8 20 c 1,14,15
 71 50 71 50 143.5 76 c 128,-1,16
 216 102 216 102 283 129 c 1,17,-1
 724 321 l 1,18,-1
 653 934 l 1,19,-1
 786 1180 l 1,20,21
 804 1021 804 1021 826 867.5 c 128,-1,22
 848 714 848 714 860 550 c 1,23,-1
 768 343 l 1,24,25
 883 393 883 393 992 450 c 128,-1,26
 1101 507 1101 507 1189 585 c 0,27,28
 1218 611 1218 611 1218 622 c 2,29,-1
 1218 623 l 1,30,31
 1206 712 1206 712 1193 802.5 c 128,-1,32
 1180 893 1180 893 1164 981 c 1,33,34
 1193 1044 1193 1044 1224 1104 c 128,-1,35
 1255 1164 1255 1164 1282 1228 c 1,36,37
 1301 1152 1301 1152 1317.5 1073.5 c 128,-1,38
 1334 995 1334 995 1345 911 c 1,0,1
814 1575 m 2,39,40
 801 1547 801 1547 770 1534 c 128,-1,41
 739 1521 739 1521 716 1489 c 1,42,43
 734 1468 734 1468 765 1460 c 128,-1,44
 796 1452 796 1452 820 1437 c 0,45,46
 847 1419 847 1419 847 1390 c 0,47,48
 847 1373 847 1373 839 1354 c 0,49,50
 816 1299 816 1299 760 1259 c 0,51,52
 712 1224 712 1224 659.5 1216 c 128,-1,53
 607 1208 607 1208 552 1199 c 1,54,55
 599 1220 599 1220 648 1241 c 128,-1,56
 697 1262 697 1262 742 1287 c 1,57,58
 756 1296 756 1296 756 1303 c 0,59,60
 756 1306 756 1306 752 1309 c 0,61,62
 734 1319 734 1319 712.5 1328.5 c 128,-1,63
 691 1338 691 1338 674 1348 c 0,64,65
 636 1368 636 1368 636 1404 c 0,66,67
 636 1442 636 1442 680 1499 c 0,68,69
 764 1608 764 1608 805 1639 c 0,70,71
 822 1652 822 1652 858 1668 c 1,72,-1
 814 1575 l 2,39,40
EndSplineSet
EndChar

StartChar: uniFEF8
Encoding: 65272 65272 154
Width: 1497
GlyphClass: 3
Flags: W
LayerCount: 2
Fore
SplineSet
1454 871 m 2,0,1
 1454 882 1454 882 1442 892 c 0,2,3
 1439 894 1439 894 1435 894 c 0,4,5
 1426 894 1426 894 1415 875 c 0,6,7
 1330 741 1330 741 1288 616.5 c 128,-1,8
 1246 492 1246 492 1147 370 c 1,9,10
 989 178 989 178 748 87 c 0,11,12
 612 35 612 35 439.5 21 c 128,-1,13
 267 7 267 7 89 4 c 0,14,15
 70 3 70 3 26 1 c 0,16,17
 22 0 22 0 18 0 c 0,18,19
 -2 0 -2 0 -2 7 c 0,20,21
 -2 12 -2 12 8 20 c 1,22,23
 71 50 71 50 143.5 76 c 128,-1,24
 216 102 216 102 283 129 c 1,25,-1
 724 321 l 1,26,-1
 653 934 l 1,27,-1
 786 1180 l 1,28,29
 804 1021 804 1021 826 867.5 c 128,-1,30
 848 714 848 714 860 550 c 1,31,-1
 768 343 l 1,32,33
 831 370 831 370 893 399.5 c 128,-1,34
 955 429 955 429 1013 462 c 0,35,36
 1178 555 1178 555 1238.5 681 c 128,-1,37
 1299 807 1299 807 1386 982 c 0,38,39
 1411 1033 1411 1033 1453 1080.5 c 128,-1,40
 1495 1128 1495 1128 1548 1155 c 0,41,42
 1554 1158 1554 1158 1562 1158 c 0,43,44
 1568 1158 1568 1158 1576 1157 c 0,45,46
 1593 1153 1593 1153 1593 1141 c 2,47,-1
 1623 282 l 1,48,-1
 1497 0 l 1,49,-1
 1454 871 l 2,0,1
814 1575 m 2,50,51
 801 1547 801 1547 770 1534 c 128,-1,52
 739 1521 739 1521 716 1489 c 1,53,54
 734 1468 734 1468 765 1460 c 128,-1,55
 796 1452 796 1452 820 1437 c 0,56,57
 847 1419 847 1419 847 1390 c 0,58,59
 847 1373 847 1373 839 1354 c 0,60,61
 816 1299 816 1299 760 1259 c 0,62,63
 712 1224 712 1224 659.5 1216 c 128,-1,64
 607 1208 607 1208 552 1199 c 1,65,66
 599 1220 599 1220 648 1241 c 128,-1,67
 697 1262 697 1262 742 1287 c 1,68,69
 756 1296 756 1296 756 1303 c 0,70,71
 756 1306 756 1306 752 1309 c 0,72,73
 734 1319 734 1319 712.5 1328.5 c 128,-1,74
 691 1338 691 1338 674 1348 c 0,75,76
 636 1368 636 1368 636 1404 c 0,77,78
 636 1442 636 1442 680 1499 c 0,79,80
 764 1608 764 1608 805 1639 c 0,81,82
 822 1652 822 1652 858 1668 c 1,83,-1
 814 1575 l 2,50,51
EndSplineSet
EndChar

StartChar: uniFEF9
Encoding: 65273 65273 155
Width: 1412
GlyphClass: 3
Flags: W
LayerCount: 2
Fore
SplineSet
1345 911 m 1,0,1
 1337 623 1337 623 1174.5 405 c 128,-1,2
 1012 187 1012 187 748 87 c 0,3,4
 612 35 612 35 439.5 21 c 128,-1,5
 267 7 267 7 89 4 c 0,6,7
 70 3 70 3 26 1 c 0,8,9
 22 0 22 0 18 0 c 0,10,11
 -2 0 -2 0 -2 7 c 0,12,13
 -2 12 -2 12 8 20 c 1,14,15
 71 50 71 50 143.5 76 c 128,-1,16
 216 102 216 102 283 129 c 1,17,-1
 724 321 l 1,18,-1
 653 934 l 1,19,-1
 786 1180 l 1,20,21
 804 1021 804 1021 826 867.5 c 128,-1,22
 848 714 848 714 860 550 c 1,23,-1
 768 343 l 1,24,25
 883 393 883 393 992 450 c 128,-1,26
 1101 507 1101 507 1189 585 c 0,27,28
 1218 611 1218 611 1218 622 c 2,29,-1
 1218 623 l 1,30,31
 1206 712 1206 712 1193 802.5 c 128,-1,32
 1180 893 1180 893 1164 981 c 1,33,34
 1193 1044 1193 1044 1224 1104 c 128,-1,35
 1255 1164 1255 1164 1282 1228 c 1,36,37
 1301 1152 1301 1152 1317.5 1073.5 c 128,-1,38
 1334 995 1334 995 1345 911 c 1,0,1
814 -104 m 2,39,40
 801 -132 801 -132 770 -145 c 128,-1,41
 739 -158 739 -158 716 -190 c 1,42,43
 734 -211 734 -211 765 -219 c 128,-1,44
 796 -227 796 -227 820 -242 c 0,45,46
 847 -260 847 -260 847 -289 c 0,47,48
 847 -306 847 -306 839 -325 c 0,49,50
 816 -380 816 -380 760 -420 c 0,51,52
 712 -455 712 -455 659.5 -463 c 128,-1,53
 607 -471 607 -471 552 -480 c 1,54,55
 599 -459 599 -459 648 -438 c 128,-1,56
 697 -417 697 -417 742 -392 c 1,57,58
 756 -383 756 -383 756 -376 c 0,59,60
 756 -373 756 -373 752 -370 c 0,61,62
 734 -360 734 -360 712.5 -350.5 c 128,-1,63
 691 -341 691 -341 674 -331 c 0,64,65
 636 -311 636 -311 636 -275 c 0,66,67
 636 -237 636 -237 680 -180 c 0,68,69
 764 -71 764 -71 805 -40 c 0,70,71
 822 -27 822 -27 858 -11 c 1,72,-1
 814 -104 l 2,39,40
EndSplineSet
EndChar

StartChar: uniFEFA
Encoding: 65274 65274 156
Width: 1497
GlyphClass: 3
Flags: W
LayerCount: 2
Fore
SplineSet
1454 871 m 2,0,1
 1454 882 1454 882 1442 892 c 0,2,3
 1439 894 1439 894 1435 894 c 0,4,5
 1426 894 1426 894 1415 875 c 0,6,7
 1330 741 1330 741 1288 616.5 c 128,-1,8
 1246 492 1246 492 1147 370 c 1,9,10
 989 178 989 178 748 87 c 0,11,12
 612 35 612 35 439.5 21 c 128,-1,13
 267 7 267 7 89 4 c 0,14,15
 70 3 70 3 26 1 c 0,16,17
 22 0 22 0 18 0 c 0,18,19
 -2 0 -2 0 -2 7 c 0,20,21
 -2 12 -2 12 8 20 c 1,22,23
 71 50 71 50 143.5 76 c 128,-1,24
 216 102 216 102 283 129 c 1,25,-1
 724 321 l 1,26,-1
 653 934 l 1,27,-1
 786 1180 l 1,28,29
 804 1021 804 1021 826 867.5 c 128,-1,30
 848 714 848 714 860 550 c 1,31,-1
 768 343 l 1,32,33
 831 370 831 370 893 399.5 c 128,-1,34
 955 429 955 429 1013 462 c 0,35,36
 1178 555 1178 555 1238.5 681 c 128,-1,37
 1299 807 1299 807 1386 982 c 0,38,39
 1411 1033 1411 1033 1453 1080.5 c 128,-1,40
 1495 1128 1495 1128 1548 1155 c 0,41,42
 1554 1158 1554 1158 1562 1158 c 0,43,44
 1568 1158 1568 1158 1576 1157 c 0,45,46
 1593 1153 1593 1153 1593 1141 c 2,47,-1
 1623 282 l 1,48,-1
 1497 0 l 1,49,-1
 1454 871 l 2,0,1
814 -104 m 2,50,51
 801 -132 801 -132 770 -145 c 128,-1,52
 739 -158 739 -158 716 -190 c 1,53,54
 734 -211 734 -211 765 -219 c 128,-1,55
 796 -227 796 -227 820 -242 c 0,56,57
 847 -260 847 -260 847 -289 c 0,58,59
 847 -306 847 -306 839 -325 c 0,60,61
 816 -380 816 -380 760 -420 c 0,62,63
 712 -455 712 -455 659.5 -463 c 128,-1,64
 607 -471 607 -471 552 -480 c 1,65,66
 599 -459 599 -459 648 -438 c 128,-1,67
 697 -417 697 -417 742 -392 c 1,68,69
 756 -383 756 -383 756 -376 c 0,70,71
 756 -373 756 -373 752 -370 c 0,72,73
 734 -360 734 -360 712.5 -350.5 c 128,-1,74
 691 -341 691 -341 674 -331 c 0,75,76
 636 -311 636 -311 636 -275 c 0,77,78
 636 -237 636 -237 680 -180 c 0,79,80
 764 -71 764 -71 805 -40 c 0,81,82
 822 -27 822 -27 858 -11 c 1,83,-1
 814 -104 l 2,50,51
EndSplineSet
EndChar

StartChar: uniFEFB
Encoding: 65275 65275 157
Width: 1412
GlyphClass: 3
Flags: W
LayerCount: 2
Fore
SplineSet
1345 911 m 1,0,1
 1337 623 1337 623 1174.5 405 c 128,-1,2
 1012 187 1012 187 748 87 c 0,3,4
 612 35 612 35 439.5 21 c 128,-1,5
 267 7 267 7 89 4 c 0,6,7
 70 3 70 3 26 1 c 0,8,9
 22 0 22 0 18 0 c 0,10,11
 -2 0 -2 0 -2 7 c 0,12,13
 -2 12 -2 12 8 20 c 1,14,15
 71 50 71 50 143.5 76 c 128,-1,16
 216 102 216 102 283 129 c 1,17,-1
 724 321 l 1,18,-1
 653 934 l 1,19,-1
 786 1180 l 1,20,21
 804 1021 804 1021 826 867.5 c 128,-1,22
 848 714 848 714 860 550 c 1,23,-1
 768 343 l 1,24,25
 883 393 883 393 992 450 c 128,-1,26
 1101 507 1101 507 1189 585 c 0,27,28
 1218 611 1218 611 1218 622 c 2,29,-1
 1218 623 l 1,30,31
 1206 712 1206 712 1193 802.5 c 128,-1,32
 1180 893 1180 893 1164 981 c 1,33,34
 1193 1044 1193 1044 1224 1104 c 128,-1,35
 1255 1164 1255 1164 1282 1228 c 1,36,37
 1301 1152 1301 1152 1317.5 1073.5 c 128,-1,38
 1334 995 1334 995 1345 911 c 1,0,1
EndSplineSet
EndChar

StartChar: uniFEFC
Encoding: 65276 65276 158
Width: 1497
GlyphClass: 3
Flags: W
LayerCount: 2
Fore
SplineSet
1454 871 m 2,0,1
 1454 882 1454 882 1442 892 c 0,2,3
 1439 894 1439 894 1435 894 c 0,4,5
 1426 894 1426 894 1415 875 c 0,6,7
 1330 741 1330 741 1288 616.5 c 128,-1,8
 1246 492 1246 492 1147 370 c 1,9,10
 989 178 989 178 748 87 c 0,11,12
 612 35 612 35 439.5 21 c 128,-1,13
 267 7 267 7 89 4 c 0,14,15
 70 3 70 3 26 1 c 0,16,17
 22 0 22 0 18 0 c 0,18,19
 -2 0 -2 0 -2 7 c 0,20,21
 -2 12 -2 12 8 20 c 1,22,23
 71 50 71 50 143.5 76 c 128,-1,24
 216 102 216 102 283 129 c 1,25,-1
 724 321 l 1,26,-1
 653 934 l 1,27,-1
 786 1180 l 1,28,29
 804 1021 804 1021 826 867.5 c 128,-1,30
 848 714 848 714 860 550 c 1,31,-1
 768 343 l 1,32,33
 831 370 831 370 893 399.5 c 128,-1,34
 955 429 955 429 1013 462 c 0,35,36
 1178 555 1178 555 1238.5 681 c 128,-1,37
 1299 807 1299 807 1386 982 c 0,38,39
 1411 1033 1411 1033 1453 1080.5 c 128,-1,40
 1495 1128 1495 1128 1548 1155 c 0,41,42
 1554 1158 1554 1158 1562 1158 c 0,43,44
 1568 1158 1568 1158 1576 1157 c 0,45,46
 1593 1153 1593 1153 1593 1141 c 2,47,-1
 1623 282 l 1,48,-1
 1497 0 l 1,49,-1
 1454 871 l 2,0,1
EndSplineSet
EndChar

StartChar: uniFDF2
Encoding: 65010 65010 159
Width: 2008
GlyphClass: 3
Flags: W
AnchorPoint: "Anchor-17" 117 -72 baselig 3
AnchorPoint: "Anchor-16" 297 963 baselig 3
AnchorPoint: "Anchor-17" 711 -135 baselig 2
AnchorPoint: "Anchor-16" 819 1152 baselig 2
AnchorPoint: "Anchor-17" 1314 -198 baselig 1
AnchorPoint: "Anchor-16" 1359 1368 baselig 1
AnchorPoint: "Anchor-17" 1854 54 baselig 0
AnchorPoint: "Anchor-16" 1890 1575 baselig 0
LayerCount: 2
Fore
SplineSet
352 739 m 0,0,1
 334 745 334 745 318 745 c 0,2,3
 288 745 288 745 264 725 c 0,4,5
 226 695 226 695 202 665 c 0,6,7
 191 651 191 651 191 636 c 0,8,9
 191 623 191 623 200 608 c 1,10,11
 222 564 222 564 282 547 c 0,12,13
 311 539 311 539 341 539 c 0,14,15
 373 539 373 539 406 548 c 1,16,17
 409 567 409 567 409 590 c 0,18,19
 409 621 409 621 404 659 c 0,20,21
 396 724 396 724 352 739 c 0,0,1
615 283 m 1,22,23
 694 294 694 294 755 302 c 0,24,25
 840 312 840 312 939 363 c 1,26,-1
 896 986 l 1,27,-1
 1047 1236 l 1,28,-1
 1109 282 l 1,29,-1
 1109 281 l 1,30,31
 1177 293 1177 293 1242 307 c 0,32,33
 1331 327 1331 327 1423 367 c 1,34,35
 1423 523 1423 523 1407.5 742.5 c 128,-1,36
 1392 962 1392 962 1382 1117 c 1,37,-1
 1533 1357 l 1,38,-1
 1576 668 l 2,39,40
 1577 650 1577 650 1577 632 c 0,41,42
 1577 588 1577 588 1572 547 c 0,43,44
 1564 490 1564 490 1553 447 c 0,45,46
 1494 214 1494 214 1288 104 c 0,47,48
 1217 66 1217 66 1131 43 c 128,-1,49
 1045 20 1045 20 967 0 c 1,50,-1
 948 256 l 1,51,52
 840 97 840 97 737 70 c 128,-1,53
 634 43 634 43 462 0 c 1,54,-1
 436 388 l 1,55,56
 371 313 371 313 272 284 c 0,57,58
 245 276 245 276 219 276 c 0,59,60
 149 276 149 276 88 334 c 0,61,62
 60 361 60 361 60 408 c 0,63,64
 60 432 60 432 67 461 c 0,65,66
 88 548 88 548 136 642 c 128,-1,67
 184 736 184 736 240.5 816 c 128,-1,68
 297 896 297 896 325 922 c 0,69,70
 401 993 401 993 463 993 c 0,71,72
 483 993 483 993 501 986 c 0,73,74
 577 956 577 956 578 822 c 1,75,-1
 615 283 l 1,22,23
1739 1192 m 1,76,-1
 1890 1432 l 1,77,-1
 1948 562 l 1,78,-1
 1797 322 l 1,79,-1
 1739 1192 l 1,76,-1
EndSplineSet
Ligature2: "'calt' Contextual Alternates in Arabic lookup 23 subtable" _.notdef_2 __.notdef_44 __.notdef_45 __.notdef_53
EndChar

StartChar: uni0671
Encoding: 1649 1649 160
AltUni2: 00fb50.ffffffff.0
Width: 226
GlyphClass: 2
Flags: W
LayerCount: 2
Fore
SplineSet
7 870 m 1,0,-1
 158 1110 l 1,1,-1
 216 240 l 1,2,-1
 65 0 l 1,3,-1
 7 870 l 1,0,-1
264 1363 m 0,4,5
 253 1386 253 1386 234 1386 c 0,6,7
 222 1386 222 1386 207 1377 c 0,8,9
 181 1363 181 1363 161 1343.5 c 128,-1,10
 141 1324 141 1324 121 1304 c 1,11,12
 160 1311 160 1311 196 1320 c 128,-1,13
 232 1329 232 1329 263 1344 c 0,14,15
 267 1346 267 1346 267 1351 c 256,16,17
 267 1356 267 1356 264 1363 c 0,4,5
77 1297 m 1,18,19
 94 1300 94 1300 93 1300 c 1,20,21
 167 1385 167 1385 224 1438 c 0,22,23
 241 1453 241 1453 275 1460 c 0,24,25
 283 1461 283 1461 290 1461 c 0,26,27
 313 1461 313 1461 328 1445 c 1,28,29
 341 1429 341 1429 341 1412 c 0,30,31
 341 1400 341 1400 335 1388 c 0,32,33
 319 1357 319 1357 301 1333 c 0,34,35
 255 1272 255 1272 157 1235 c 1,36,37
 95 1209 95 1209 63 1209 c 0,38,39
 55 1209 55 1209 49 1211 c 0,40,41
 19 1219 19 1219 3 1231 c 0,42,43
 -9 1240 -9 1240 -23 1240 c 0,44,45
 -27 1240 -27 1240 -32 1239 c 0,46,47
 -51 1235 -51 1235 -108 1179 c 0,48,49
 -111 1175 -111 1175 -118 1171 c 0,50,51
 -122 1169 -122 1169 -124 1169 c 256,52,53
 -126 1169 -126 1169 -126 1172 c 0,54,55
 -111 1232 -111 1232 -44 1297 c 0,56,57
 -10 1329 -10 1329 20 1329 c 256,58,59
 50 1329 50 1329 77 1297 c 1,18,19
EndSplineSet
MultipleSubs2: "'fina' Terminal Forms in Arabic lookup 2 subtable" _.notdef_3 _.notdef_316
MultipleSubs2: "'isol' Isolated Forms in Arabic lookup 0 subtable" _.notdef_2 _.notdef_316
EndChar

StartChar: uniFB51
Encoding: 64337 64337 161
Width: 217
GlyphClass: 2
Flags: W
LayerCount: 2
Fore
SplineSet
137 1167 m 1,0,-1
 266 1407 l 1,1,-1
 344 282 l 1,2,-1
 217 0 l 1,3,-1
 137 1167 l 1,0,-1
390 1660 m 0,4,5
 379 1683 379 1683 360 1683 c 0,6,7
 348 1683 348 1683 333 1674 c 0,8,9
 307 1660 307 1660 287 1640.5 c 128,-1,10
 267 1621 267 1621 247 1601 c 1,11,12
 286 1608 286 1608 322 1617 c 128,-1,13
 358 1626 358 1626 389 1641 c 0,14,15
 393 1643 393 1643 393 1648 c 256,16,17
 393 1653 393 1653 390 1660 c 0,4,5
203 1594 m 1,18,19
 220 1597 220 1597 219 1597 c 1,20,21
 293 1682 293 1682 350 1735 c 0,22,23
 367 1750 367 1750 401 1757 c 0,24,25
 409 1758 409 1758 416 1758 c 0,26,27
 439 1758 439 1758 454 1742 c 1,28,29
 467 1726 467 1726 467 1709 c 0,30,31
 467 1697 467 1697 461 1685 c 0,32,33
 445 1654 445 1654 427 1630 c 0,34,35
 381 1569 381 1569 283 1532 c 1,36,37
 221 1506 221 1506 189 1506 c 0,38,39
 181 1506 181 1506 175 1508 c 0,40,41
 145 1516 145 1516 129 1528 c 0,42,43
 117 1537 117 1537 103 1537 c 0,44,45
 99 1537 99 1537 94 1536 c 0,46,47
 75 1532 75 1532 18 1476 c 0,48,49
 15 1472 15 1472 8 1468 c 0,50,51
 4 1466 4 1466 2 1466 c 256,52,53
 0 1466 0 1466 0 1469 c 0,54,55
 15 1529 15 1529 82 1594 c 0,56,57
 116 1626 116 1626 146 1626 c 256,58,59
 176 1626 176 1626 203 1594 c 1,18,19
EndSplineSet
EndChar

StartChar: afii57506
Encoding: 1662 1662 162
AltUni2: 00fb56.ffffffff.0
Width: 1439
GlyphClass: 2
Flags: W
LayerCount: 2
Fore
SplineSet
1279 440 m 0,0,1
 1214 304 1214 304 1031 191.5 c 128,-1,2
 848 79 848 79 643 31 c 0,3,4
 522 2 522 2 411 2 c 0,5,6
 332 2 332 2 257 17 c 0,7,8
 77 51 77 51 18 211 c 0,9,10
 -2 265 -2 265 -2 324 c 0,11,12
 -2 407 -2 407 39 500 c 0,13,14
 109 656 109 656 184 774 c 1,15,16
 197 792 197 792 211 792 c 0,17,18
 216 792 216 792 221 790 c 0,19,20
 232 785 232 785 232 772 c 0,21,22
 232 763 232 763 226 749 c 1,23,24
 142 592 142 592 142 491 c 0,25,26
 142 472 142 472 145 456 c 0,27,28
 163 348 163 348 255 300 c 1,29,30
 342 253 342 253 474 253 c 0,31,32
 481 253 481 253 488 254 c 0,33,34
 629 256 629 256 776 292 c 0,35,36
 922 327 922 327 1051 390 c 2,37,-1
 1179 453 l 1,38,-1
 1179 457 l 2,39,40
 1179 495 1179 495 1159 566 c 1,41,42
 1137 639 1137 639 1116 701 c 1,43,-1
 1273 933 l 1,44,-1
 1322 783 l 2,45,46
 1339 730 1339 730 1339 673 c 0,47,48
 1339 565 1339 565 1279 440 c 0,0,1
781 -284 m 1,49,50
 751 -347 751 -347 711.5 -405.5 c 128,-1,51
 672 -464 672 -464 631 -517 c 0,52,53
 624 -526 624 -526 617 -526 c 0,54,55
 608 -526 608 -526 600 -506 c 0,56,57
 557 -400 557 -400 505 -400 c 2,58,-1
 499 -400 l 1,59,60
 443 -407 443 -407 390.5 -466.5 c 128,-1,61
 338 -526 338 -526 295.5 -603 c 128,-1,62
 253 -680 253 -680 234 -706 c 1,63,-1
 233 -617 l 1,64,-1
 235 -614 l 1,65,66
 261 -563 261 -563 313.5 -473 c 128,-1,67
 366 -383 366 -383 430 -298 c 0,68,69
 493 -214 493 -214 563 -165 c 1,70,71
 592 -146 592 -146 621 -146 c 0,72,73
 664 -146 664 -146 709 -187 c 1,74,75
 749 -226 749 -226 781 -284 c 1,49,50
EndSplineSet
MultipleSubs2: "'medi' Medial Forms in Arabic lookup 3 subtable" _.notdef_7 salasneqat_B
MultipleSubs2: "'fina' Terminal Forms in Arabic lookup 2 subtable" _.notdef_5 salasneqat_B
MultipleSubs2: "'init' Initial Forms in Arabic lookup 1 subtable" _.notdef_6 salasneqat_B
MultipleSubs2: "'isol' Isolated Forms in Arabic lookup 0 subtable" _.notdef_4 salasneqat_B
EndChar

StartChar: uniFB57
Encoding: 64343 64343 163
Width: 1257
GlyphClass: 2
Flags: W
LayerCount: 2
Fore
SplineSet
18 213 m 0,0,1
 -2 267 -2 267 -2 326 c 0,2,3
 -2 409 -2 409 39 501 c 0,4,5
 109 657 109 657 184 776 c 1,6,7
 197 794 197 794 211 794 c 0,8,9
 216 794 216 794 221 792 c 0,10,11
 232 787 232 787 232 774 c 0,12,13
 232 765 232 765 226 751 c 1,14,15
 149 609 149 609 145 513 c 1,16,-1
 145 498 l 2,17,18
 145 413 145 413 189 360 c 0,19,20
 241 297 241 297 370 277 c 0,21,22
 469 261 469 261 578 261 c 0,23,24
 609 261 609 261 642 262 c 0,25,26
 786 268 786 268 916 293.5 c 128,-1,27
 1046 319 1046 319 1100 349 c 0,28,29
 1159 381 1159 381 1187 449 c 1,30,31
 1192 456 1192 456 1195 456 c 256,32,33
 1198 456 1198 456 1198 445 c 0,34,35
 1198 426 1198 426 1196 421 c 0,36,37
 1173 349 1173 349 1128 241.5 c 128,-1,38
 1083 134 1083 134 1006 53 c 1,39,-1
 1004 53 l 2,40,41
 997 53 997 53 997 64 c 0,42,43
 997 73 997 73 1001 88 c 1,44,45
 908 50 908 50 759 24 c 0,46,47
 631 1 631 1 502 1 c 0,48,49
 480 1 480 1 459 2 c 0,50,51
 308 6 308 6 183.5 53.5 c 128,-1,52
 59 101 59 101 18 213 c 0,0,1
781 -284 m 1,53,54
 751 -347 751 -347 711.5 -405.5 c 128,-1,55
 672 -464 672 -464 631 -517 c 0,56,57
 624 -526 624 -526 617 -526 c 0,58,59
 608 -526 608 -526 600 -506 c 0,60,61
 557 -400 557 -400 505 -400 c 2,62,-1
 499 -400 l 1,63,64
 443 -407 443 -407 390.5 -466.5 c 128,-1,65
 338 -526 338 -526 295.5 -603 c 128,-1,66
 253 -680 253 -680 234 -706 c 1,67,-1
 233 -617 l 1,68,-1
 235 -614 l 1,69,70
 261 -563 261 -563 313.5 -473 c 128,-1,71
 366 -383 366 -383 430 -298 c 0,72,73
 493 -214 493 -214 563 -165 c 1,74,75
 592 -146 592 -146 621 -146 c 0,76,77
 664 -146 664 -146 709 -187 c 1,78,79
 749 -226 749 -226 781 -284 c 1,53,54
EndSplineSet
EndChar

